<?xml version="1.0" encoding="utf-8"?>
<!-- Generator: Adobe Illustrator 16.0.0, SVG Export Plug-In . SVG Version: 6.00 Build 0)  -->
<!DOCTYPE svg PUBLIC "-//W3C//DTD SVG 1.1//EN" "http://www.w3.org/Graphics/SVG/1.1/DTD/svg11.dtd">
<svg version="1.1" id="Layer_1" xmlns="http://www.w3.org/2000/svg" xmlns:xlink="http://www.w3.org/1999/xlink" x="0px" y="0px"
	 width="40.061px" height="40.061px" viewBox="0 0 40.061 40.061" enable-background="new 0 0 40.061 40.061" xml:space="preserve">
<path d="M39.67,20.03c0,10.849-8.793,19.642-19.642,19.642c-10.847,0-19.64-8.793-19.64-19.642c0-10.847,8.793-19.64,19.64-19.64
	C30.877,0.39,39.67,9.184,39.67,20.03"/>
<path fill="#FFFFFF" d="M29.586,9.291h-19.11c-0.655,0-1.186,0.528-1.186,1.186v19.11c0,0.654,0.529,1.186,1.186,1.186h10.287
	v-8.316h-2.798V19.21h2.798v-2.393c0-2.772,1.696-4.282,4.171-4.282c1.188,0,2.204,0.088,2.501,0.127v2.897l-1.716,0.001
	c-1.348,0-1.607,0.642-1.607,1.579v2.069h3.21l-0.418,3.243h-2.792v8.316h5.477c0.653,0,1.186-0.531,1.186-1.186v-19.11
	C30.772,9.82,30.24,9.291,29.586,9.291"/>
</svg>
