<?xml version="1.0" encoding="utf-8"?>
<!-- Generator: Adobe Illustrator 16.0.0, SVG Export Plug-In . SVG Version: 6.00 Build 0)  -->
<!DOCTYPE svg PUBLIC "-//W3C//DTD SVG 1.1//EN" "http://www.w3.org/Graphics/SVG/1.1/DTD/svg11.dtd">
<svg version="1.1" id="Layer_1" xmlns="http://www.w3.org/2000/svg" xmlns:xlink="http://www.w3.org/1999/xlink" x="0px" y="0px"
	 width="40.061px" height="40.061px" viewBox="0 0 40.061 40.061" enable-background="new 0 0 40.061 40.061" xml:space="preserve">
<path d="M39.671,20.03c0,10.85-8.793,19.643-19.64,19.643C9.183,39.672,0.39,30.878,0.39,20.03c0-10.847,8.794-19.64,19.643-19.64
	C30.878,0.39,39.671,9.184,39.671,20.03"/>
<path fill="#FFFFFF" d="M8.592,27.442c2.49,0.117,4.741-0.496,6.827-2.057c-2.184-0.221-3.609-1.283-4.438-3.326h2.018
	c-2.46-1.057-3.786-2.75-3.636-4.719c0.642,0.182,1.283,0.365,1.929,0.548c0.023-0.035,0.051-0.071,0.077-0.107
	c-0.939-0.754-1.616-1.671-1.877-2.854c-0.266-1.195-0.101-2.318,0.517-3.438c2.587,3.017,5.808,4.684,9.768,4.964
	c0-0.125,0.014-0.222-0.002-0.312c-0.319-2.007,0.628-3.968,2.396-4.945c1.766-0.975,3.938-0.742,5.455,0.61
	c0.271,0.242,0.504,0.306,0.828,0.184c0.813-0.305,1.635-0.599,2.424-0.887c-0.131,0.707-0.644,1.398-1.789,2.46
	c0.398-0.084,0.807-0.147,1.199-0.257c0.402-0.109,0.799-0.257,1.271-0.412c-0.563,0.862-1.205,1.549-1.959,2.123
	c-0.281,0.213-0.354,0.437-0.364,0.777c-0.176,5.551-2.54,9.854-7.579,12.328c-4.328,2.125-8.715,1.813-12.924-0.584
	C8.683,27.51,8.639,27.475,8.592,27.442"/>
</svg>
