<?xml version="1.0" encoding="utf-8"?>
<!-- Generator: Adobe Illustrator 16.0.0, SVG Export Plug-In . SVG Version: 6.00 Build 0)  -->
<!DOCTYPE svg PUBLIC "-//W3C//DTD SVG 1.1//EN" "http://www.w3.org/Graphics/SVG/1.1/DTD/svg11.dtd">
<svg version="1.1" id="Layer_1" xmlns="http://www.w3.org/2000/svg" xmlns:xlink="http://www.w3.org/1999/xlink" x="0px" y="0px"
	 width="314.89px" height="320.942px" viewBox="0 0 314.89 320.942" enable-background="new 0 0 314.89 320.942"
	 xml:space="preserve">
<path fill-rule="evenodd" clip-rule="evenodd" d="M15.569,232.865c-0.189,2.938-1.768,4.973-3.908,6.642
	c-1.348,1.052-2.899,0.66-4.309,0.229c-2.322-0.708-4.308-2.02-5.883-3.911c-1.241-1.488-1.405-3.113-0.647-4.851
	c0.514-1.179,1.053-2.295,1.983-3.288c1.117-1.194,2.176-2.037,3.911-2.151c1.528-0.102,3.004-0.29,4.321,0.609
	c0.971,0.664,1.84,1.48,2.931,2.372c1.218-0.997,2.527-2.084,3.85-3.152c4.647-3.76,9.402-7.353,14.867-9.887
	c7.364-3.414,14.635-7.04,22.092-10.23c6.417-2.746,13.006-5.11,19.589-7.447c2.796-0.993,5.766-1.504,8.666-2.196
	c3.25-0.777,6.507-1.529,9.767-2.26c3.437-0.771,6.863-1.611,10.328-2.229c4.468-0.796,8.96-1.483,13.461-2.07
	c6.274-0.819,12.561-1.555,18.852-2.222c3.029-0.319,6.083-0.419,9.127-0.576c3.755-0.192,7.511-0.403,11.27-0.493
	c5.792-0.137,11.562-0.095,17.341,0.709c5.437,0.756,10.952,0.927,16.422,1.474c2.97,0.296,5.928,0.756,8.865,1.288
	c6.46,1.173,12.909,2.404,19.35,3.682c2.042,0.406,4.039,1.041,6.06,1.563c1.5,0.388,3.004,0.764,4.507,1.144
	c2.429,0.615,4.871,1.185,7.282,1.854c3.727,1.038,7.439,2.128,11.148,3.229c3.147,0.934,6.288,1.896,9.422,2.879
	c4.719,1.479,9.44,2.942,13.771,5.432c2.067,1.188,4.269,2.139,6.356,3.291c3.653,2.02,7.266,4.111,10.896,6.171
	c1.934,1.095,3.594,2.524,5.275,3.973c1.511,1.303,3.382,2.198,5.131,3.212c0.912,0.529,1.9,0.929,3.052,1.483
	c0.404-0.243,0.964-0.559,1.502-0.908c1.971-1.278,2.823-1.296,4.553,0.261c2.386,2.147,3.689,6.321,1.763,9.837
	c-1.129,2.059-3.025,2.999-5.184,3.476c-0.596,0.133-1.399,0.07-1.903-0.238c-2.469-1.515-4.311-3.586-5.015-6.473
	c-0.338-1.381-0.265-2.739,1.021-4.043c-1.168-0.605-2.175-1.202-3.241-1.659c-1.344-0.579-2.521-1.333-3.47-2.462
	c-2.215-2.631-5.326-4.022-8.179-5.736c-3.273-1.962-6.742-3.597-10.026-5.538c-6.705-3.967-14.031-6.32-21.421-8.546
	c-4.46-1.343-8.901-2.748-13.374-4.056c-2.808-0.82-5.656-1.506-8.485-2.26c-9.824-2.618-19.782-4.626-29.78-6.44
	c-7.426-1.35-14.93-1.963-22.447-2.513c-3.636-0.266-7.255-0.893-10.892-0.986c-8.671-0.223-17.333,0.212-25.993,0.718
	c-9.982,0.583-19.888,1.829-29.752,3.364c-5.367,0.834-10.67,2.097-15.983,3.251c-4.495,0.977-8.981,2.001-13.436,3.146
	c-2.83,0.726-5.647,1.567-8.375,2.604c-6.528,2.485-13.082,4.931-19.473,7.737c-6.391,2.81-12.61,6.011-18.878,9.094
	c-3.708,1.824-7.123,4.082-10.291,6.778c-2.454,2.087-5.127,3.904-7.142,6.478C16.537,232.377,16.037,232.559,15.569,232.865z
	 M8.536,228.95c-1.173-0.046-2.441,0.094-3.051,1.603c-0.26,0.645-0.579,1.266-0.861,1.902c-0.317,0.718-0.707,1.566,0.106,2.087
	c0.981,0.63,2.094,1.078,3.197,1.478c0.37,0.133,1.026,0.025,1.3-0.235c0.81-0.766,1.675-1.568,2.188-2.532
	C12.518,231.184,11.054,228.948,8.536,228.95z M306.435,231.473c-0.256-0.538-0.492-1.331-0.962-1.943
	c-0.527-0.685-2.104-0.769-2.357-0.129c-0.532,1.34-1.701,1.877-2.705,2.662c-0.525,0.412-0.964,1.054-0.426,1.696
	c0.732,0.875,1.279,2.153,2.735,1.966c1.419-0.182,2.608-0.823,3.172-2.24C306.107,232.942,306.203,232.351,306.435,231.473z"/>
<g>
	<path fill-rule="evenodd" clip-rule="evenodd" d="M155.8,211.352c-0.679,2.344-1.404,4.675-2.013,7.033
		c-0.245,0.951-0.688,1.674-1.568,2.004c-0.701,0.264-2.105-0.621-2.61-1.58c-0.408-0.777-0.355-1.479,0.137-2.33
		c0.974-1.689,1.736-3.503,2.551-5.28c1.095-2.395,2.008-4.853,2.476-7.46c0.319-1.781,1.549-3.069,2.608-4.418
		c0.262-0.333,1.122-0.625,1.382-0.451c0.908,0.611,2.02,1.282,2.429,2.207c1.105,2.496,1.948,5.114,2.786,7.721
		c1.15,3.572,2.524,7.094,2.893,10.877c0.025,0.237,0.076,0.472,0.101,0.71c0.083,0.782,0.221,1.63-0.677,2.032
		c-0.842,0.375-1.4-0.336-1.793-0.845c-0.441-0.575-0.789-1.354-0.851-2.071c-0.348-4.043-1.842-7.768-3.105-11.557
		c-0.034-0.1-0.148-0.172-0.367-0.415c-0.097,0.395-0.217,0.681-0.232,0.974c-0.283,5.615-0.447,11.222,0.285,16.828
		c0.245,1.884,0.173,3.822,0.109,5.73c-0.158,4.788,0,9.557,0.463,14.324c0.405,4.175,0.229,8.347-0.166,12.524
		c-0.259,2.731-0.448,5.498-0.306,8.232c0.298,5.696-0.273,11.34-0.629,17.003c-0.131,2.079-0.174,4.206,0.098,6.261
		c0.465,3.53,0.24,7.04,0.183,10.563c-0.02,1.244,0.015,2.496,0.101,3.738c0.079,1.173-0.4,2.108-1.256,2.231
		c-1.027,0.146-2.37-0.792-2.501-1.813c-0.091-0.709-0.16-1.442-0.078-2.146c0.431-3.692,0.556-7.388,0.192-11.091
		c-0.476-4.845,0.019-9.652,0.404-14.475c0.176-2.198,0.212-4.415,0.194-6.622c-0.037-4.718-0.148-9.427,0.392-14.138
		c0.463-4.04,0.399-8.095,0.052-12.168c-0.328-3.862-0.265-7.756-0.411-11.637c-0.131-3.459-0.331-6.914-0.467-10.373
		c-0.116-2.984-0.182-5.971-0.282-8.955c-0.013-0.398-0.098-0.794-0.149-1.19C156.048,211.338,155.924,211.344,155.8,211.352z"/>
</g>
<g>
	<path fill-rule="evenodd" clip-rule="evenodd" d="M169.752,182.024c-0.107,0.406-0.279,0.916-0.371,1.438
		c-0.132,0.755-0.531,1.146-1.303,1.226c-0.409,0.042-0.807,0.205-1.209,0.308c-0.889,0.227-1.236,0.887-1.336,1.711
		c-0.094,0.767,0.119,1.442,0.838,1.834c2.648,1.441,2.778,3.931,2.723,6.495c-0.016,0.785-0.404,1.157-1.239,1.18
		c-1.388,0.037-2.618-0.122-3.366-1.516c-0.185-0.347-0.545-0.651-0.896-0.846c-2.295-1.276-4.604-2.526-6.918-3.765
		c-1.07-0.572-2.177-0.841-3.443-0.7c-1.653,0.185-2.769-0.834-2.783-2.287c-0.015-1.533,1.079-2.539,2.68-2.677
		c0.996-0.085,2.013-0.305,2.945-0.661c3.012-1.149,5.992-2.381,8.974-3.606c0.372-0.152,0.798-0.386,0.997-0.707
		c0.533-0.853,1.305-1.087,2.161-0.86c0.895,0.236,1.254,1.06,1.451,1.89C169.764,180.932,169.721,181.42,169.752,182.024z"/>
</g>
<g>
	<path fill-rule="evenodd" clip-rule="evenodd" d="M268.162,183.354c-0.59,0.531-1.111,1.002-1.751,1.575
		c-2.694-1.752-4.367-4.581-6.872-6.689c0.114-0.444,0.148-0.932,0.358-1.325c0.905-1.69,2.72-1.587,3.422-0.307
		c0.056,0.103,0.144,0.188,0.213,0.286C265.054,179.013,266.574,181.135,268.162,183.354z"/>
	<path fill-rule="evenodd" clip-rule="evenodd" d="M275.244,193.358c-0.188,0.127-0.444,0.266-0.66,0.449
		c-1.418,1.203-1.469,1.221-2.691-0.053c-1.404-1.466-2.82-2.922-4.151-4.451c-0.921-1.056-0.868-1.628-0.05-2.697
		c0.809-1.058,2.247-0.972,2.986,0.122C272.138,188.895,273.639,191.032,275.244,193.358z"/>
	<path fill-rule="evenodd" clip-rule="evenodd" d="M287.289,210.565c-0.438,0.442-0.883,0.896-1.339,1.354
		c-0.859,0.201-1.27-0.459-1.767-0.949c-1.481-1.452-2.947-2.917-4.44-4.358c-0.622-0.601-0.658-1.188-0.19-1.898
		c0.876-1.326,2.569-1.629,3.463-0.463c1.478,1.93,2.83,3.958,4.226,5.95C287.301,210.286,287.272,210.428,287.289,210.565z"/>
	<path fill-rule="evenodd" clip-rule="evenodd" d="M260.787,172.407c-0.737,0.677-1.26,1.155-1.84,1.686
		c-1.481-0.529-2.605-1.583-3.78-2.566c-0.727-0.609-1.462-1.217-2.239-1.757c-1.268-0.883-1.34-1.889-0.116-2.856
		c0.414-0.326,0.896-0.567,1.563-0.983C256.492,168.067,258.596,170.193,260.787,172.407z"/>
	<path fill-rule="evenodd" clip-rule="evenodd" d="M230.177,138.74c-0.679-0.617-1.244-1.123-1.797-1.639
		c-1.138-1.06-2.271-2.069-3.809-2.595c-1.369-0.469-1.729-1.257-1.286-2.104c0.749-1.429,2.086-1.971,3.237-1.239
		c1.945,1.235,3.425,2.959,4.818,4.764c0.384,0.496,0.365,0.981-0.046,1.46C230.987,137.744,230.694,138.113,230.177,138.74z"/>
	<path fill-rule="evenodd" clip-rule="evenodd" d="M199.185,102.763c-0.617,0.713-1.035,1.196-1.568,1.813
		c-0.382-0.246-0.791-0.446-1.122-0.738c-1.736-1.526-3.469-3.061-5.159-4.639c-0.249-0.231-0.479-0.795-0.365-1.05
		c0.301-0.684,0.712-1.365,1.234-1.892c0.525-0.529,1.274-0.45,1.753,0.12C195.71,98.463,197.415,100.59,199.185,102.763z"/>
	<path fill-rule="evenodd" clip-rule="evenodd" d="M246.198,154.146c-0.701,0.555-1.289,1.02-2.013,1.593
		c-0.716-0.659-1.391-1.306-2.094-1.92c-1.021-0.893-2.029-1.801-3.102-2.625c-1.041-0.8-1.202-1.293-0.455-2.363
		c0.297-0.426,0.71-0.779,1.106-1.126c0.542-0.474,1.08-0.403,1.573,0.107c0.04,0.042,0.096,0.071,0.133,0.118
		C242.949,149.979,244.549,152.029,246.198,154.146z"/>
	<path fill-rule="evenodd" clip-rule="evenodd" d="M175.156,76.442c-0.514,0.508-0.965,0.956-1.506,1.493
		c-0.4-0.246-0.87-0.483-1.282-0.797c-1.517-1.155-3.034-2.314-4.515-3.514c-0.85-0.688-0.931-1.568-0.34-2.54
		c0.55-0.905,1.307-1.227,2.273-0.897c0.32,0.108,0.654,0.312,0.871,0.567c1.347,1.584,2.668,3.19,3.982,4.802
		C174.855,75.82,174.989,76.151,175.156,76.442z"/>
	<path fill-rule="evenodd" clip-rule="evenodd" d="M208.104,111.549c-1.636,2.331-1.619,2.31-3.718,0.716
		c-1.136-0.864-2.331-1.651-3.512-2.455c-0.858-0.583-1.046-1.236-0.564-2.115c0.834-1.516,2.228-1.736,3.421-0.539
		C205.161,108.593,206.59,110.028,208.104,111.549z"/>
	<path fill-rule="evenodd" clip-rule="evenodd" d="M191.02,92.926c-0.781,0.62-1.281,1.016-1.948,1.545
		c-0.091-0.043-0.482-0.176-0.806-0.404c-1.547-1.094-3.064-2.227-4.61-3.319c-1.145-0.807-1.242-1.281-0.423-2.486
		c0.78-1.146,1.786-1.475,2.655-0.64C187.675,89.338,189.342,91.178,191.02,92.926z"/>
	<path fill-rule="evenodd" clip-rule="evenodd" d="M223.069,127.978c-0.747,0.728-1.25,1.218-1.895,1.845
		c-0.5-0.324-1.035-0.656-1.557-1.011c-1.421-0.966-2.823-1.955-4.255-2.9c-0.797-0.525-0.927-0.884-0.494-1.78
		c0.83-1.715,2.353-2.012,3.719-0.676C220.069,124.904,221.509,126.399,223.069,127.978z"/>
	<path fill-rule="evenodd" clip-rule="evenodd" d="M250.889,164.923c-0.447-0.374-0.869-0.685-1.239-1.047
		c-1.105-1.078-2.161-2.211-3.299-3.253c-0.634-0.58-0.979-1.174-0.698-2.022c0.331-0.998,1.287-1.202,2.09-1.479
		c0.756-0.261,1.094,0.44,1.486,0.983c0.938,1.296,1.945,2.544,2.915,3.818c0.246,0.32,0.46,0.667,0.751,1.095
		C252.228,163.651,251.606,164.241,250.889,164.923z"/>
	<path fill-rule="evenodd" clip-rule="evenodd" d="M290.875,220.137c-1.713-1.551-3.234-2.949-4.777-4.322
		c-0.995-0.888-1.058-1.635-0.154-2.548c0.853-0.863,2.026-0.948,2.782-0.088c1.176,1.339,2.305,2.721,3.396,4.13
		c0.757,0.979,0.695,1.335-0.193,2.095C291.572,219.707,291.159,219.943,290.875,220.137z"/>
	<path fill-rule="evenodd" clip-rule="evenodd" d="M182.735,84.252c-0.657,0.707-1.13,1.216-1.729,1.86
		c-1.322-0.938-2.613-1.848-3.9-2.766c-0.435-0.309-0.867-0.623-1.281-0.956c-0.921-0.742-0.957-1.247-0.183-2.254
		c0.749-0.975,1.901-1.308,2.598-0.618C179.746,81.018,181.172,82.596,182.735,84.252z"/>
	<path fill-rule="evenodd" clip-rule="evenodd" d="M280.726,201.449c-2.167,1.713-2.024,1.804-4.06-0.031
		c-0.702-0.632-1.482-1.18-2.249-1.736c-1.027-0.739-1.182-1.547-0.444-2.532c0.746-0.994,1.96-1.296,2.81-0.652
		c0.326,0.249,0.589,0.59,0.844,0.915C278.643,198.719,279.644,200.039,280.726,201.449z"/>
	<path fill-rule="evenodd" clip-rule="evenodd" d="M238.084,144.357c-1.515,1.688-1.754,1.677-3.419,0.269
		c-0.763-0.643-1.646-1.148-2.493-1.687c-0.667-0.424-1.354-0.808-1.169-1.777c0.173-0.906,1.24-1.876,2.13-1.903
		c0.216-0.005,0.457,0.093,0.651,0.204C234.563,139.903,237.572,143.352,238.084,144.357z"/>
	<path fill-rule="evenodd" clip-rule="evenodd" d="M214.483,119.329c-0.25,0.382-0.511,0.828-0.816,1.239
		c-0.525,0.707-1.242,0.765-1.874,0.267c-1.162-0.913-2.306-1.868-3.346-2.915c-0.753-0.754-0.526-2.156,0.298-2.848
		c0.767-0.642,1.442-0.635,2.14,0.13C212.036,116.472,213.14,117.784,214.483,119.329z"/>
	<path fill-rule="evenodd" clip-rule="evenodd" d="M296.293,226.914c-0.409-0.49-0.827-1.051-1.305-1.552
		c-0.49-0.517-0.988-1.054-1.576-1.439c-0.704-0.461-1.044-0.923-0.624-1.754c0.517-1.026,1.374-1.632,2.235-1.38
		c0.491,0.145,1.001,0.435,1.352,0.804c0.525,0.551,0.992,1.188,1.353,1.86C298.872,225.596,298.752,225.861,296.293,226.914z"/>
</g>
<g>
	<path fill-rule="evenodd" clip-rule="evenodd" d="M168.046,93.445c-0.481-0.136-0.893-0.218-1.279-0.364
		c-1.108-0.423-1.661-1.174-1.737-2.43c-0.188-3.091-0.258-6.218-1.474-9.143c-0.587-1.411-1.241-2.795-1.749-3.93
		c-1.651,0.146-2.963,0.262-4.548,0.4c-0.075,0.125-0.401,0.496-0.544,0.927c-0.992,3-1.979,6.001-2.888,9.026
		c-0.235,0.784-0.216,1.654-0.252,2.487c-0.066,1.504-0.324,1.886-1.581,2.162c-0.918,0.202-2.296-0.438-2.642-1.36
		c-0.319-0.853-0.596-1.632-0.032-2.676c0.982-1.822,1.601-3.841,2.371-5.776c1.19-2.993,2.384-5.984,3.569-8.979
		c0.24-0.606,0.482-1.216,0.669-1.84c0.507-1.693,1.861-2.44,3.424-1.688c0.711,0.342,1.334,0.979,1.839,1.608
		c0.854,1.067,1.55,2.262,2.373,3.356c2.626,3.492,3.76,7.547,4.496,11.755c0.254,1.456,0.118,2.974,0.892,4.346
		C169.284,91.913,169.129,92.063,168.046,93.445z"/>
	<path fill-rule="evenodd" clip-rule="evenodd" d="M158.89,88.979c0.735,0.22,1.425,0.35,2.046,0.629
		c1.162,0.521,1.488,1.038,1.334,2.227c-0.223,1.711-0.498,3.418-0.841,5.108c-0.152,0.747-0.703,1.181-1.54,1.234
		c-1.951,0.127-2.93-1.057-2.482-2.976c0.379-1.623,0.668-3.266,1.021-4.895C158.512,89.913,158.69,89.54,158.89,88.979z"/>
	<path fill-rule="evenodd" clip-rule="evenodd" d="M160.379,111.231c0.017,0.329,0.077,0.984,0.076,1.639
		c-0.003,1.496-0.939,2.292-2.3,1.81c-1.577-0.56-2.249-0.614-1.986-2.973c0.145-1.304,0.271-2.608,0.406-3.913
		c0.124-1.197,0.662-1.562,1.81-1.223c1.85,0.547,2.253,1.136,2.109,3.082C160.464,110.07,160.434,110.486,160.379,111.231z"/>
	<path fill-rule="evenodd" clip-rule="evenodd" d="M158.556,78.842c2.623,0.749,3.029,1.212,3.201,3.596
		c0.077,1.073,0.146,2.151,0.124,3.226c-0.03,1.558-1.11,2.246-2.554,1.694c-1.667-0.636-2.073-1.547-1.679-3.364
		c0.252-1.157,0.313-2.355,0.498-3.529C158.233,79.917,158.416,79.386,158.556,78.842z"/>
	<path fill-rule="evenodd" clip-rule="evenodd" d="M159.366,140.687c0,0.714,0.038,1.43-0.009,2.14
		c-0.085,1.282-0.815,1.777-2.388,1.679c-1.373-0.086-1.886-0.558-1.771-1.855c0.146-1.649,0.362-3.297,0.652-4.926
		c0.123-0.689,0.43-1.367,1.428-1.237c1.146,0.148,1.995,0.644,2.102,1.548c0.104,0.873,0.022,1.768,0.022,2.652
		C159.391,140.687,159.379,140.687,159.366,140.687z"/>
	<path fill-rule="evenodd" clip-rule="evenodd" d="M160.678,161.284c-0.092,1.3-0.157,2.602-0.283,3.898
		c-0.098,1.012-0.811,1.591-1.802,1.552c-2.027-0.079-2.774-1.013-2.305-2.977c0.304-1.268,0.638-2.535,1.08-3.759
		c0.203-0.562,0.597-1.235,1.089-1.469c0.787-0.373,1.305,0.439,1.715,0.959c0.374,0.474,0.499,1.146,0.733,1.731
		C160.829,161.241,160.753,161.263,160.678,161.284z"/>
	<path fill-rule="evenodd" clip-rule="evenodd" d="M156.53,125.368c1.975,0.721,2.783,1.929,2.922,3.6
		c0.073,0.886,0.078,1.782,0.039,2.67c-0.067,1.526-0.924,2.241-2.433,2.101c-1.277-0.119-2.128-1.303-1.907-2.624
		c0.186-1.111,0.287-2.24,0.533-3.338C155.858,126.997,156.211,126.258,156.53,125.368z"/>
	<path fill-rule="evenodd" clip-rule="evenodd" d="M160.156,117.763c0,1.665,0.052,3.213-0.017,4.755
		c-0.056,1.267-0.672,1.692-2.065,1.616c-1.334-0.073-2.261-0.778-2.231-1.819c0.044-1.547,0.156-3.093,0.289-4.635
		c0.074-0.867,0.611-1.271,1.504-1.023C158.426,116.876,159.154,117.313,160.156,117.763z"/>
	<path fill-rule="evenodd" clip-rule="evenodd" d="M160.521,173.364c0,0.298-0.011,0.597,0.002,0.894
		c0.046,1.062-0.403,1.884-1.327,2.348c-1.028,0.517-1.977,0.108-2.84-0.505c-0.645-0.459-0.633-1.127-0.431-1.777
		c0.319-1.023,0.666-2.042,1.071-3.033c0.297-0.723,0.676-1.44,1.677-1.297c0.798,0.114,1.684,0.93,1.808,1.767
		c0.078,0.524,0.015,1.069,0.015,1.604C160.504,173.364,160.513,173.364,160.521,173.364z"/>
	<path fill-rule="evenodd" clip-rule="evenodd" d="M157.647,147.313c2.788,1.545,2.487,2.735,2.256,5.413
		c-0.073,0.851-0.951,1.436-1.822,1.394c-0.469-0.023-0.943-0.149-1.394-0.296c-1.393-0.453-1.613-0.943-1.063-2.255
		c0.393-0.935,0.768-1.877,1.192-2.798C157.053,148.262,157.372,147.79,157.647,147.313z"/>
	<path fill-rule="evenodd" clip-rule="evenodd" d="M161.289,102.546c0.006,1.085-1.148,2.074-2.42,2.074
		c-1.341,0-1.939-0.588-1.938-1.926c0.001-0.71-0.019-1.425,0.056-2.129c0.104-0.98,0.628-1.34,1.575-1.175
		C160.324,99.698,161.279,100.803,161.289,102.546z"/>
</g>
<path fill-rule="evenodd" clip-rule="evenodd" fill="#FFFFFF" d="M8.877,232.057c2.517-0.055,4.028,2.148,2.97,4.24
	c-0.493,0.975-1.341,1.795-2.133,2.578c-0.27,0.267-0.923,0.388-1.295,0.263c-1.111-0.376-2.233-0.801-3.228-1.409
	c-0.823-0.504-0.452-1.36-0.15-2.085c0.268-0.642,0.574-1.27,0.82-1.919C6.438,232.202,7.702,232.035,8.877,232.057z"/>
<path fill-rule="evenodd" clip-rule="evenodd" fill="#FFFFFF" d="M306.762,228.267c-0.213,0.883-0.295,1.476-0.499,2.022
	c-0.534,1.43-1.71,2.096-3.124,2.308c-1.452,0.218-2.026-1.049-2.777-1.908c-0.551-0.631-0.126-1.281,0.391-1.704
	c0.986-0.808,2.144-1.369,2.647-2.72c0.239-0.644,1.818-0.594,2.359,0.079C306.242,226.946,306.494,227.734,306.762,228.267z"/>
<g>
	<path fill-rule="evenodd" clip-rule="evenodd" d="M306.017,224.167c3.213-0.158,5.074,1.736,6.563,4.078
		c1.363,2.145,2.133,4.543,2.299,7.09c0.049,0.746-0.043,1.561-0.305,2.255c-0.354,0.935-0.965,1.737-0.83,2.853
		c0.084,0.693-0.613,0.894-1.146,0.787c-0.961-0.191-1.709,0.238-2.551,0.537c-0.877,0.313-1.871,0.503-2.791,0.439
		c-2.135-0.146-4.371-0.146-6.342-0.842c-1.451-0.512-2.678-1.912-3.766-3.131c-1.113-1.248-1.248-2.873-1.119-4.563
		C296.493,227.665,301.903,224.017,306.017,224.167z M310.437,228.827c-1.51,1.435-2.889,2.646-3.59,4.592
		c1.461,1,2.844,1.945,4.414,3.018C312.2,233.638,311.741,231.335,310.437,228.827z M302.409,233.542
		c-0.908-0.594-1.668-1.093-2.418-1.584c-1.736,2.34-1.701,4.535,0.025,5.439C300.759,236.202,301.503,235.002,302.409,233.542z
		 M303.204,238.679c2.111,0.311,3.91,0.619,6.127-0.368c-1.555-1.026-2.793-1.843-4.186-2.763
		C304.464,236.647,303.913,237.534,303.204,238.679z M303.806,231.267c0.959-1.282,1.949-2.277,2.465-3.844
		c-0.916,0.063-1.664,0.113-2.328,0.157c-0.508,0.829-0.932,1.522-1.414,2.313C302.938,230.333,303.319,230.743,303.806,231.267z"/>
	<path fill-rule="evenodd" clip-rule="evenodd" fill="#FFFFFF" d="M310.437,228.827c1.305,2.508,1.764,4.811,0.824,7.609
		c-1.57-1.072-2.953-2.018-4.414-3.018C307.548,231.474,308.927,230.262,310.437,228.827z"/>
	<path fill-rule="evenodd" clip-rule="evenodd" fill="#FFFFFF" d="M302.409,233.542c-0.906,1.46-1.65,2.66-2.393,3.855
		c-1.727-0.904-1.762-3.1-0.025-5.439C300.741,232.449,301.501,232.948,302.409,233.542z"/>
	<path fill-rule="evenodd" clip-rule="evenodd" fill="#FFFFFF" d="M303.204,238.679c0.709-1.145,1.26-2.031,1.941-3.131
		c1.393,0.92,2.631,1.736,4.186,2.763C307.114,239.298,305.315,238.989,303.204,238.679z"/>
	<path fill-rule="evenodd" clip-rule="evenodd" fill="#FFFFFF" d="M303.806,231.267c-0.486-0.523-0.867-0.934-1.277-1.373
		c0.482-0.791,0.906-1.484,1.414-2.313c0.664-0.044,1.412-0.095,2.328-0.157C305.755,228.989,304.765,229.984,303.806,231.267z"/>
</g>
<g>
	<path fill-rule="evenodd" clip-rule="evenodd" d="M151.702,66.265c-1.208-1.685-1.279-4.155-0.201-5.931
		c-0.255-0.597-0.397-1.244-0.431-1.899c-0.663,0.753-1.221,1.628-1.625,2.677c-0.275,0.715-0.699,1.019-1.434,1.115
		c-4.372,0.579-8.714,0.606-12.958-0.767c-5.334-1.725-10.703-3.363-15.957-5.31c-7.605-2.817-14.365-7.021-19.921-13.026
		c-1.879-2.031-3.619-4.204-4.597-6.779c-1.636-4.306-2.869-8.73-2.873-13.419c-0.002-2.328-0.288-4.654-0.362-6.982
		c-0.094-2.926-0.18-5.855-0.113-8.78c0.028-1.233,0.354-2.491,0.729-3.68c0.606-1.923-0.777-3.72-2.763-3.458
		c-0.819,0.107-1.308,0.472-1.327,1.373c-0.087,3.999-0.3,7.999-0.26,11.996c0.026,2.56,0.509,5.111,0.617,7.674
		c0.131,3.115,0.48,6.172,1.157,9.227c1.349,6.082,4.247,11.223,8.68,15.574c3.129,3.072,6.603,5.661,10.297,8.003
		c3.546,2.247,7.23,4.183,11.208,5.536c4.353,1.48,8.701,2.978,13.071,4.404c4.113,1.342,8.313,2.178,12.677,1.838
		c0.237-0.019,0.492-0.038,0.713,0.027c1.237,0.364,2.586,0.554,3.666,1.193c0.395,0.233,0.75,0.535,1.093,0.854
		C151.007,67.188,151.31,66.691,151.702,66.265z"/>
	<path fill-rule="evenodd" clip-rule="evenodd" d="M165.365,66.265c1.209-1.685,1.279-4.155,0.201-5.931
		c0.255-0.597,0.397-1.244,0.431-1.899c0.663,0.753,1.222,1.628,1.624,2.677c0.275,0.715,0.699,1.019,1.434,1.115
		c4.372,0.579,8.715,0.606,12.958-0.767c5.334-1.725,10.703-3.363,15.956-5.31c7.605-2.817,14.365-7.021,19.922-13.026
		c1.879-2.031,3.619-4.204,4.597-6.779c1.636-4.306,2.868-8.73,2.872-13.419c0.002-2.328,0.288-4.654,0.363-6.982
		c0.094-2.926,0.18-5.855,0.112-8.78c-0.028-1.233-0.354-2.491-0.729-3.68c-0.605-1.923,0.777-3.72,2.764-3.458
		c0.819,0.107,1.308,0.472,1.326,1.373c0.088,3.999,0.301,7.999,0.26,11.996c-0.025,2.56-0.508,5.111-0.616,7.674
		c-0.132,3.115-0.479,6.172-1.157,9.227c-1.349,6.082-4.247,11.223-8.68,15.574c-3.13,3.072-6.604,5.661-10.297,8.003
		c-3.547,2.247-7.23,4.183-11.209,5.536c-4.354,1.48-8.701,2.978-13.071,4.404c-4.112,1.342-8.313,2.178-12.677,1.838
		c-0.236-0.019-0.492-0.038-0.713,0.027c-1.238,0.364-2.586,0.554-3.666,1.193c-0.395,0.233-0.75,0.535-1.094,0.854
		C166.061,67.188,165.758,66.691,165.365,66.265z"/>
	<g>
		<path fill-rule="evenodd" clip-rule="evenodd" d="M159.457,53.463c3.215-0.158,5.075,1.736,6.563,4.078
			c1.363,2.145,2.134,4.543,2.298,7.09c0.049,0.746-0.043,1.561-0.305,2.255c-0.352,0.935-0.963,1.737-0.828,2.853
			c0.084,0.693-0.615,0.894-1.146,0.787c-0.963-0.191-1.709,0.238-2.553,0.537c-0.877,0.313-1.869,0.503-2.791,0.439
			c-2.133-0.146-4.371-0.146-6.342-0.842c-1.451-0.512-2.678-1.912-3.765-3.131c-1.113-1.248-1.249-2.873-1.118-4.563
			C149.934,56.961,155.344,53.313,159.457,53.463z M163.877,58.123c-1.509,1.435-2.887,2.646-3.589,4.592
			c1.462,1,2.845,1.945,4.414,3.018C165.641,62.934,165.184,60.631,163.877,58.123z M155.85,62.838
			c-0.907-0.594-1.668-1.093-2.417-1.584c-1.737,2.34-1.701,4.535,0.026,5.439C154.2,65.498,154.945,64.298,155.85,62.838z
			 M156.646,67.975c2.11,0.311,3.909,0.619,6.126-0.368c-1.555-1.026-2.793-1.843-4.186-2.763
			C157.904,65.943,157.355,66.83,156.646,67.975z M157.248,60.563c0.959-1.282,1.949-2.277,2.463-3.844
			c-0.914,0.063-1.664,0.113-2.328,0.157c-0.507,0.829-0.931,1.522-1.414,2.313C156.379,59.629,156.76,60.039,157.248,60.563z"/>
		<path fill-rule="evenodd" clip-rule="evenodd" fill="#FFFFFF" d="M163.877,58.123c1.307,2.508,1.764,4.811,0.825,7.609
			c-1.569-1.072-2.952-2.018-4.414-3.018C160.99,60.77,162.368,59.558,163.877,58.123z"/>
		<path fill-rule="evenodd" clip-rule="evenodd" fill="#FFFFFF" d="M155.85,62.838c-0.905,1.46-1.65,2.66-2.392,3.855
			c-1.727-0.904-1.763-3.1-0.026-5.439C154.182,61.745,154.943,62.244,155.85,62.838z"/>
		<path fill-rule="evenodd" clip-rule="evenodd" fill="#FFFFFF" d="M156.646,67.975c0.709-1.145,1.259-2.031,1.94-3.131
			c1.393,0.92,2.631,1.736,4.186,2.763C160.555,68.594,158.756,68.285,156.646,67.975z"/>
		<path fill-rule="evenodd" clip-rule="evenodd" fill="#FFFFFF" d="M157.248,60.563c-0.488-0.523-0.869-0.934-1.278-1.373
			c0.483-0.791,0.907-1.484,1.414-2.313c0.664-0.044,1.414-0.095,2.328-0.157C159.196,58.285,158.207,59.28,157.248,60.563z"/>
	</g>
</g>
<g>
	<path fill-rule="evenodd" clip-rule="evenodd" d="M9.839,241.916c-2.371-0.04-5.13-0.693-7.621-2.215
		c-1.233-0.753-1.888-2.063-2.042-3.436c-0.276-2.483-0.378-4.972,0.854-7.33c0.783-1.499,1.885-2.673,3.375-3.292
		c1.409-0.585,2.961-0.867,4.477-1.134c1.089-0.191,2.093,0.167,2.962,0.944c1.063,0.954,2.202,1.827,3.316,2.725
		c1.198,0.967,1.825,2.22,1.702,3.749c-0.133,1.658-0.261,3.334-0.617,4.952C15.529,240.135,13.732,241.589,9.839,241.916z
		 M6.673,227.592c-2.008-0.15-3.162,0.977-3.549,3.032c-0.099,0.525-0.25,1.044-0.31,1.574c-0.03,0.275,0.05,0.584,0.15,0.852
		c0.282,0.769,0.67,1.505,0.888,2.289c0.324,1.177,0.956,2.121,2.09,2.506c1.517,0.514,3.08,0.939,4.657,1.215
		c1.427,0.249,1.729-0.007,2.287-1.381c0.59-1.459,0.765-2.987,0.712-4.563c-0.035-1.045-0.474-1.82-1.245-2.462
		c-0.916-0.764-1.873-1.483-2.725-2.312C8.812,227.548,7.908,227.323,6.673,227.592z"/>
	<path fill-rule="evenodd" clip-rule="evenodd" fill="#FFFFFF" d="M6.673,227.592c1.235-0.269,2.139-0.044,2.955,0.75
		c0.852,0.828,1.81,1.548,2.725,2.312c0.771,0.642,1.209,1.417,1.245,2.462c0.053,1.576-0.122,3.104-0.712,4.563
		c-0.557,1.374-0.86,1.63-2.287,1.381c-1.577-0.275-3.14-0.701-4.657-1.215c-1.134-0.385-1.766-1.329-2.09-2.506
		c-0.218-0.784-0.605-1.521-0.888-2.289c-0.1-0.268-0.18-0.576-0.15-0.852c0.059-0.53,0.21-1.049,0.31-1.574
		C3.511,228.568,4.665,227.441,6.673,227.592z"/>
</g>
<g>
	<path fill-rule="evenodd" clip-rule="evenodd" d="M149.71,313.164c0.211-2.361,1.061-5.066,2.758-7.441
		c0.84-1.176,2.192-1.734,3.573-1.789c2.497-0.097,4.986-0.02,7.25,1.379c1.439,0.889,2.529,2.072,3.04,3.604
		c0.481,1.447,0.652,3.016,0.809,4.547c0.112,1.1-0.315,2.076-1.155,2.887c-1.027,0.992-1.98,2.064-2.956,3.111
		c-1.05,1.125-2.345,1.66-3.861,1.428c-1.644-0.252-3.307-0.5-4.896-0.972C151.077,318.968,149.757,317.071,149.71,313.164z
		 M164.225,311.037c0.295-1.992-0.746-3.224-2.769-3.758c-0.517-0.137-1.023-0.325-1.548-0.422c-0.273-0.05-0.586,0.008-0.86,0.088
		c-0.786,0.227-1.549,0.561-2.347,0.721c-1.197,0.238-2.185,0.801-2.649,1.904c-0.622,1.477-1.159,3.005-1.547,4.558
		c-0.352,1.405-0.118,1.726,1.212,2.38c1.413,0.693,2.925,0.979,4.5,1.039c1.046,0.04,1.85-0.342,2.546-1.064
		c0.827-0.858,1.614-1.762,2.501-2.552C164.115,313.174,164.404,312.289,164.225,311.037z"/>
	<path fill-rule="evenodd" clip-rule="evenodd" fill="#FFFFFF" d="M164.225,311.037c0.18,1.252-0.109,2.137-0.961,2.894
		c-0.887,0.79-1.674,1.693-2.501,2.552c-0.696,0.723-1.5,1.104-2.546,1.064c-1.575-0.061-3.087-0.346-4.5-1.039
		c-1.331-0.654-1.564-0.975-1.212-2.38c0.388-1.553,0.925-3.081,1.547-4.558c0.465-1.104,1.453-1.666,2.649-1.904
		c0.798-0.16,1.561-0.494,2.347-0.721c0.274-0.08,0.587-0.138,0.86-0.088c0.524,0.097,1.031,0.285,1.548,0.422
		C163.479,307.813,164.52,309.045,164.225,311.037z"/>
</g>
<g>
	<path fill-rule="evenodd" clip-rule="evenodd" d="M239.611,148.459c-0.362-1.773-0.644-3.09-0.898-4.41
		c-0.417-2.17-0.801-4.346-1.233-6.513c-0.183-0.924,0.236-1.618,0.717-2.316c0.395-0.571,0.901-0.688,1.564-0.522
		c0.649,0.165,0.862,0.626,0.916,1.177c0.069,0.706-0.022,1.435,0.081,2.133c0.544,3.673,1.365,7.277,2.842,10.702
		c0.439,1.02,0.637,2.036,0.372,3.133c-0.399,1.646-2.14,2.386-3.474,1.342c-3.396-2.659-7.532-3.834-11.295-5.756
		c-0.396-0.201-0.933-0.143-1.404-0.176c-0.947-0.068-1.554-0.539-1.774-1.413c-0.221-0.871,0.322-2.374,1.094-2.875
		c0.894-0.581,1.669-0.229,2.465,0.318C232.592,145.351,236.017,146.582,239.611,148.459z"/>
</g>
</svg>
