<?xml version="1.0" encoding="utf-8"?>
<!-- Generator: Adobe Illustrator 16.0.0, SVG Export Plug-In . SVG Version: 6.00 Build 0)  -->
<!DOCTYPE svg PUBLIC "-//W3C//DTD SVG 1.1//EN" "http://www.w3.org/Graphics/SVG/1.1/DTD/svg11.dtd">
<svg version="1.1" id="Layer_1" xmlns="http://www.w3.org/2000/svg" xmlns:xlink="http://www.w3.org/1999/xlink" x="0px" y="0px"
	 width="79.771px" height="147.007px" viewBox="-53.27 -48.37 79.771 147.007"
	 enable-background="new -53.27 -48.37 79.771 147.007" xml:space="preserve">
<g>
	<path d="M13.809,26.686c-0.136,2.679-0.242,5.292-0.411,7.902c-0.079,1.218,0.338,1.869,1.506,2.451
		c2.674,1.33,4.629,3.305,4.732,6.594c0.066,2.132-0.797,3.791-2.849,4.158c-2.403,0.431-4.884,0.445-7.155-0.78
		c-2.245-1.212-3.294-3.252-3.596-5.663c-0.261-2.085,0.898-3.701,2.904-4.381c0.502-0.17,1.019-0.297,1.601-0.464
		c0-2.877,0.022-5.727-0.013-8.573c-0.011-0.859-0.533-1.32-1.425-1.178c-1.471,0.236-2.96,0.415-4.394,0.797
		c-1.035,0.276-1.922,0.24-2.631-0.541c-0.662-0.729-1.161-1.703-0.656-2.626c1.625-2.97,1.113-6.178,1.157-9.309
		c0.033-2.445-0.197-4.895-0.292-7.343C2.26,6.985,2.02,6.403,1.519,5.806C0.928,5.101,0.572,4.199,0,3.179
		C0.669,2.937,1.143,2.61,1.604,2.625C3.382,2.684,5.16,2.99,6.933,2.946c2.321-0.055,4.638-0.359,6.958-0.542
		c2.104-0.166,4.058-0.913,6.039-1.549c0.334-0.106,0.65-0.285,0.952-0.468c1.406-0.856,3.019-0.243,3.324,1.409
		c0.224,1.209,0.692,2.246,1.313,3.286c1.127,1.892,1.08,4.004,0.848,6.101c-0.205,1.839-0.542,3.664-0.739,5.503
		c-0.213,1.976-0.071,3.937,0.498,5.854c0.051,0.172,0.112,0.341,0.149,0.516c0.471,2.183,0.193,2.479-2.006,2.632
		c-3.271,0.23-6.533,0.549-9.799,0.838C14.245,26.543,14.025,26.631,13.809,26.686z M6.017,5.334
		C4.575,11.455,5.825,17.4,5.24,23.228c1.91,0,3.573-0.021,5.235,0.004c3.645,0.055,7.273-0.086,10.868-0.75
		c1.513-0.278,1.722-0.512,1.595-1.988c-0.295-3.421,0.145-6.786,0.733-10.141c0.331-1.877,0.229-3.65-0.883-5.317
		c-0.487-0.731-1-0.911-1.789-0.731c-3.451,0.787-6.961,0.875-10.48,0.874C9.041,5.177,7.563,5.277,6.017,5.334z M14.8,40.111
		c-0.696,0.945-1.403,1.151-2.4,0.703c-0.539-0.241-1.292-0.088-1.933,0c-0.684,0.093-1.296,0.453-1.378,1.201
		c-0.079,0.711,0.33,1.223,0.973,1.568c1.651,0.889,3.43,1.086,5.215,0.752c1.604-0.3,2.006-1.756,0.924-2.985
		C15.852,40.954,15.407,40.643,14.8,40.111z"/>
	<path fill="#FFFFFF" d="M6.017,5.334c1.546-0.058,3.024-0.157,4.503-0.157C14.039,5.179,17.549,5.09,21,4.304
		c0.789-0.18,1.302,0,1.789,0.731c1.111,1.667,1.214,3.44,0.883,5.317c-0.59,3.354-1.027,6.72-0.732,10.141
		c0.127,1.477-0.082,1.709-1.596,1.988c-3.595,0.663-7.224,0.805-10.868,0.75c-1.662-0.023-3.325-0.004-5.235-0.004
		C5.825,17.4,4.575,11.455,6.017,5.334z"/>
	<path fill="#FFFFFF" d="M14.8,40.111c0.607,0.531,1.052,0.844,1.4,1.239c1.082,1.229,0.68,2.687-0.925,2.985
		c-1.784,0.334-3.563,0.137-5.214-0.752c-0.643-0.347-1.052-0.857-0.973-1.568c0.082-0.748,0.694-1.108,1.378-1.201
		c0.641-0.088,1.394-0.241,1.933,0C13.396,41.263,14.104,41.057,14.8,40.111z"/>
</g>
<g>
	<path d="M-17.183,73.282c-0.479,0.031-0.977-0.016-1.428,0.106c-4.323,1.17-8.641,2.141-13.186,2.213
		c-3.762,0.062-7.512,0.776-11.267,1.212c-0.257,0.03-0.629,0.063-0.735,0.23c-1.565,2.458-4.191,1.895-6.466,2.248
		c-0.799,0.124-1.685,0.68-2.507-0.182c-0.727-0.763-0.666-1.976,0.222-2.564c2.669-1.771,5.758-1.669,8.753-1.998
		c3.563-0.392,7.133-0.743,10.689-1.196c2.773-0.354,5.585-0.63,8.283-1.32c2.456-0.629,4.781-1.771,7.425-2.787
		c-1.287-0.974-2.138-2.229-3.823-2.002c-2.354,0.315-4.694,0.58-6.949-0.528c-0.245-0.12-0.644,0.082-0.973,0.122
		c-0.992,0.12-1.985,0.223-2.976,0.356c-0.363,0.049-0.764,0.084-1.071,0.259c-2.305,1.3-4.483,2.891-6.909,3.882
		c-2.212,0.904-4.673,1.254-7.058,1.662c-0.593,0.102-1.772-0.419-1.857-0.826c-0.124-0.601,0.331-1.508,0.82-2.015
		c1.352-1.401,1.819-1.375,3.58-0.442c0.271,0.143,0.717,0.155,1.001,0.038c2.158-0.889,4.297-1.828,6.442-2.746
		c1.09-0.466,2.191-0.907,3.274-1.389c0.387-0.172,0.896-0.355,1.046-0.675c0.101-0.213-0.29-0.715-0.539-1.024
		c-1.962-2.448-4.084-4.782-5.884-7.342c-2.528-3.6-2.071-8.121,0.981-11.226c0.98-0.997,2.242-1.71,3.273-2.664
		c0.457-0.423,0.887-1.102,0.938-1.697c0.214-2.506,0.536-4.985,1.871-7.161c1.335-2.177,3.416-3.556,5.845-4.063
		c1.84-0.384,3.271,0.985,4.216,2.363c5.151,7.52,8.713,15.612,7.906,25c-0.175,2.036-0.902,4.042-1.533,6.011
		c-0.211,0.66-0.909,1.163-1.447,1.813c1.02,0.956,1.964,2.036,3.111,2.822c0.466,0.318,1.433,0.164,2.06-0.071
		c0.888-0.335,1.642-1.008,2.509-1.418c0.703-0.332,1.232-0.027,1.631,0.685c1.223,2.186,1.222,2.14-0.918,3.693
		c-0.904,0.659-2.19,1.195-1.465,2.815c0.113,0.252-0.278,0.927-0.609,1.149c-2.343,1.58-4.784,3.015-7.081,4.657
		c-1.315,0.94-2.466,2.137-3.594,3.31c-0.544,0.566,0.007,1.338,1.001,1.484c1.494,0.218,3.011,0.332,4.48,0.654
		c2.021,0.442,4.13,0.773,5.976,1.636c2.397,1.12,4.609,3.923,1.831,6.868c-0.756,0.801-1.64,1.481-2.474,2.208
		c-0.795,0.692-1.544,1.468-2.424,2.032c-0.819,0.526-1.788,1.168-2.686,1.16c-3.687-0.035-7.371-0.456-11.054-0.431
		c-3.452,0.022-6.65-1.083-9.956-1.71c-2.216-0.421-4.441-0.83-6.618-1.41c-0.836-0.223-1.77-0.75-2.251-1.427
		c-0.391-0.55-0.46-1.675-0.156-2.29c0.438-0.891,1.303-1.556,2.553-1.188c0.525,0.154,1.137,0.025,1.709,0.025
		c0.026-0.135,0.056-0.271,0.083-0.406c-0.212-0.158-0.402-0.385-0.642-0.462c-1.477-0.476-2.964-0.921-4.449-1.37
		c-1.01-0.306-1.637-1.27-1.368-2.12c0.297-0.943,1.299-1.499,2.271-1.251c1.897,0.484,3.698,0.144,5.447-0.637
		c0.608-0.272,1.194-0.647,1.831-0.79c0.388-0.087,1.053,0.048,1.23,0.321c0.2,0.305,0.1,0.921-0.063,1.322
		c-0.241,0.591-1.066,1.391-0.918,1.609c0.526,0.778,1.27,1.516,2.096,1.968c4.357,2.393,9.078,3.487,14.022,3.331
		c1.83-0.058,3.646-0.672,5.458-1.08c0.29-0.064,0.523-0.38,0.753-0.712c-2.999,0.555-5.416-1.417-8.182-1.674
		c-1.182-0.11-2.389,0.062-3.585,0.086c-1.084,0.022-2.576,0.386-2.867-0.898c-0.166-0.736,0.883-1.774,1.448-2.636
		c0.172-0.262,0.556-0.385,1.084-0.729c-0.465-0.227-0.729-0.377-1.009-0.486c-0.898-0.349-1.823-0.635-2.698-1.032
		c-1.08-0.49-0.966-1.381-0.59-2.272c0.439-1.045,1.206-0.523,1.801-0.258c2.49,1.109,4.729,0.187,6.899-0.871
		C-20.963,77.875-19.05,75.711-17.183,73.282z M-32.54,50.309c-1.192,0.069-1.531-0.364-1.444-1.415
		c0.104-1.278,0.023-2.574,0.023-4.241c-0.84,0.487-1.374,0.628-1.624,0.975c-0.791,1.094-1.514,2.243-2.193,3.41
		c-1.358,2.33-0.341,4.333,0.999,6.232c0.188,0.269,0.914,0.519,1.07,0.39c1.253-1.035,2.758-0.813,4.184-1.04
		c0.373-0.06,0.845-0.601,0.954-1.004c0.367-1.36,0.547-2.771,0.883-4.142c0.498-2.024,1.069-4.032,1.607-6.049
		c0.15-0.564,0.2-1.074-0.595-1.18c-1.445-0.193-3.386,1.302-3.501,2.749C-32.316,46.754-32.418,48.516-32.54,50.309z
		 M-21.219,41.122c-0.221,0.037-0.44,0.073-0.66,0.11c0,0.52-0.055,1.047,0.011,1.559c0.162,1.259,0.564,2.516,0.535,3.766
		c-0.062,2.654-0.388,5.261-1.51,7.761c-0.984,2.192-1.58,4.558-2.451,6.806c-0.418,1.077,0.037,1.18,0.88,1.078
		c3.032-0.367,4.557-1.858,5.391-5.531c0.822-3.629,0.441-7.275-0.372-10.845C-19.767,44.203-20.598,42.686-21.219,41.122z
		 M-28.1,60.859c0.137-0.119,0.212-0.169,0.269-0.235c1.366-1.618,1.767-3.613,2.391-5.573c0.965-3.031,1.585-6.082,1.703-9.241
		c0.012-0.306-0.378-0.625-0.58-0.938c-0.243,0.202-0.572,0.355-0.716,0.613c-0.492,0.891-1.035,1.778-1.354,2.736
		c-1.033,3.104-2.009,6.226-2.938,9.361C-29.932,59.634-29.786,59.906-28.1,60.859z M-31.029,39.874
		c1.62-0.327,2.922-0.585,4.222-0.853c0.821-0.168,1.685-0.235,2.452-0.542c1.967-0.784,2.206-1.75,0.952-3.414
		c-0.267-0.354-0.593-0.661-0.856-1.016c-0.719-0.965-1.592-1.02-2.578-0.47C-29.272,34.94-30.064,37.345-31.029,39.874z
		 M-10.919,91.487c-1.729,0.695-3.249,1.307-4.964,1.997C-13.805,94.595-11.443,93.633-10.919,91.487z M-21.506,85.611
		c-0.557-0.428-0.855-0.845-1.151-0.842c-0.541,0.005-1.08,0.257-1.62,0.405c0.116,0.258,0.24,0.74,0.351,0.737
		C-23.25,85.889-22.576,85.759-21.506,85.611z M-35.566,93.159c0.055-0.187,0.108-0.371,0.164-0.557
		c-0.972-0.35-1.941-0.698-2.913-1.048c-0.052,0.148-0.104,0.297-0.154,0.446C-37.502,92.388-36.535,92.775-35.566,93.159z"/>
	<path d="M-16.707,1.006c0.262-0.156,0.401-0.254,0.554-0.329c0.612-0.307,1.239-0.842,1.841-0.814
		c0.326,0.016,0.481,1.152,0.933,1.508c1.334,1.047,0.374,1.963,0.089,3.037c-0.863,3.26-1.58,6.559-2.321,9.85
		c-0.448,1.988-1.319,3.527-3.535,3.957c-1.252,0.242-1.455,0.645-1.724,2.72c2.922,0.081,3.969-3.132,6.579-3.69
		c0.174,0.285,0.415,0.556,0.513,0.871c0.211,0.685,0.313,1.403,0.522,2.09c0.303,0.99-0.205,1.566-0.896,2.15
		c-0.314,0.266-0.646,0.75-0.633,1.123c0.049,1.282-0.54,2.157-1.885,2.365c-1.098,0.169-2.209,0.269-3.317,0.331
		c-1.474,0.084-2.848,0.081-3.569,1.845c-0.452,1.104-1.962,1.143-3.421,0.187c-0.758-0.497-1.351-0.592-2.189-0.239
		c-1.143,0.48-2.344,0.941-3.561,1.093c-1.036,0.131-2.173-0.041-3.186-0.348c-1.257-0.38-2.405-1.099-3.644-1.562
		c-3.396-1.273-5.568-3.57-6.088-7.223c-0.603-4.225-1.216-8.451-1.651-12.693c-0.175-1.709-0.078-3.5,0.236-5.188
		c0.376-2.017,2.325-2.685,3.878-3.546c1.379-0.766,2.345,0.336,3.256,1.168c1.05,0.957,1.881,1.996,3.548,2.238
		c1.026,0.148,2.154,1.313,2.76,2.31c1.443,2.375,2.731,4.866,3.85,7.414c1.74,3.963,2.208,4.396,6.402,3.348
		c0.754-0.188,1.536-1.69,1.671-2.674c0.544-4,0.797-8.039,1.246-12.054c0.256-2.276,1.121-4.35,2.437-6.247
		c0.679-0.979,1.612-1.414,2.631-1.06c0.735,0.256,1.553,0.91,1.86,1.6c0.42,0.938-0.152,1.796-1.13,2.25
		C-16.074-2.548-17.013-0.728-16.707,1.006z M-35.351,14.593c-1.066-2.287-1.962-4.236-2.885-6.173
		c-0.325-0.681-0.903-0.935-1.246-0.125c-0.707,1.672-1.308,3.397-1.81,5.143c-0.079,0.275,0.559,1.072,0.908,1.103
		C-38.893,14.665-37.386,14.593-35.351,14.593z M-44.312,10.102c0.117,0.042,0.233,0.085,0.352,0.127
		c0.308-0.475,0.673-0.922,0.907-1.429c0.607-1.314,1.186-2.645,1.712-3.992c0.183-0.469,0.405-1.135,0.209-1.49
		c-0.311-0.562-0.924-0.988-1.486-1.356c-0.147-0.097-0.756,0.161-0.848,0.383c-0.479,1.165-1.103,2.349-1.217,3.565
		C-44.813,7.282-44.458,8.702-44.312,10.102z M-36.708,17.129c-1.725,0.282-3.237,0.438-4.692,0.817
		c-0.498,0.131-1.136,0.84-0.409,1.453c0.764,0.647,1.654,1.16,2.544,1.633c0.246,0.129,0.9,0.01,0.993-0.178
		C-37.743,19.775-37.326,18.64-36.708,17.129z M-31.813,23.17c0.752-0.05,1.33-0.087,2.294-0.148
		c-0.644-0.718-1.084-1.209-1.681-1.872C-31.434,21.919-31.582,22.406-31.813,23.17z"/>
	<path d="M-29.095-21.499c0.595-0.805,1.067-1.206,1.236-1.709c1.041-3.106,2.014-6.237,3.008-9.36
		c0.014-0.043,0.013-0.091,0.031-0.13c0.974-2.098,1.428-4.282,1.49-6.611c0.044-1.597,1.328-2.438,2.901-2.477
		c0.604-0.016,1.209-0.35,1.798-0.577c0.528-0.203,1.037-0.642,1.553-0.638c0.481,0.002,1.177,0.339,1.376,0.73
		c0.186,0.361,0.013,1.215-0.308,1.469c-1.091,0.863-1.254,1.776-0.997,3.135c0.582,3.078-0.249,5.894-1.66,8.719
		c-1.43,2.863-3.438,5.255-5.286,7.786c-0.527,0.724-0.485,1.245-0.063,1.909c0.477,0.75,1.021,1.482,1.348,2.298
		c0.521,1.295,1.44,1.255,2.515,0.991c0.941-0.229,1.891-0.432,2.831-0.668c1.508-0.379,2.341,0.506,3.005,1.631
		c0.589,0.996,0.12,2.604-1.116,3.314c-1.362,0.783-2.872,1.309-4.262,2.049c-0.729,0.389-1.414,0.928-1.984,1.525
		c-1.616,1.697-2.594,1.838-4.608,0.835c-0.655-0.327-1.587-0.385-2.318-0.228c-3.36,0.725-6.74,0.629-10.106,0.287
		c-1.564-0.16-3.133-0.623-4.614-1.178c-1.554-0.58-1.813-1.552-0.982-3.054c0.372-0.675,0.054-0.931-0.411-1.29
		c-1.157-0.898-2.285-1.835-3.412-2.771c-0.806-0.668-1.031-1.451-0.307-2.314c0.713-0.85,1.383-0.518,2.209-0.025
		c2.155,1.287,4.271,2.893,6.629,3.52c1.932,0.515,4.204-0.092,6.294-0.413c0.769-0.118,1.134-0.94,0.702-1.827
		c-1.32-2.705-2.574-5.445-3.949-8.123c-1.78-3.464-3.672-6.874-5.473-10.33c-0.594-1.136-1.041-2.347-1.582-3.511
		c-0.593-1.272-0.455-2.394,0.595-3.374c0.625-0.583,0.744-1.258,0.396-2.059c-0.3-0.689-0.529-1.414-0.764-2.131
		c-0.39-1.199,0.312-1.961,1.271-2.252c0.427-0.129,1.369,0.385,1.599,0.846c1.101,2.213,2.048,4.502,3.028,6.772
		c0.904,2.099,1.76,4.218,2.683,6.308c0.941,2.133,1.962,4.23,2.907,6.362C-30.992-26.02-30.14-23.955-29.095-21.499z"/>
	<path fill="#FFFFFF" d="M-32.54,50.309c0.121-1.793,0.224-3.556,0.363-5.313c0.115-1.447,2.057-2.942,3.501-2.749
		c0.795,0.105,0.745,0.615,0.595,1.18c-0.538,2.017-1.109,4.023-1.607,6.049c-0.336,1.371-0.516,2.781-0.883,4.142
		c-0.109,0.404-0.581,0.944-0.954,1.004c-1.426,0.226-2.931,0.005-4.184,1.04c-0.156,0.129-0.882-0.121-1.07-0.39
		c-1.34-1.899-2.357-3.902-0.999-6.232c0.681-1.167,1.402-2.316,2.193-3.41c0.25-0.346,0.784-0.487,1.624-0.975
		c0,1.667,0.08,2.963-0.023,4.241C-34.071,49.945-33.732,50.378-32.54,50.309z"/>
	<path fill="#FFFFFF" d="M-21.219,41.122c0.621,1.563,1.452,3.081,1.822,4.703c0.813,3.569,1.194,7.215,0.372,10.845
		c-0.834,3.673-2.357,5.165-5.391,5.531c-0.843,0.102-1.298-0.001-0.88-1.078c0.871-2.249,1.467-4.613,2.451-6.806
		c1.122-2.5,1.448-5.106,1.51-7.761c0.029-1.25-0.373-2.506-0.535-3.766c-0.064-0.512-0.011-1.039-0.011-1.559
		C-21.659,41.197-21.438,41.159-21.219,41.122z"/>
	<path fill="#FFFFFF" d="M-28.1,60.859c-1.688-0.954-1.833-1.225-1.227-3.276c0.93-3.136,1.904-6.258,2.938-9.361
		c0.318-0.958,0.861-1.847,1.354-2.736c0.144-0.258,0.473-0.412,0.716-0.613c0.202,0.313,0.592,0.633,0.58,0.938
		c-0.118,3.159-0.738,6.209-1.703,9.241c-0.624,1.96-1.023,3.955-2.391,5.573C-27.888,60.689-27.963,60.74-28.1,60.859z"/>
	<path fill="#FFFFFF" d="M-31.029,39.874c0.965-2.528,1.756-4.935,4.191-6.294c0.986-0.55,1.859-0.495,2.578,0.47
		c0.265,0.354,0.591,0.662,0.856,1.016c1.254,1.664,1.015,2.63-0.952,3.414c-0.769,0.307-1.631,0.374-2.452,0.542
		C-28.106,39.288-29.409,39.547-31.029,39.874z"/>
	<path fill="#FFFFFF" d="M-10.919,91.487c-0.524,2.146-2.886,3.108-4.964,1.997C-14.168,92.793-12.648,92.182-10.919,91.487z"/>
	<path fill="#FFFFFF" d="M-21.506,85.611c-1.07,0.148-1.744,0.279-2.422,0.301c-0.109,0.003-0.233-0.479-0.351-0.737
		c0.54-0.148,1.079-0.4,1.62-0.405C-22.361,84.766-22.062,85.183-21.506,85.611z"/>
	<path fill="#FFFFFF" d="M-35.566,93.159c-0.969-0.386-1.937-0.771-2.903-1.157c0.052-0.149,0.104-0.298,0.154-0.446
		c0.972,0.35,1.941,0.698,2.913,1.048C-35.458,92.789-35.512,92.974-35.566,93.159z"/>
	<path fill="#FFFFFF" d="M-35.351,14.593c-2.034,0-3.541,0.072-5.031-0.055c-0.351-0.028-0.987-0.825-0.908-1.102
		c0.502-1.744,1.103-3.471,1.81-5.143c0.343-0.811,0.921-0.557,1.246,0.125C-37.313,10.357-36.418,12.305-35.351,14.593z"/>
	<path fill="#FFFFFF" d="M-44.312,10.102c-0.146-1.399-0.501-2.819-0.371-4.192c0.114-1.219,0.735-2.4,1.217-3.565
		c0.092-0.222,0.699-0.479,0.848-0.383c0.563,0.368,1.177,0.796,1.486,1.356c0.196,0.355-0.026,1.021-0.209,1.49
		c-0.526,1.348-1.104,2.678-1.712,3.992c-0.234,0.507-0.601,0.954-0.907,1.429C-44.079,10.187-44.195,10.144-44.312,10.102z"/>
	<path fill="#FFFFFF" d="M-36.708,17.129c-0.617,1.512-1.034,2.646-1.564,3.728c-0.093,0.188-0.747,0.307-0.993,0.176
		c-0.89-0.472-1.78-0.983-2.544-1.631c-0.727-0.613-0.089-1.324,0.409-1.453C-39.946,17.568-38.433,17.411-36.708,17.129z"/>
	<path fill="#FFFFFF" d="M-31.813,23.17c0.231-0.765,0.38-1.251,0.613-2.021c0.597,0.663,1.037,1.154,1.681,1.872
		C-30.483,23.083-31.061,23.12-31.813,23.17z"/>
</g>
</svg>
