<?xml version="1.0" encoding="utf-8"?>
<!-- Generator: Adobe Illustrator 16.0.0, SVG Export Plug-In . SVG Version: 6.00 Build 0)  -->
<!DOCTYPE svg PUBLIC "-//W3C//DTD SVG 1.1//EN" "http://www.w3.org/Graphics/SVG/1.1/DTD/svg11.dtd">
<svg version="1.1" id="Layer_1" xmlns="http://www.w3.org/2000/svg" xmlns:xlink="http://www.w3.org/1999/xlink" x="0px" y="0px"
	 width="26.5px" height="48.057px" viewBox="0 0 26.5 48.057" enable-background="new 0 0 26.5 48.057" xml:space="preserve">
<g>
	<path fill-rule="evenodd" clip-rule="evenodd" d="M13.809,26.686c-0.136,2.678-0.242,5.292-0.411,7.902
		c-0.079,1.218,0.338,1.869,1.507,2.451c2.673,1.33,4.628,3.305,4.731,6.594c0.067,2.132-0.796,3.791-2.848,4.158
		c-2.403,0.431-4.884,0.446-7.155-0.78c-2.245-1.212-3.294-3.252-3.596-5.663c-0.261-2.085,0.898-3.701,2.904-4.381
		c0.502-0.17,1.019-0.297,1.601-0.464c0-2.877,0.022-5.726-0.013-8.573c-0.011-0.859-0.533-1.32-1.425-1.178
		c-1.471,0.236-2.96,0.415-4.394,0.797c-1.035,0.276-1.922,0.24-2.631-0.541c-0.662-0.729-1.161-1.703-0.656-2.626
		c1.625-2.97,1.113-6.178,1.157-9.309c0.033-2.445-0.197-4.894-0.292-7.342C2.26,6.985,2.02,6.403,1.519,5.806
		C0.928,5.101,0.572,4.199,0,3.179C0.669,2.937,1.143,2.61,1.604,2.625C3.382,2.684,5.16,2.989,6.933,2.946
		c2.321-0.055,4.638-0.36,6.957-0.542c2.104-0.166,4.058-0.914,6.04-1.549c0.333-0.107,0.65-0.285,0.952-0.468
		c1.406-0.857,3.018-0.243,3.324,1.409c0.224,1.209,0.692,2.246,1.313,3.286c1.127,1.892,1.08,4.004,0.848,6.101
		c-0.205,1.839-0.542,3.664-0.739,5.503c-0.213,1.975-0.071,3.936,0.498,5.853c0.051,0.172,0.113,0.341,0.15,0.516
		c0.47,2.183,0.193,2.478-2.007,2.632c-3.27,0.23-6.533,0.549-9.799,0.838C14.245,26.543,14.025,26.631,13.809,26.686z M6.017,5.334
		C4.575,11.455,5.825,17.4,5.24,23.228c1.91,0,3.573-0.021,5.235,0.004c3.645,0.054,7.273-0.086,10.868-0.75
		c1.513-0.279,1.722-0.512,1.595-1.989c-0.295-3.421,0.144-6.786,0.733-10.14c0.331-1.877,0.229-3.651-0.883-5.318
		c-0.487-0.731-1-0.911-1.789-0.731c-3.451,0.787-6.961,0.875-10.48,0.874C9.041,5.177,7.563,5.277,6.017,5.334z M14.8,40.111
		c-0.697,0.945-1.403,1.151-2.4,0.703c-0.539-0.242-1.292-0.088-1.933,0c-0.684,0.092-1.296,0.453-1.378,1.201
		c-0.079,0.711,0.33,1.223,0.973,1.568c1.651,0.889,3.43,1.086,5.215,0.752c1.604-0.3,2.006-1.756,0.924-2.985
		C15.852,40.954,15.407,40.643,14.8,40.111z"/>
	<path fill-rule="evenodd" clip-rule="evenodd" fill="#FFFFFF" d="M6.017,5.334c1.546-0.057,3.024-0.157,4.503-0.157
		C14.039,5.179,17.549,5.09,21,4.304c0.789-0.18,1.302,0,1.789,0.731c1.111,1.667,1.214,3.441,0.883,5.318
		c-0.59,3.354-1.028,6.719-0.733,10.14c0.127,1.477-0.082,1.709-1.595,1.989c-3.595,0.663-7.224,0.804-10.868,0.75
		c-1.662-0.024-3.325-0.004-5.235-0.004C5.825,17.4,4.575,11.455,6.017,5.334z"/>
	<path fill-rule="evenodd" clip-rule="evenodd" fill="#FFFFFF" d="M14.8,40.111c0.607,0.531,1.052,0.843,1.4,1.239
		c1.082,1.229,0.68,2.686-0.924,2.985c-1.785,0.334-3.563,0.137-5.215-0.752c-0.643-0.346-1.052-0.857-0.973-1.568
		c0.082-0.748,0.694-1.109,1.378-1.201c0.641-0.088,1.394-0.242,1.933,0C13.396,41.263,14.103,41.057,14.8,40.111z"/>
</g>
</svg>
