<?xml version="1.0" encoding="utf-8"?>
<!-- Generator: Adobe Illustrator 16.0.0, SVG Export Plug-In . SVG Version: 6.00 Build 0)  -->
<!DOCTYPE svg PUBLIC "-//W3C//DTD SVG 1.1//EN" "http://www.w3.org/Graphics/SVG/1.1/DTD/svg11.dtd">
<svg version="1.1" id="Layer_1" xmlns="http://www.w3.org/2000/svg" xmlns:xlink="http://www.w3.org/1999/xlink" x="0px" y="0px"
	 width="68.471px" height="34.551px" viewBox="0 0 68.471 34.551" enable-background="new 0 0 68.471 34.551" xml:space="preserve">
<g>
	<path fill-rule="evenodd" clip-rule="evenodd" d="M33.465,15.328c0.232-0.744,0.425-1.072,0.423-1.399
		c-0.016-2.624-0.022-5.251-0.137-7.873c-0.032-0.747-0.343-1.505-0.638-2.211c-0.512-1.224-0.037-2.334,0.37-3.416
		c0.101-0.267,0.855-0.498,1.232-0.411c1.075,0.247,2.107,1.312,2.138,2.699c0.082,3.871,0.447,7.736,0.705,11.604
		c0.003,0.041,0.077,0.076,0.229,0.22c0.99-0.719,1.651-1.758,2.358-2.735c0.77-1.062,1.438-2.196,2.199-3.264
		c1.45-2.032,3.658-2.838,5.929-3.417c1.118-0.285,2.572,1.187,2.397,2.329c-0.055,0.365-0.542,0.93-0.856,0.947
		c-3.205,0.18-4.719,2.528-6.284,4.796c-2.404,3.483-4.769,6.994-7.145,10.497c-0.123,0.182-0.194,0.397-0.101,0.799
		c1.853-1.341,3.792-2.578,5.531-4.053c1.509-1.28,3.008-2.518,4.747-3.485c4.54-2.528,9.052-5.117,14.104-6.516
		c1.605-0.444,3.263-0.735,4.914-0.966c1.356-0.188,2.389,0.433,2.819,1.69c0.163,0.477,0.018,1.174-0.237,1.631
		c-0.133,0.237-0.809,0.214-1.242,0.234c-1.116,0.051-2.271-0.11-3.344,0.119c-3.286,0.703-6.386,1.958-9.331,3.577
		c-2.505,1.376-5.13,2.585-7.461,4.212c-2.78,1.939-5.328,4.218-7.924,6.41c-0.767,0.647-1.399,1.472-2.017,2.273
		c-0.765,0.992-1.359,2.055-1.65,3.328c-0.406,1.774-1.811,2.1-3.183,0.85c-0.261-0.236-0.548-0.468-0.734-0.759
		c-0.963-1.5-1.858-3.044-2.856-4.52c-0.463-0.685-1.036-1.333-1.675-1.855c-3.108-2.54-6.371-4.847-10.231-6.133
		c-0.673-0.225-1.393-0.315-2.096-0.436c-0.822-0.142-1.667-0.179-2.473-0.38c-2.585-0.644-5.097-0.328-7.565,0.514
		c-1.404,0.479-3.506-0.289-4.146-1.587c-0.674-1.367,0.156-2.964,1.66-2.743c3.563,0.521,7.142-0.023,10.724,0.593
		c4.553,0.783,8.533,2.584,12.213,5.242c1.447,1.045,2.899,2.083,4.47,3.211c0.508-0.379,0.864-0.96,0.989-1.646
		c0.476-2.615,0.446-5.241-0.063-7.841c-0.158-0.803-0.494-1.641-0.976-2.296c-1.096-1.491-2.332-2.867-2.979-4.657
		c-0.098-0.27-0.799-0.49-1.194-0.452c-1.194,0.114-1.917-0.376-2.397-1.43c-0.504-1.105-0.072-1.918,1.112-1.979
		c2.36-0.122,4.448,1.233,5.417,3.377c0.438,0.966,1.067,1.849,1.639,2.75c0.446,0.707,0.976,1.363,1.398,2.082
		C32.636,13.513,32.929,14.225,33.465,15.328z"/>
</g>
</svg>
