<?xml version="1.0" encoding="utf-8"?>
<!-- Generator: Adobe Illustrator 16.0.0, SVG Export Plug-In . SVG Version: 6.00 Build 0)  -->
<!DOCTYPE svg PUBLIC "-//W3C//DTD SVG 1.1//EN" "http://www.w3.org/Graphics/SVG/1.1/DTD/svg11.dtd">
<svg version="1.1" id="Layer_1" xmlns="http://www.w3.org/2000/svg" xmlns:xlink="http://www.w3.org/1999/xlink" x="0px" y="0px"
	 width="100.697px" height="86.865px" viewBox="-16 0 100.697 86.865" enable-background="new -16 0 100.697 86.865"
	 xml:space="preserve">
<g>
	<path d="M33.465,15.328c0.231-0.744,0.425-1.072,0.423-1.399c-0.016-2.624-0.021-5.251-0.137-7.873
		c-0.032-0.747-0.343-1.505-0.639-2.211c-0.512-1.224-0.036-2.334,0.37-3.416c0.102-0.267,0.855-0.498,1.232-0.411
		c1.075,0.247,2.106,1.312,2.138,2.699c0.082,3.871,0.447,7.736,0.705,11.604c0.003,0.041,0.077,0.076,0.229,0.22
		c0.989-0.719,1.65-1.758,2.357-2.735c0.771-1.062,1.438-2.196,2.199-3.264c1.45-2.032,3.658-2.838,5.929-3.417
		c1.118-0.285,2.572,1.187,2.397,2.329c-0.055,0.365-0.542,0.93-0.856,0.947c-3.205,0.18-4.719,2.528-6.284,4.796
		c-2.403,3.483-4.769,6.994-7.145,10.496c-0.123,0.183-0.194,0.397-0.101,0.8c1.853-1.341,3.792-2.578,5.53-4.054
		c1.51-1.279,3.009-2.518,4.747-3.484c4.54-2.528,9.052-5.117,14.104-6.516c1.604-0.444,3.263-0.735,4.914-0.966
		c1.355-0.188,2.389,0.433,2.818,1.69c0.163,0.477,0.019,1.174-0.236,1.631c-0.134,0.237-0.81,0.214-1.242,0.234
		c-1.116,0.051-2.271-0.11-3.344,0.119c-3.286,0.703-6.387,1.958-9.331,3.577c-2.505,1.375-5.13,2.584-7.461,4.211
		c-2.78,1.939-5.328,4.219-7.925,6.41c-0.767,0.647-1.398,1.473-2.017,2.273c-0.765,0.992-1.359,2.055-1.65,3.328
		c-0.405,1.773-1.811,2.1-3.183,0.85c-0.261-0.236-0.548-0.468-0.734-0.759c-0.963-1.5-1.857-3.044-2.855-4.521
		c-0.463-0.685-1.036-1.332-1.675-1.854c-3.108-2.54-6.371-4.847-10.231-6.133c-0.673-0.226-1.393-0.315-2.096-0.437
		c-0.822-0.142-1.667-0.179-2.474-0.38C9.36,19.07,6.848,19.386,4.38,20.229c-1.404,0.479-3.506-0.289-4.146-1.588
		c-0.674-1.367,0.156-2.964,1.66-2.743c3.563,0.521,7.143-0.023,10.725,0.593c4.553,0.783,8.532,2.584,12.213,5.241
		c1.446,1.045,2.898,2.084,4.47,3.211c0.508-0.379,0.864-0.959,0.989-1.646c0.476-2.614,0.445-5.241-0.063-7.841
		c-0.158-0.803-0.494-1.641-0.976-2.296c-1.097-1.491-2.332-2.867-2.979-4.657c-0.098-0.27-0.799-0.49-1.193-0.452
		c-1.194,0.114-1.917-0.376-2.397-1.43c-0.504-1.105-0.072-1.918,1.112-1.979c2.359-0.122,4.448,1.233,5.417,3.377
		c0.438,0.966,1.066,1.849,1.639,2.75c0.446,0.707,0.977,1.363,1.398,2.082C32.636,13.513,32.929,14.225,33.465,15.328z"/>
</g>
<g>
	<path d="M56.042,74.109c-1.563,0-3.051-0.073-4.53,0.016c-3.401,0.203-6.796,0.544-10.199,0.714
		c-1.72,0.086-3.504,0.174-5.164-0.183c-2.825-0.605-5.597-1.494-8.349-2.396c-1.424-0.467-2.155-1.343-1.385-3.252
		c0.066-0.163,0.146-0.352,0.123-0.514c-0.33-2.201,0.898-3.481,2.611-4.494c0.09-0.053,0.117-0.213,0.217-0.41
		c-0.724-0.164-1.391-0.315-2.224-0.506c-1.123,1.496-2.497,2.981-3.464,4.697c-1.4,2.485-3.683,3.929-5.855,5.496
		c-4.586,3.305-9.879,4.854-15.363,5.807c-1.821,0.317-3.684,0.447-5.532,0.576c-2.764,0.192-4.54-1.877-3.587-4.492
		c0.333-0.914,1.687-1.588,2.713-2.079c0.851-0.405,1.904-0.387,2.871-0.546c0.837-0.137,1.238-0.537,0.783-1.375
		c-2.102-3.87-2.063-8.108-2.172-12.329c-0.016-0.62-0.092-1.25-0.236-1.852c-0.229-0.953-0.561-1.659-1.786-1.936
		c-1.293-0.291-2.457-1.154-3.773-1.815c-0.013,0.153-0.102,0.591-0.078,1.021c0.123,2.261,0.232,4.521,0.43,6.773
		c0.166,1.894,0.521,3.771,0.65,5.667c0.066,1.004-0.097,2.042-0.289,3.038c-0.268,1.389-0.818,2.737-0.947,4.131
		c-0.099,1.055,0.259,2.156,0.439,3.232c0.178,1.053-1.402,3.219-2.437,3.248c-1.166,0.033-1.151-1.028-1.53-1.729
		c-0.23-0.428-0.533-0.818-0.746-1.253c-0.287-0.583-0.67-1.175-0.751-1.796c-0.546-4.229-1.163-8.454-1.479-12.701
		c-0.237-3.222,0.001-6.477-0.098-9.713c-0.057-1.817-0.363-3.627-0.564-5.44c-0.118-1.056-0.351-2.113-0.341-3.17
		c0.006-0.589,0.248-1.441,0.668-1.687c0.43-0.249,1.213,0.069,1.828,0.204c0.288,0.063,0.544,0.277,1.124,0.59
		c-0.073-1.063-0.205-1.912-0.149-2.749c0.021-0.331,0.566-0.943,0.703-0.899c0.91,0.294,1.851,0.623,2.621,1.166
		c0.377,0.266,0.566,1.012,0.578,1.545c0.067,2.973,0.047,5.948,0.079,8.921c0.003,0.227,0.18,0.45,0.409,0.986
		c1.202-2.856,3.497-1.874,5.408-1.863c2.308,0.014,2.349,0.153,2.804-2.142c0.333-1.677,0.488-3.389,0.838-5.061
		c0.074-0.351,0.762-0.908,0.982-0.833c1.312,0.448,2.522,1.238,3.854,1.568c2.229,0.552,3.723,2.847,6.588,2.078
		c3.954-1.061,6.715,1.405,9.132,4.188c1.868,2.149,2.753,4.801,3.799,7.381c0.504,1.244,1.243,2.393,1.885,3.6
		c2.199-1.946,2.07-4.011,0.039-6.018c-0.955-0.943-1.438-2.375-2.095-3.606c-0.581-1.09-1.067-2.229-1.665-3.31
		c-0.891-1.607,0.021-3.39,1.916-3.38c3.063,0.016,6.15,0.021,9.188,0.377c5.827,0.683,11.639,0.635,17.471,0.229
		c0.833-0.059,1.729-0.047,2.508,0.208c0.591,0.192,1.281,0.736,1.476,1.284c0.158,0.451-0.174,1.382-0.59,1.678
		c-1.869,1.329-3.799,2.589-5.796,3.717c-1.803,1.019-3.719,1.831-5.936,2.904c1.76,0.133,3.135,0.216,4.506,0.346
		c1.15,0.11,2.327,0.159,3.435,0.454c0.795,0.212,1.617,0.655,2.209,1.224c0.98,0.938,0.684,1.774-0.423,2.552
		c-3.124,2.189-6.665,2.112-10.227,2.12c-0.459,0.001-1.028,0.388-1.354,0.763c-0.955,1.104-1.666,1.217-3.018,0.787
		c-1.152-0.367-2.41-0.514-3.622-0.52c-0.262-0.002-0.767,1.03-0.74,1.566c0.052,1.055,1.562,2.276,2.646,2.181
		c4.476-0.393,8.943-0.842,13.412-1.298c1.682-0.172,3.352-0.533,5.033-0.587c0.914-0.026,1.844,0.413,2.979,0.695
		c0.131-0.229,0.519-0.679,0.662-1.196c0.81-2.903,1.717-5.794,2.285-8.747c0.553-2.869,0.662-5.82,1.127-8.711
		c0.136-0.839,0.705-1.706,1.314-2.325c0.287-0.292,1.264-0.239,1.711,0.024c1.299,0.769,1.43,0.775,2.078-0.522
		c0.514-1.024,0.771-2.31,2.28-2.47c0.222-0.022,0.439-0.42,0.588-0.684c0.438-0.776,1.17-1.198,1.875-0.738
		c0.568,0.37,1.117,1.172,1.18,1.829c0.124,1.313-0.101,2.66-0.167,3.994c-0.076,1.484,0.096,1.53,1.573,1.233
		c0.587-0.115,1.429,0.131,1.869,0.526c0.33,0.296,0.482,1.28,0.24,1.646c-1.676,2.53-1.217,5.104-0.242,7.648
		c1.381,3.604,2.82,7.188,4.379,10.719c0.579,1.313,1.595,2.428,2.35,3.67c0.478,0.786,0.913,1.599-0.468,2.096
		c-0.319,0.113-0.589,0.878-0.57,1.331c0.072,1.91,0.117,3.843,0.461,5.714c0.225,1.223,0.92,2.366,1.457,3.521
		c0.47,1.012,0.149,1.624-0.859,1.92c-3.056,0.895-3.173,0.781-3.534-2.43c-0.097-0.869-0.412-1.72-0.687-2.561
		c-0.926-2.834-1.75-5.71-2.857-8.473c-0.825-2.063-2.791-3.216-4.661-4.152c-0.703-0.354-1.943,0.272-2.896,0.581
		c-0.24,0.076-0.512,0.688-0.447,0.983c0.763,3.521-0.512,6.554-2.186,9.5c-0.474,0.831-3.531,2.381-4.407,2.063
		c-0.547-0.199-1.081-0.763-1.364-1.297c-0.938-1.769-1.057-1.855-2.782-1.089c-1.455,0.647-2.144,0.354-2.257-1.255
		c-0.08-1.123,0.259-2.274,0.408-3.415C55.988,74.591,56.015,74.342,56.042,74.109z M4.304,71.692
		c2.661-0.368,5.479-1.366,8.188-2.688c1.018-0.496,2.319-0.847,2.92-1.678c1.629-2.249,2.708-4.813,2.113-7.703
		c-0.235-1.14-0.644-2.286-2.006-2.713c-2.154-0.675-4.272-1.464-6.433-2.124c-2.123-0.647-4.28-1.794-6.446-0.177
		c-0.41,0.306-0.906,0.962-0.838,1.37c0.639,3.823,1.426,7.624,2.094,11.443C4.138,68.808,4.17,70.228,4.304,71.692z M48.747,49.089
		c-0.899,0.146-1.41,0.31-1.918,0.302c-3.905-0.063-7.811-0.138-11.713-0.268c-0.705-0.022-1.111,0.023-1.129,0.843
		c-0.029,1.355-0.182,2.711-0.152,4.063c0.027,1.277,1.563,2.296,2.674,1.763c3.666-1.765,7.31-3.58,10.938-5.418
		C47.866,50.162,48.154,49.689,48.747,49.089z M72.418,56.688c-0.182,0.007-0.36,0.013-0.542,0.02
		c-0.732,2.344-1.493,4.682-2.164,7.042c-0.084,0.295,0.306,1.041,0.462,1.037c1.407-0.032,2.82-0.122,4.214-0.328
		c0.731-0.107,0.937-0.574,0.596-1.381c-0.731-1.734-1.309-3.533-1.974-5.296C72.866,57.397,72.618,57.052,72.418,56.688z
		 M67.047,63.683c1.352-3.08,2.707-6.131,4.019-9.199c0.307-0.723,0.363-1.479-0.605-1.816c-0.11,0.062-0.227,0.084-0.259,0.147
		c-1.427,2.87-2.903,5.717-4.232,8.631C65.535,62.396,66.259,63.439,67.047,63.683z M6.84,48.672
		c-1.313-0.767-2.311-1.409-3.362-1.941c-0.84-0.425-1.363-0.079-1.457,0.871c-0.115,1.166-0.234,2.331-0.378,3.754
		C3.381,50.458,4.997,49.625,6.84,48.672z M20.437,58.917c-0.117,1.854-0.235,3.707-0.354,5.58c0.944,0.137,2.602-0.874,2.694-1.926
		C22.92,60.961,22.618,59.117,20.437,58.917z M29.86,48.923c-1.14-0.521-2.356-0.809-3.313-0.097
		c-0.335,0.249,0.057,1.494,0.143,2.281c0.039,0.35,0.059,0.753,0.244,1.021c0.202,0.291,0.573,0.585,0.901,0.626
		c0.215,0.027,0.588-0.348,0.713-0.623C29.004,51.131,29.388,50.098,29.86,48.923z M13.517,53.539
		c-3.117-3.234-3.242-3.255-6.603-0.876C9.286,52.978,11.402,53.258,13.517,53.539z M15.858,50.341
		c1.282,3.033,2.854,4.569,4.316,4.256C19.29,52.74,17.984,51.419,15.858,50.341z M65.029,74.886
		c-0.094-0.146-0.189-0.292-0.283-0.438c-0.664,0.076-1.762-0.045-1.904,0.269c-0.336,0.735-0.351,1.697-0.238,2.534
		c0.107,0.813,0.729,0.724,1.099,0.147C64.209,76.604,64.591,75.729,65.029,74.886z M54.545,69.849
		c1.824,0.697,2.801,0.213,2.74-1.514C56.336,68.86,55.447,69.352,54.545,69.849z M76.857,69.185
		c-0.363-0.854,0.162-2.153-1.269-2.517C75.076,67.865,75.371,68.513,76.857,69.185z"/>
	<path fill="#FFFFFF" d="M4.304,71.692c-0.134-1.465-0.166-2.885-0.406-4.269C3.23,63.604,2.443,59.805,1.804,55.98
		c-0.068-0.408,0.428-1.064,0.838-1.37c2.166-1.617,4.323-0.472,6.446,0.177c2.159,0.66,4.277,1.449,6.433,2.124
		c1.362,0.427,1.771,1.573,2.006,2.713c0.595,2.891-0.484,5.454-2.113,7.703c-0.601,0.831-1.901,1.182-2.92,1.678
		C9.783,70.326,6.965,71.324,4.304,71.692z"/>
	<path fill="#FFFFFF" d="M48.747,49.089c-0.594,0.601-0.881,1.072-1.3,1.285c-3.63,1.838-7.272,3.653-10.938,5.418
		c-1.11,0.533-2.646-0.484-2.674-1.763c-0.028-1.354,0.123-2.708,0.152-4.063c0.018-0.818,0.424-0.865,1.129-0.843
		c3.902,0.13,7.808,0.203,11.713,0.268C47.336,49.398,47.847,49.236,48.747,49.089z"/>
	<path fill="#FFFFFF" d="M72.418,56.688c0.199,0.363,0.447,0.709,0.592,1.094c0.665,1.763,1.241,3.562,1.974,5.296
		c0.341,0.807,0.137,1.272-0.596,1.381c-1.394,0.206-2.807,0.296-4.214,0.328c-0.156,0.004-0.546-0.742-0.462-1.037
		c0.671-2.36,1.432-4.698,2.164-7.042C72.058,56.701,72.238,56.695,72.418,56.688z"/>
	<path fill="#FFFFFF" d="M67.047,63.683c-0.788-0.243-1.513-1.286-1.079-2.237c1.329-2.914,2.807-5.761,4.232-8.631
		c0.032-0.063,0.147-0.087,0.259-0.147c0.97,0.337,0.912,1.096,0.605,1.816C69.754,57.552,68.399,60.603,67.047,63.683z"/>
	<path fill="#FFFFFF" d="M6.84,48.672c-1.844,0.952-3.459,1.785-5.197,2.684c0.144-1.423,0.263-2.588,0.378-3.754
		c0.094-0.95,0.617-1.296,1.457-0.871C4.531,47.263,5.529,47.906,6.84,48.672z"/>
	<path fill="#FFFFFF" d="M20.437,58.917c2.182,0.199,2.483,2.044,2.34,3.654c-0.094,1.052-1.75,2.063-2.694,1.926
		C20.201,62.625,20.32,60.771,20.437,58.917z"/>
	<path fill="#FFFFFF" d="M29.86,48.923c-0.472,1.175-0.854,2.208-1.313,3.209c-0.125,0.275-0.498,0.65-0.713,0.623
		c-0.328-0.041-0.699-0.335-0.901-0.626c-0.187-0.269-0.205-0.672-0.244-1.021c-0.086-0.787-0.478-2.032-0.143-2.281
		C27.502,48.115,28.72,48.402,29.86,48.923z"/>
	<path fill="#FFFFFF" d="M13.517,53.539c-2.115-0.28-4.23-0.562-6.603-0.876C10.275,50.284,10.4,50.303,13.517,53.539z"/>
	<path fill="#FFFFFF" d="M15.858,50.341c2.126,1.078,3.433,2.398,4.316,4.256C18.71,54.911,17.14,53.375,15.858,50.341z"/>
	<path fill="#FFFFFF" d="M65.029,74.886c-0.438,0.843-0.818,1.719-1.328,2.514c-0.368,0.575-0.99,0.666-1.099-0.147
		c-0.111-0.837-0.098-1.799,0.238-2.534c0.144-0.313,1.24-0.191,1.904-0.269C64.838,74.594,64.935,74.741,65.029,74.886z"/>
	<path fill="#FFFFFF" d="M54.545,69.849c0.9-0.497,1.791-0.988,2.74-1.514C57.346,70.062,56.37,70.546,54.545,69.849z"/>
	<path fill="#FFFFFF" d="M76.857,69.185c-1.485-0.672-1.78-1.319-1.269-2.517C77.019,67.031,76.493,68.331,76.857,69.185z"/>
</g>
</svg>
