<?xml version="1.0" encoding="utf-8"?>
<!-- Generator: Adobe Illustrator 16.0.0, SVG Export Plug-In . SVG Version: 6.00 Build 0)  -->
<!DOCTYPE svg PUBLIC "-//W3C//DTD SVG 1.1//EN" "http://www.w3.org/Graphics/SVG/1.1/DTD/svg11.dtd">
<svg version="1.1" id="Layer_1" xmlns="http://www.w3.org/2000/svg" xmlns:xlink="http://www.w3.org/1999/xlink" x="0px" y="0px"
	 width="102.281px" height="124.906px" viewBox="-0.002 -44.625 102.281 124.906"
	 enable-background="new -0.002 -44.625 102.281 124.906" xml:space="preserve">
<g>
	<path d="M4.521,26.987c4.366,0.078,8.33-0.867,12.398-0.823c0.139-0.577,0.289-0.968,0.317-1.363
		c0.123-1.755,0.932-3.163,2.05-4.474c2.014-2.36,3.99-4.752,5.938-7.168c1.193-1.483,2.34-3.012,3.438-4.567
		c0.684-0.969,1.285-2.004,1.84-3.054C31.112,4.381,31.854,3.9,32.7,4.262c1.26,0.541,1.912,1.958,1.365,3.072
		c-0.233,0.478-0.559,0.922-0.897,1.334c-2.435,2.942-4.919,5.845-7.313,8.818c-1.605,1.994-3.125,4.063-4.609,6.15
		c-0.384,0.537-0.494,1.271-0.764,2.006c0.461,0.074,0.69,0.148,0.918,0.143c2.447-0.075,4.893-0.195,7.34-0.231
		c0.93-0.014,1.529-0.305,2.031-1.133c1.205-1.983,2.739-3.794,3.748-5.865c1.551-3.189,3.744-5.945,5.729-8.815
		c1.293-1.87,2.391-3.947,4.217-5.5c0.928-0.788,1.34-2.186,1.971-3.315C46.599,0.632,46.708,0.31,46.841,0
		c2.035,0.903,2.622,2.829,1.376,4.461c-0.938,1.229-2.012,2.352-2.971,3.564c-1.069,1.354-2.185,2.691-3.091,4.152
		c-2.825,4.559-5.586,9.16-8.311,13.78c-0.537,0.909-0.961,1.944-1.166,2.978c-0.349,1.751-2.324,2.087-3.318,1.026
		c-1.303-1.387-2.799-1.404-4.434-1.269c-4.641,0.386-9.281,0.765-13.92,1.16c-0.713,0.063-1.433,0.143-2.125,0.313
		c-1.532,0.377-3.04,0.537-4.592,0.059c-0.492-0.15-1.067-0.092-1.599-0.049c-1.188,0.094-1.953-0.535-2.428-1.492
		c-0.46-0.925-0.319-1.831,0.403-2.65c3.034-3.444,5.652-7.227,8.966-10.46c3.479-3.395,5.939-7.589,8.124-11.917
		c0.42-0.834,1.106-1.468,1.949-1.258c0.794,0.197,1.612,0.772,2.146,1.41c0.565,0.675,0.127,1.546-0.439,2.079
		c-2.637,2.481-4.444,5.609-6.69,8.393c-1.686,2.086-3.517,4.054-5.243,6.108c-1.535,1.827-3.02,3.698-4.514,5.562
		C4.828,26.123,4.781,26.371,4.521,26.987z"/>
</g>
<g>
	<path d="M4.521,26.987c4.366,0.078,8.33-0.867,12.398-0.823c0.139-0.577,0.289-0.968,0.317-1.363
		c0.123-1.755,0.932-3.163,2.05-4.474c2.014-2.36,3.99-4.752,5.938-7.168c1.193-1.483,2.34-3.012,3.438-4.567
		c0.684-0.969,1.285-2.004,1.84-3.054C31.112,4.381,31.854,3.9,32.7,4.262c1.26,0.541,1.912,1.958,1.365,3.072
		c-0.233,0.478-0.559,0.922-0.897,1.334c-2.435,2.942-4.919,5.845-7.313,8.818c-1.605,1.994-3.125,4.063-4.609,6.15
		c-0.384,0.537-0.494,1.271-0.764,2.006c0.461,0.074,0.69,0.148,0.918,0.143c2.447-0.075,4.893-0.195,7.34-0.231
		c0.93-0.014,1.529-0.305,2.031-1.133c1.205-1.983,2.739-3.794,3.748-5.865c1.551-3.189,3.744-5.945,5.729-8.815
		c1.293-1.87,2.391-3.947,4.217-5.5c0.928-0.788,1.34-2.186,1.971-3.315C46.599,0.632,46.708,0.31,46.841,0
		c2.035,0.903,2.622,2.829,1.376,4.461c-0.938,1.229-2.012,2.352-2.971,3.564c-1.069,1.354-2.185,2.691-3.091,4.152
		c-2.825,4.559-5.586,9.16-8.311,13.78c-0.537,0.909-0.961,1.944-1.166,2.978c-0.349,1.751-2.324,2.087-3.318,1.026
		c-1.303-1.387-2.799-1.404-4.434-1.269c-4.641,0.386-9.281,0.765-13.92,1.16c-0.713,0.063-1.433,0.143-2.125,0.313
		c-1.532,0.377-3.04,0.537-4.592,0.059c-0.492-0.15-1.067-0.092-1.599-0.049c-1.188,0.094-1.953-0.535-2.428-1.492
		c-0.46-0.925-0.319-1.831,0.403-2.65c3.034-3.444,5.652-7.227,8.966-10.46c3.479-3.395,5.939-7.589,8.124-11.917
		c0.42-0.834,1.106-1.468,1.949-1.258c0.794,0.197,1.612,0.772,2.146,1.41c0.565,0.675,0.127,1.546-0.439,2.079
		c-2.637,2.481-4.444,5.609-6.69,8.393c-1.686,2.086-3.517,4.054-5.243,6.108c-1.535,1.827-3.02,3.698-4.514,5.562
		C4.828,26.123,4.781,26.371,4.521,26.987z"/>
</g>
<g>
	<path d="M90.306,47.159c0.094,0.714,0.143,1.191,0.221,1.662c0.17,1.012-0.151,1.771-0.941,2.466
		c-0.389,0.341-0.732,1.047-0.673,1.534c0.386,3.078,0.873,6.145,1.365,9.209c0.204,1.271,0.687,2.529,0.683,3.793
		c-0.003,0.67-0.63,1.586-1.238,1.943c-0.742,0.435-1.563-0.003-1.825-0.957c-0.803-2.9-1.615-5.799-2.362-8.713
		c-0.461-1.8-0.864-3.619-1.183-5.448c-0.115-0.663-0.14-1.534,0.197-2.045c0.87-1.316,0.41-2.563-0.143-3.656
		c-0.248-0.491-1.327-0.675-2.062-0.78c-0.959-0.138-1.947-0.041-2.924-0.078c-0.837-0.032-1.136,0.343-0.99,1.146
		c0.467,2.574,0.979,5.141,1.371,7.727c0.514,3.377,1.036,6.76,1.324,10.158c0.095,1.123,0.082,2.488-1.229,3.318
		c-0.946,0.599-1.71,0.512-2.366-0.255c-1.766-2.059-2.665-4.421-2.016-7.139c0.11-0.463,0.863-0.771,1.466-1.271
		c-0.023-0.458,0.04-1.232-0.133-1.95c-0.134-0.556-0.449-1.354-0.876-1.507c-2.695-0.959-3.058-3.33-3.572-5.608
		c-0.226-0.995-0.289-2.023-0.45-3.034c-0.117-0.731-0.467-1.096-1.288-0.844c-1.018,0.313-2.046,0.667-3.094,0.783
		c-1.519,0.168-1.908,1.584-2.857,2.365c-0.217,0.179-0.131,0.844-0.042,1.254c0.899,4.162,1.902,8.305,2.707,12.483
		c0.271,1.409,0.548,2.731,1.251,4.013c0.613,1.116-0.011,2.18-0.822,2.992c-0.945,0.944-2.021,1.026-2.99-0.007
		c0,1.824,0.024,3.538-0.009,5.252c-0.027,1.505-0.385,2.88-1.628,3.912c-0.719,0.597-1.049,0.544-1.651-0.268
		c-1.111-1.496-0.929-3.227-1.057-4.832c-0.412-5.184-0.636-10.383-0.845-15.578c-0.086-2.127-0.026-4.268,0.117-6.393
		c0.089-1.313,0.513-2.601,0.687-3.911c0.114-0.864,0.204-1.782,0.041-2.624c-0.512-2.635-0.135-4.997,2.01-6.759
		c0.825-0.68,1.891-1.198,2.93-1.46c1.368-0.346,2.825-0.325,4.229-0.548c0.456-0.071,1.184-0.346,1.244-0.641
		c0.163-0.786,0.753-1.518,0.064-2.479c-2.627-3.673-5.265-7.351-7.627-11.191c-1.384-2.25-2.308-4.792-3.345-7.242
		c-0.936-2.212-0.218-3.987,1.673-5.431c1.755-1.342,3.432-2.828,4.944-4.438c2.214-2.352,4.701-3.397,8.021-3.22
		c2.604,0.14,4.986,0.666,7.342,1.651c0.438,0.183,0.956,0.173,1.438,0.255c1.159,0.199,1.736,1.169,1.775,2.287
		c0.035,0.999,0.534,1.972,0.688,2.977c0.285,1.902-0.509,2.63-2.396,2.334c-1.313-0.206-2.625-0.426-3.946-0.549
		c-0.328-0.031-0.729,0.232-1.029,0.45c-1.257,0.907-2.508,1.825-3.728,2.783c-1.688,1.325-3.279,2.742-3.892,4.925
		c-0.357,1.273-0.058,1.671,1.209,1.968c3.48,0.818,6.978,1.597,10.415,2.575c2.719,0.773,4.871,2.544,6.713,4.646
		c1.098,1.254,1.057,3.131,0.002,4.479c-0.796,1.016-0.971,1.896,0.144,2.865c2.57,2.233,3.334,5.563,4.917,8.396
		c0.563,1.005-0.05,1.961-0.758,2.604c-0.363,0.329-1.163,0.267-1.756,0.229C91.339,47.713,90.944,47.429,90.306,47.159z
		 M68.582,16.876c1.856-1.952,3.662-3.85,5.468-5.748c-0.046-0.161-0.091-0.321-0.136-0.482c-1.713,0-3.428-0.035-5.138,0.037
		c-0.271,0.011-0.716,0.487-0.744,0.781C67.854,13.299,67.8,15.141,68.582,16.876z M76.158,31.49
		c0.689,1.875,1.787,2.376,3.798,1.592c0.518-0.201,1.118-0.277,1.678-0.266c0.882,0.02,1.761,0.168,2.642,0.252
		c0.896,0.085,1.222-0.32,0.99-1.262C82.232,31.7,79.194,31.595,76.158,31.49z M69.536,41.511c-1.934,0.469-3.35,1.698-4.906,3.088
		C67.562,45.271,68.073,42.677,69.536,41.511z"/>
	<path d="M93.417-40.45c1.043,0.18,1.871,0.204,2.61,0.473c1.887,0.685,3.762,1.419,5.585,2.255
		c0.939,0.431,0.707,1.397,0.382,2.105c-0.082,0.179-1.011,0.063-1.512-0.066c-0.975-0.25-1.902-0.727-2.886-0.869
		c-0.535-0.079-1.33,0.163-1.684,0.554c-0.986,1.089-1.92,0.62-2.975,0.236c-0.938-0.341-1.924-0.607-2.91-0.75
		c-2.198-0.32-4.41-0.551-6.618-0.801c-0.647-0.073-1.302-0.09-2.241-0.152c1.201,2.162,2.418,3.875,4.083,4.745
		c0.896,1.597,1.619,2.967,2.416,4.294c0.978,1.627,2.102,3.173,2.989,4.845c0.475,0.895,0.815,1.98,0.81,2.978
		c-0.009,1.293-1.413,1.808-2.422,0.976c-1.391-1.146-2.688-2.272-3.536-4.038c-0.876-1.822-2.497-3.282-3.74-4.938
		c-0.609-0.813-1.074-1.73-1.662-2.562c-0.201-0.284-0.674-0.682-0.851-0.609c-0.35,0.144-0.729,0.536-0.833,0.899
		c-0.328,1.154-0.646,2.331-0.769,3.521c-0.438,4.292-2.979,7.279-6.028,9.967c-1.396,1.23-2.797,2.491-5.179,2.28
		c2.149,2.377,4.037,4.463,5.961,6.59c1.582-0.862,2.466-2.314,3.283-3.85c2.005-3.769,4.438-4.195,7.744-1.731
		c1.344,1.001,2.471,2.294,3.696,3.453c0.416,0.393,0.835,0.78,1.307,1.222c0.814-0.747,1.572-1.419,2.306-2.119
		c0.79-0.754,1.843-1.37,2.716-0.749c0.605,0.433,0.795,1.603,0.942,2.481c0.163,0.975,0.082,1.994,0.081,2.994
		c-0.002,3.201,0.056,6.406-0.073,9.604c-0.033,0.806-0.533,1.71-1.077,2.351c-0.66,0.777-1.665,0.983-2.447,0.087
		c-1.396-1.603-2.71-3.276-4.062-4.917c-0.84-1.019-1.688-2.03-2.511-3.021c-1.665,0.971-3.061,2.067-4.645,2.606
		c-0.995,0.338-2.4,0.114-3.396-0.346c-1.671-0.771-1.604-0.941-2.604,0.513c-0.991,1.443-2.488,2.188-4.075,2.563
		c-0.793,0.188-2.048-0.013-2.58-0.548c-2.617-2.635-5.657-4.953-7.269-8.436c-0.623-1.349-0.984-2.818-1.446-4.239
		c-0.396-1.216-0.752-2.445-1.149-3.661c-0.217-0.659-0.712-1.457,0.345-1.708c0.775-0.184,1.83-0.298,2.418,0.083
		c0.979,0.635,1.633,0.693,2.273-0.032c-1.284-1.587-2.67-3.032-3.729-4.686c-1.062-1.657-1.852-3.499-2.656-5.307
		c-0.447-1.007-0.69-2.106-1.012-3.17c-0.275-0.918-0.217-1.687,0.314-2.629c0.676-1.199,0.869-2.671,1.258-4.028
		c0.031-0.113-0.021-0.266-0.069-0.383c-0.803-1.916-0.801-1.926,0.939-2.857c-0.18-0.302-0.422-0.582-0.522-0.906
		c-0.29-0.921-0.096-1.682,0.903-2.041c2.084-0.748,4.25-0.775,6.435-0.829c1.607-0.039,3.211-0.354,4.812-0.585
		c3.378-0.488,6.679-1.612,10.165-1.192c2.244,0.271,4.487,0.665,6.74,0.74c1.7,0.059,3.412-0.375,5.125-0.445
		c0.933-0.039,2.028-0.034,2.779,0.409C94.782-43.171,94.68-41.847,93.417-40.45z M73.017-29.884
		c-0.099-0.02-0.195-0.039-0.295-0.059c0-0.535,0.114-1.104-0.036-1.593c-0.116-0.374-0.545-0.89-0.872-0.92
		c-2.605-0.244-4.648-1.525-6.57-3.185c-0.581-0.5-1.455-0.75-2.236-0.902c-0.745-0.145-1.086,0.425-0.849,1.103
		c0.332,0.946,0.678,1.93,1.243,2.739c0.368,0.529,1.151,0.758,1.722,1.16c0.775,0.551,0.8,1.351,0.275,1.982
		c-0.305,0.365-1.008,0.594-1.51,0.56c-1.145-0.077-2.271-0.39-3.412-0.54c-1.23-0.161-2.123,0.664-1.687,1.782
		c0.45,1.15,1.349,2.127,2.07,3.167c1.836,2.646,4.696,3.337,7.597,3.813c1.381,0.227,2.628-0.399,2.999-1.869
		C72.063-25.036,72.506-27.468,73.017-29.884z M62.752-12.001c0.319,0.753,0.433,1.247,0.705,1.624
		c1.245,1.715,2.517,3.412,3.82,5.083c0.4,0.515,0.863,1.084,1.429,1.33c0.396,0.172,1.19,0.003,1.481-0.313
		c0.334-0.364,0.608-1.328,0.394-1.567c-1.916-2.129-3.657-4.472-6.264-5.857C63.951-11.896,63.467-11.872,62.752-12.001z
		 M79.472-2.639c0.751-0.383,1.497-0.724,2.202-1.136c0.627-0.367,0.641-0.769,0.14-1.381c-0.866-1.063-1.995-1.487-3.252-1.828
		c-1.479-0.402-1.83,0.63-2.285,1.595c-0.457,0.969,0.288,1.41,0.899,1.778C77.837-3.213,78.605-2.995,79.472-2.639z M85.724-7.353
		c-0.146-0.297-0.207-0.589-0.385-0.756c-0.859-0.807-1.727-1.61-2.643-2.352c-0.538-0.436-1.136-0.868-1.779-1.073
		c-0.31-0.099-0.789,0.33-1.189,0.52c0.209,0.292,0.362,0.655,0.636,0.863c1.418,1.087,2.86,2.142,4.311,3.188
		c0.189,0.137,0.502,0.28,0.68,0.213C85.529-6.816,85.606-7.144,85.724-7.353z M88.167-2.524c1.033,1.036,1.441,2.545,2.988,3.222
		c0-1.448,0-2.688,0-3.793C90.17-2.908,89.304-2.743,88.167-2.524z M72.732-34.268c0.399-1.155,0.663-1.911,0.925-2.667
		c-0.891-0.066-1.779-0.133-2.669-0.195c-0.087-0.006-0.234-0.009-0.255,0.034c-0.164,0.35-0.515,0.946-0.418,1.03
		C70.995-35.462,71.767-34.961,72.732-34.268z"/>
	<path fill="#FFFFFF" d="M68.582,16.876c-0.782-1.735-0.728-3.577-0.55-5.412c0.028-0.294,0.475-0.771,0.744-0.781
		c1.71-0.072,3.425-0.037,5.138-0.037c0.045,0.161,0.09,0.321,0.136,0.482C72.244,13.027,70.438,14.924,68.582,16.876z"/>
	<path fill="#FFFFFF" d="M76.158,31.49c3.036,0.105,6.074,0.211,9.106,0.316c0.23,0.94-0.094,1.347-0.99,1.262
		c-0.881-0.084-1.76-0.232-2.642-0.252c-0.56-0.013-1.16,0.063-1.678,0.266C77.945,33.865,76.848,33.365,76.158,31.49z"/>
	<path fill="#FFFFFF" d="M69.536,41.511c-1.463,1.166-1.975,3.76-4.906,3.088C66.187,43.209,67.603,41.98,69.536,41.511z"/>
	<path fill="#FFFFFF" d="M73.017-29.884c-0.512,2.416-0.954,4.848-1.561,7.24c-0.371,1.47-1.618,2.096-2.999,1.869
		c-2.899-0.477-5.761-1.168-7.597-3.813c-0.723-1.04-1.62-2.017-2.07-3.167c-0.438-1.118,0.455-1.941,1.687-1.782
		c1.143,0.149,2.269,0.462,3.412,0.54c0.502,0.034,1.205-0.193,1.51-0.56c0.523-0.632,0.5-1.432-0.275-1.982
		c-0.569-0.402-1.354-0.631-1.722-1.16c-0.565-0.811-0.911-1.793-1.243-2.739c-0.237-0.676,0.104-1.247,0.849-1.103
		c0.781,0.152,1.655,0.402,2.236,0.902c1.922,1.658,3.965,2.941,6.57,3.185c0.327,0.03,0.756,0.546,0.872,0.92
		c0.15,0.487,0.036,1.058,0.036,1.593C72.821-29.923,72.919-29.902,73.017-29.884z"/>
	<path fill="#FFFFFF" d="M62.752-12.001c0.716,0.129,1.199,0.104,1.565,0.299c2.605,1.386,4.348,3.729,6.264,5.857
		c0.216,0.239-0.06,1.203-0.394,1.567c-0.291,0.315-1.086,0.485-1.481,0.313c-0.564-0.246-1.027-0.815-1.429-1.33
		c-1.305-1.671-2.575-3.368-3.82-5.083C63.183-10.753,63.071-11.247,62.752-12.001z"/>
	<path fill="#FFFFFF" d="M79.472-2.639c-0.866-0.355-1.636-0.574-2.296-0.972c-0.611-0.369-1.356-0.81-0.899-1.778
		c0.455-0.964,0.807-1.997,2.285-1.595c1.257,0.341,2.386,0.765,3.252,1.828c0.501,0.612,0.487,1.014-0.14,1.381
		C80.969-3.362,80.223-3.022,79.472-2.639z"/>
	<path fill="#FFFFFF" d="M85.724-7.353c-0.117,0.208-0.194,0.536-0.371,0.604c-0.178,0.067-0.489-0.076-0.68-0.213
		c-1.449-1.047-2.893-2.102-4.311-3.188c-0.272-0.208-0.427-0.571-0.636-0.863c0.4-0.189,0.881-0.618,1.189-0.52
		c0.645,0.206,1.241,0.639,1.779,1.073c0.916,0.741,1.782,1.545,2.643,2.352C85.517-7.941,85.579-7.649,85.724-7.353z"/>
	<path fill="#FFFFFF" d="M88.167-2.524c1.138-0.218,2.003-0.382,2.988-0.571c0,1.104,0,2.345,0,3.793
		C89.608,0.021,89.2-1.488,88.167-2.524z"/>
	<path fill="#FFFFFF" d="M72.732-34.268c-0.966-0.693-1.737-1.194-2.417-1.798c-0.097-0.084,0.254-0.682,0.418-1.03
		c0.021-0.042,0.168-0.04,0.255-0.034c0.89,0.063,1.778,0.129,2.669,0.195C73.396-36.179,73.133-35.423,72.732-34.268z"/>
</g>
</svg>
