<?xml version="1.0" encoding="utf-8"?>
<!-- Generator: Adobe Illustrator 16.0.0, SVG Export Plug-In . SVG Version: 6.00 Build 0)  -->
<!DOCTYPE svg PUBLIC "-//W3C//DTD SVG 1.1//EN" "http://www.w3.org/Graphics/SVG/1.1/DTD/svg11.dtd">
<svg version="1.1" id="Layer_1" xmlns="http://www.w3.org/2000/svg" xmlns:xlink="http://www.w3.org/1999/xlink" x="0px" y="0px"
	 width="48.869px" height="30.565px" viewBox="0 0 48.869 30.565" enable-background="new 0 0 48.869 30.565" xml:space="preserve">
<g>
	<path fill-rule="evenodd" clip-rule="evenodd" d="M4.521,26.987c4.366,0.078,8.33-0.868,12.398-0.824
		c0.139-0.577,0.289-0.967,0.317-1.363c0.123-1.755,0.932-3.163,2.05-4.474c2.014-2.36,3.99-4.752,5.937-7.168
		c1.194-1.483,2.34-3.011,3.438-4.567c0.684-0.969,1.285-2.004,1.84-3.054c0.611-1.156,1.354-1.637,2.199-1.275
		c1.26,0.541,1.913,1.958,1.366,3.072c-0.234,0.478-0.559,0.922-0.898,1.334c-2.435,2.943-4.919,5.845-7.314,8.819
		c-1.605,1.994-3.124,4.063-4.609,6.15c-0.384,0.537-0.494,1.27-0.764,2.006c0.461,0.074,0.69,0.148,0.918,0.142
		c2.447-0.075,4.893-0.195,7.34-0.231c0.93-0.014,1.529-0.305,2.032-1.133c1.205-1.983,2.739-3.794,3.747-5.865
		c1.552-3.19,3.745-5.945,5.729-8.816c1.293-1.87,2.39-3.947,4.217-5.5c0.928-0.788,1.34-2.185,1.971-3.315
		C46.598,0.632,46.708,0.31,46.841,0c2.035,0.904,2.622,2.829,1.376,4.461c-0.938,1.229-2.012,2.352-2.971,3.565
		c-1.069,1.354-2.185,2.691-3.09,4.152c-2.826,4.559-5.586,9.16-8.312,13.78c-0.537,0.909-0.96,1.945-1.165,2.978
		c-0.349,1.751-2.324,2.087-3.319,1.026c-1.303-1.387-2.799-1.404-4.433-1.268c-4.641,0.385-9.281,0.764-13.92,1.16
		c-0.713,0.062-1.433,0.142-2.125,0.313c-1.532,0.377-3.04,0.537-4.592,0.059c-0.492-0.151-1.067-0.092-1.599-0.049
		c-1.188,0.094-1.953-0.535-2.428-1.492c-0.46-0.925-0.319-1.831,0.403-2.651c3.034-3.444,5.652-7.226,8.966-10.46
		c3.479-3.394,5.939-7.588,8.124-11.917c0.42-0.834,1.106-1.467,1.949-1.257c0.794,0.197,1.612,0.772,2.146,1.41
		c0.565,0.675,0.127,1.546-0.439,2.079c-2.637,2.481-4.444,5.609-6.69,8.392c-1.686,2.086-3.517,4.054-5.243,6.109
		c-1.535,1.827-3.02,3.698-4.514,5.561C4.828,26.123,4.781,26.371,4.521,26.987z"/>
</g>
<g>
	<path fill-rule="evenodd" clip-rule="evenodd" d="M4.521,26.987c4.366,0.078,8.33-0.868,12.398-0.824
		c0.139-0.577,0.289-0.967,0.317-1.363c0.123-1.755,0.932-3.163,2.05-4.474c2.014-2.36,3.99-4.752,5.937-7.168
		c1.194-1.483,2.34-3.011,3.438-4.567c0.684-0.969,1.285-2.004,1.84-3.054c0.611-1.156,1.354-1.637,2.199-1.275
		c1.26,0.541,1.913,1.958,1.366,3.072c-0.234,0.478-0.559,0.922-0.898,1.334c-2.435,2.943-4.919,5.845-7.314,8.819
		c-1.605,1.994-3.124,4.063-4.609,6.15c-0.384,0.537-0.494,1.27-0.764,2.006c0.461,0.074,0.69,0.148,0.918,0.142
		c2.447-0.075,4.893-0.195,7.34-0.231c0.93-0.014,1.529-0.305,2.032-1.133c1.205-1.983,2.739-3.794,3.747-5.865
		c1.552-3.19,3.745-5.945,5.729-8.816c1.293-1.87,2.39-3.947,4.217-5.5c0.928-0.788,1.34-2.185,1.971-3.315
		C46.598,0.632,46.708,0.31,46.841,0c2.035,0.904,2.622,2.829,1.376,4.461c-0.938,1.229-2.012,2.352-2.971,3.565
		c-1.069,1.354-2.185,2.691-3.09,4.152c-2.826,4.559-5.586,9.16-8.312,13.78c-0.537,0.909-0.96,1.945-1.165,2.978
		c-0.349,1.751-2.324,2.087-3.319,1.026c-1.303-1.387-2.799-1.404-4.433-1.268c-4.641,0.385-9.281,0.764-13.92,1.16
		c-0.713,0.062-1.433,0.142-2.125,0.313c-1.532,0.377-3.04,0.537-4.592,0.059c-0.492-0.151-1.067-0.092-1.599-0.049
		c-1.188,0.094-1.953-0.535-2.428-1.492c-0.46-0.925-0.319-1.831,0.403-2.651c3.034-3.444,5.652-7.226,8.966-10.46
		c3.479-3.394,5.939-7.588,8.124-11.917c0.42-0.834,1.106-1.467,1.949-1.257c0.794,0.197,1.612,0.772,2.146,1.41
		c0.565,0.675,0.127,1.546-0.439,2.079c-2.637,2.481-4.444,5.609-6.69,8.392c-1.686,2.086-3.517,4.054-5.243,6.109
		c-1.535,1.827-3.02,3.698-4.514,5.561C4.828,26.123,4.781,26.371,4.521,26.987z"/>
</g>
</svg>
