<?xml version="1.0" encoding="utf-8"?>
<!-- Generator: Adobe Illustrator 16.0.0, SVG Export Plug-In . SVG Version: 6.00 Build 0)  -->
<!DOCTYPE svg PUBLIC "-//W3C//DTD SVG 1.1//EN" "http://www.w3.org/Graphics/SVG/1.1/DTD/svg11.dtd">
<svg version="1.1" id="Layer_1" xmlns="http://www.w3.org/2000/svg" xmlns:xlink="http://www.w3.org/1999/xlink" x="0px" y="0px"
	 width="100.697px" height="46.863px" viewBox="0 0 100.697 46.863" enable-background="new 0 0 100.697 46.863"
	 xml:space="preserve">
<g>
	<path fill-rule="evenodd" clip-rule="evenodd" d="M72.042,34.109c-1.563,0-3.051-0.073-4.531,0.016
		c-3.401,0.203-6.795,0.544-10.199,0.714c-1.719,0.086-3.504,0.173-5.164-0.183c-2.825-0.605-5.596-1.494-8.348-2.396
		c-1.424-0.467-2.156-1.343-1.385-3.252c0.066-0.163,0.146-0.352,0.123-0.514c-0.33-2.201,0.898-3.482,2.611-4.494
		c0.09-0.053,0.117-0.213,0.217-0.41c-0.724-0.164-1.391-0.316-2.224-0.506c-1.123,1.496-2.497,2.981-3.464,4.697
		c-1.4,2.485-3.682,3.929-5.855,5.496c-4.586,3.305-9.879,4.854-15.363,5.807c-1.822,0.317-3.684,0.447-5.533,0.576
		c-2.763,0.192-4.54-1.877-3.586-4.492c0.333-0.914,1.686-1.588,2.712-2.079c0.851-0.406,1.905-0.387,2.872-0.546
		c0.836-0.137,1.238-0.537,0.783-1.375c-2.102-3.87-2.063-8.109-2.172-12.329c-0.016-0.62-0.092-1.25-0.236-1.852
		c-0.229-0.953-0.561-1.659-1.787-1.935c-1.293-0.291-2.457-1.155-3.773-1.816c-0.013,0.153-0.102,0.591-0.078,1.021
		c0.123,2.26,0.232,4.521,0.43,6.773c0.166,1.894,0.521,3.772,0.65,5.667c0.066,1.004-0.097,2.042-0.289,3.038
		c-0.268,1.389-0.818,2.737-0.947,4.131c-0.099,1.055,0.258,2.156,0.439,3.232c0.178,1.053-1.402,3.219-2.436,3.248
		c-1.166,0.034-1.152-1.028-1.531-1.729c-0.23-0.428-0.533-0.818-0.746-1.253c-0.287-0.583-0.67-1.175-0.751-1.796
		c-0.546-4.229-1.163-8.454-1.478-12.701c-0.238-3.222,0.001-6.477-0.098-9.713c-0.057-1.817-0.363-3.627-0.564-5.44
		C0.222,6.658-0.01,5.6,0,4.544c0.006-0.589,0.248-1.442,0.668-1.687c0.429-0.249,1.213,0.07,1.828,0.204
		C2.784,3.125,3.04,3.339,3.62,3.651C3.547,2.588,3.415,1.739,3.47,0.902c0.022-0.331,0.567-0.943,0.704-0.899
		c0.91,0.294,1.85,0.623,2.621,1.166c0.377,0.265,0.566,1.011,0.578,1.545C7.44,5.686,7.42,8.662,7.452,11.635
		c0.003,0.226,0.18,0.45,0.409,0.986c1.202-2.857,3.497-1.874,5.408-1.863c2.308,0.013,2.349,0.153,2.804-2.142
		c0.333-1.677,0.488-3.389,0.838-5.061c0.074-0.35,0.762-0.908,0.982-0.833c1.312,0.449,2.523,1.239,3.854,1.569
		c2.228,0.552,3.722,2.846,6.588,2.078c3.954-1.061,6.715,1.405,9.132,4.188c1.868,2.15,2.752,4.801,3.798,7.381
		c0.504,1.244,1.244,2.393,1.885,3.6c2.199-1.946,2.07-4.011,0.039-6.018c-0.955-0.943-1.438-2.375-2.095-3.606
		c-0.581-1.09-1.067-2.229-1.665-3.31c-0.89-1.607,0.021-3.389,1.916-3.38c3.064,0.016,6.151,0.021,9.188,0.377
		C56.36,6.284,62.172,6.236,68.004,5.83c0.833-0.059,1.729-0.047,2.507,0.208c0.591,0.192,1.282,0.736,1.476,1.284
		c0.158,0.451-0.174,1.382-0.59,1.678c-1.869,1.329-3.799,2.589-5.796,3.717c-1.802,1.018-3.718,1.831-5.935,2.904
		c1.76,0.133,3.135,0.216,4.506,0.346c1.15,0.11,2.327,0.159,3.434,0.454c0.795,0.212,1.617,0.655,2.209,1.223
		c0.981,0.939,0.684,1.775-0.423,2.552c-3.124,2.19-6.665,2.112-10.226,2.12c-0.459,0.001-1.029,0.388-1.355,0.763
		c-0.955,1.103-1.666,1.217-3.017,0.787c-1.153-0.367-2.41-0.514-3.622-0.52c-0.262-0.001-0.767,1.031-0.741,1.567
		c0.052,1.055,1.562,2.276,2.646,2.181c4.475-0.393,8.943-0.842,13.412-1.298c1.682-0.172,3.352-0.534,5.033-0.587
		c0.914-0.027,1.844,0.413,2.98,0.695c0.131-0.229,0.518-0.679,0.662-1.196c0.809-2.904,1.717-5.794,2.285-8.747
		c0.553-2.869,0.662-5.821,1.127-8.711c0.136-0.839,0.705-1.706,1.314-2.325c0.287-0.292,1.264-0.24,1.711,0.024
		c1.299,0.769,1.43,0.775,2.078-0.522c0.514-1.025,0.771-2.31,2.281-2.47c0.221-0.023,0.439-0.42,0.588-0.684
		c0.437-0.776,1.17-1.198,1.875-0.738c0.568,0.37,1.117,1.172,1.179,1.829c0.124,1.314-0.1,2.66-0.167,3.994
		c-0.076,1.485,0.096,1.53,1.574,1.234c0.586-0.116,1.428,0.13,1.869,0.526c0.33,0.296,0.482,1.28,0.24,1.646
		c-1.676,2.531-1.217,5.104-0.242,7.649c1.381,3.604,2.82,7.188,4.379,10.719c0.579,1.313,1.594,2.427,2.349,3.67
		c0.478,0.786,0.913,1.598-0.468,2.095c-0.319,0.114-0.588,0.878-0.57,1.331c0.072,1.91,0.117,3.843,0.461,5.714
		c0.225,1.223,0.92,2.366,1.457,3.521c0.47,1.011,0.15,1.624-0.859,1.92c-3.056,0.894-3.173,0.781-3.534-2.43
		c-0.097-0.869-0.413-1.72-0.687-2.561c-0.926-2.834-1.75-5.71-2.857-8.472c-0.826-2.063-2.791-3.216-4.662-4.153
		c-0.703-0.353-1.943,0.273-2.896,0.581c-0.24,0.077-0.512,0.688-0.447,0.984c0.762,3.521-0.512,6.554-2.186,9.5
		c-0.473,0.831-3.531,2.381-4.407,2.063c-0.547-0.199-1.081-0.762-1.364-1.297c-0.938-1.768-1.057-1.855-2.783-1.088
		c-1.455,0.647-2.143,0.354-2.256-1.255c-0.08-1.123,0.258-2.275,0.408-3.415C71.987,34.591,72.014,34.342,72.042,34.109z
		 M20.303,31.692c2.662-0.368,5.479-1.366,8.189-2.688c1.018-0.496,2.319-0.847,2.92-1.678c1.629-2.249,2.708-4.813,2.113-7.703
		c-0.235-1.14-0.643-2.286-2.006-2.713c-2.154-0.675-4.272-1.464-6.432-2.124c-2.123-0.648-4.281-1.794-6.447-0.177
		c-0.41,0.306-0.906,0.962-0.838,1.37c0.639,3.824,1.426,7.624,2.094,11.444C20.137,28.807,20.17,30.227,20.303,31.692z
		 M64.747,9.089c-0.9,0.146-1.41,0.309-1.918,0.301c-3.905-0.063-7.811-0.137-11.713-0.267c-0.705-0.023-1.111,0.023-1.129,0.843
		c-0.029,1.355-0.182,2.711-0.152,4.063c0.027,1.277,1.563,2.296,2.674,1.763c3.666-1.765,7.309-3.58,10.938-5.418
		C63.866,10.162,64.153,9.689,64.747,9.089z M88.418,16.688c-0.182,0.007-0.361,0.013-0.542,0.02
		c-0.733,2.344-1.493,4.681-2.164,7.042c-0.084,0.295,0.305,1.041,0.462,1.037c1.407-0.032,2.82-0.122,4.213-0.328
		c0.732-0.108,0.937-0.574,0.596-1.381c-0.731-1.734-1.308-3.533-1.973-5.296C88.866,17.397,88.618,17.052,88.418,16.688z
		 M83.047,23.682c1.351-3.08,2.707-6.13,4.018-9.199c0.307-0.722,0.363-1.479-0.605-1.816c-0.111,0.061-0.227,0.084-0.259,0.147
		c-1.427,2.87-2.903,5.717-4.232,8.631C81.535,22.396,82.259,23.439,83.047,23.682z M22.84,8.672
		c-1.313-0.767-2.311-1.41-3.363-1.942c-0.84-0.425-1.363-0.079-1.457,0.871c-0.115,1.166-0.234,2.331-0.378,3.754
		C19.381,10.458,20.997,9.625,22.84,8.672z M36.436,18.917c-0.117,1.853-0.235,3.707-0.354,5.58
		c0.944,0.137,2.601-0.874,2.694-1.926C38.92,20.961,38.618,19.117,36.436,18.917z M45.859,8.923
		c-1.14-0.521-2.356-0.809-3.313-0.097c-0.335,0.249,0.056,1.494,0.142,2.281c0.039,0.35,0.059,0.753,0.244,1.021
		c0.203,0.291,0.574,0.585,0.902,0.626c0.215,0.027,0.588-0.348,0.713-0.623C45.004,11.131,45.387,10.097,45.859,8.923z
		 M29.516,13.539c-3.117-3.235-3.242-3.255-6.602-0.876C25.286,12.977,27.401,13.258,29.516,13.539z M31.857,10.341
		c1.282,3.033,2.854,4.569,4.317,4.255C35.29,12.74,33.983,11.419,31.857,10.341z M81.028,34.886
		c-0.094-0.146-0.189-0.292-0.283-0.438c-0.664,0.076-1.762-0.045-1.904,0.269c-0.336,0.735-0.351,1.697-0.239,2.534
		c0.108,0.813,0.73,0.723,1.099,0.147C80.209,36.604,80.591,35.728,81.028,34.886z M70.545,29.848c1.824,0.698,2.8,0.213,2.74-1.513
		C72.336,28.86,71.446,29.351,70.545,29.848z M92.856,29.184c-0.363-0.854,0.162-2.153-1.268-2.516
		C91.076,27.865,91.371,28.512,92.856,29.184z"/>
	<path fill-rule="evenodd" clip-rule="evenodd" fill="#FFFFFF" d="M20.303,31.692c-0.133-1.465-0.166-2.885-0.406-4.268
		c-0.668-3.82-1.455-7.62-2.094-11.444c-0.068-0.408,0.428-1.064,0.838-1.37c2.166-1.617,4.324-0.472,6.447,0.177
		c2.159,0.66,4.277,1.449,6.432,2.124c1.363,0.427,1.771,1.573,2.006,2.713c0.595,2.89-0.484,5.454-2.113,7.703
		c-0.601,0.831-1.902,1.182-2.92,1.678C25.783,30.326,22.965,31.324,20.303,31.692z"/>
	<path fill-rule="evenodd" clip-rule="evenodd" fill="#FFFFFF" d="M64.747,9.089c-0.594,0.6-0.881,1.072-1.3,1.285
		c-3.63,1.838-7.272,3.653-10.938,5.418c-1.111,0.533-2.646-0.485-2.674-1.763c-0.029-1.353,0.123-2.708,0.152-4.063
		c0.018-0.819,0.424-0.866,1.129-0.843c3.902,0.13,7.808,0.203,11.713,0.267C63.336,9.398,63.846,9.236,64.747,9.089z"/>
	<path fill-rule="evenodd" clip-rule="evenodd" fill="#FFFFFF" d="M88.418,16.688c0.199,0.364,0.447,0.709,0.592,1.094
		c0.665,1.763,1.241,3.562,1.973,5.296c0.341,0.807,0.137,1.272-0.596,1.381c-1.393,0.206-2.806,0.296-4.213,0.328
		c-0.157,0.004-0.546-0.742-0.462-1.037c0.671-2.361,1.431-4.698,2.164-7.042C88.057,16.701,88.237,16.695,88.418,16.688z"/>
	<path fill-rule="evenodd" clip-rule="evenodd" fill="#FFFFFF" d="M83.047,23.682c-0.788-0.243-1.513-1.286-1.079-2.237
		c1.329-2.914,2.806-5.761,4.232-8.631c0.032-0.063,0.147-0.087,0.259-0.147c0.969,0.337,0.912,1.095,0.605,1.816
		C85.754,17.552,84.398,20.602,83.047,23.682z"/>
	<path fill-rule="evenodd" clip-rule="evenodd" fill="#FFFFFF" d="M22.84,8.672c-1.844,0.952-3.459,1.785-5.198,2.683
		c0.144-1.423,0.263-2.588,0.378-3.754c0.094-0.95,0.617-1.296,1.457-0.871C20.53,7.262,21.528,7.906,22.84,8.672z"/>
	<path fill-rule="evenodd" clip-rule="evenodd" fill="#FFFFFF" d="M36.436,18.917c2.182,0.199,2.484,2.044,2.34,3.654
		c-0.094,1.052-1.75,2.063-2.694,1.926C36.201,22.625,36.319,20.77,36.436,18.917z"/>
	<path fill-rule="evenodd" clip-rule="evenodd" fill="#FFFFFF" d="M45.859,8.923c-0.472,1.174-0.854,2.208-1.312,3.209
		c-0.125,0.275-0.498,0.65-0.713,0.623c-0.328-0.041-0.699-0.335-0.902-0.626c-0.186-0.269-0.205-0.672-0.244-1.021
		c-0.086-0.787-0.477-2.032-0.142-2.281C43.502,8.115,44.719,8.402,45.859,8.923z"/>
	<path fill-rule="evenodd" clip-rule="evenodd" fill="#FFFFFF" d="M29.516,13.539c-2.115-0.28-4.23-0.562-6.602-0.876
		C26.274,10.284,26.399,10.303,29.516,13.539z"/>
	<path fill-rule="evenodd" clip-rule="evenodd" fill="#FFFFFF" d="M31.857,10.341c2.126,1.078,3.433,2.398,4.317,4.255
		C34.71,14.911,33.139,13.375,31.857,10.341z"/>
	<path fill-rule="evenodd" clip-rule="evenodd" fill="#FFFFFF" d="M81.028,34.886c-0.437,0.842-0.818,1.718-1.328,2.513
		c-0.368,0.575-0.99,0.666-1.099-0.147c-0.111-0.837-0.097-1.799,0.239-2.534c0.143-0.313,1.24-0.192,1.904-0.269
		C80.838,34.594,80.934,34.741,81.028,34.886z"/>
	<path fill-rule="evenodd" clip-rule="evenodd" fill="#FFFFFF" d="M70.545,29.848c0.9-0.497,1.791-0.988,2.74-1.513
		C73.345,30.061,72.37,30.546,70.545,29.848z"/>
	<path fill-rule="evenodd" clip-rule="evenodd" fill="#FFFFFF" d="M92.856,29.184c-1.485-0.672-1.78-1.319-1.268-2.516
		C93.018,27.031,92.493,28.331,92.856,29.184z"/>
</g>
</svg>
