<?xml version="1.0" encoding="utf-8"?>
<!-- Generator: Adobe Illustrator 16.0.0, SVG Export Plug-In . SVG Version: 6.00 Build 0)  -->
<!DOCTYPE svg PUBLIC "-//W3C//DTD SVG 1.1//EN" "http://www.w3.org/Graphics/SVG/1.1/DTD/svg11.dtd">
<svg version="1.1" id="Layer_1" xmlns="http://www.w3.org/2000/svg" xmlns:xlink="http://www.w3.org/1999/xlink" x="0px" y="0px"
	 width="496.129px" height="78.25px" viewBox="0 0 496.129 78.25" enable-background="new 0 0 496.129 78.25" xml:space="preserve">
<g>
	<path fill-rule="evenodd" clip-rule="evenodd" d="M288.7,76.665c-0.172-0.344-0.443-0.679-0.506-1.049
		c-0.381-2.274-0.833-4.548-1.043-6.84c-0.378-4.115-0.602-8.244-0.883-12.368c-0.043-0.619-0.07-1.241-0.051-1.86
		c0.168-5.05,0.349-10.099,0.53-15.311c-0.358-0.039-0.87-0.239-1.287-0.117c-2.463,0.723-4.911,1.494-7.345,2.309
		c-0.641,0.215-0.718,0.739-0.709,1.474c0.039,2.887,0.076,5.796-0.243,8.657c-0.149,1.336-1.094,2.591-1.712,3.864
		c-1.561,3.209-4.252,5.103-7.462,6.41c-0.37,0.151-0.666,0.559-0.923,0.903c-1.502,2.021-2.822,4.21-4.521,6.046
		c-1.443,1.558-3.063,3.036-5.375,3.482c-1.729,0.333-3.394,1.018-5.073,1.588c-1.62,0.551-5.225-0.2-5.738-1.415
		c-1.369-3.241-2.634-6.528-1.737-10.18c0.529-2.152,1.175-4.3,1.426-6.489c0.176-1.533-0.239-3.133-0.368-4.705
		c-0.153-1.845-0.521-3.712-0.368-5.534c0.244-2.912,0.931-5.785,1.248-8.695c0.146-1.348-0.031-2.76-0.255-4.111
		c-0.448-2.702,0.198-5.165,1.717-7.316c0.649-0.921,1.87-1.455,2.871-2.102c0.39-0.25,3.685,1.071,3.888,1.517
		c0.145,0.315,0.268,0.674,0.273,1.016c0.051,3.05-0.626,5.951-1.615,8.831c-0.762,2.221-1.41,4.524-1.706,6.843
		c-0.148,1.162,0.524,2.467,0.962,3.658c0.67,1.825,1.328,3.676,2.227,5.392c1.268,2.421,2.637,4.805,4.176,7.059
		c1.167,1.711,5.242,1.143,5.975-0.85c0.76-2.063,1.475-4.247,1.608-6.416c0.294-4.748,0.196-9.52,0.284-14.281
		c0.039-2.08,0.14-4.159,0.213-6.238c0.143-0.081,0.285-0.163,0.428-0.244c-0.657-0.104-1.313-0.22-1.974-0.312
		c-1.001-0.142-2.107-0.043-2.982-0.448c-1.615-0.748-1.864-2.794-0.307-3.949c1.935-1.435,4.103-2.635,6.319-3.595
		c3.414-1.479,6.947-2.68,10.443-3.967c0.563-0.208,1.27-0.496,1.77-0.326c2.615,0.888,5.117,0.073,7.646-0.344
		c2.89-0.477,5.767-1.014,8.656-1.481c2.848-0.463,5.729-0.749,8.546-1.35c1.618-0.346,3.131-1.175,4.701-1.758
		c0.953-0.354,1.913-0.714,2.896-0.971c4.895-1.278,9.788-2.558,14.704-3.75c0.987-0.24,2.091-0.253,3.101-0.106
		c1.089,0.159,2.119,0.638,2.618,1.791c0.437,1.004,1.235,1.225,2.277,1.135c4.03-0.342,8.073-0.554,12.097-0.958
		c2.776-0.278,5.53-0.776,8.289-1.207c1.056-0.165,2.09-0.25,2.813,0.697c0.506,0.662,0.631,1.393-0.314,1.861
		c-2.91,1.439-6.014,2.229-9.178,2.881c-1.27,0.262-2.469,0.864-3.699,1.312c0.008,0.153,0.016,0.307,0.023,0.459
		c0.743,0.13,1.493,0.229,2.225,0.402c0.342,0.081,0.649,0.305,0.971,0.465c-0.26,0.302-0.465,0.705-0.791,0.888
		c-0.734,0.409-1.505,0.781-2.305,1.03c-0.768,0.24-1.002,0.634-0.773,1.379c0.58,1.905-0.03,3.334-1.631,4.498
		c-0.324,0.236-0.527,1.244-0.309,1.527c1.488,1.925,1.344,4.027,0.919,6.197c-0.103,0.521-0.17,1.058-0.336,1.559
		c-0.384,1.167,0.114,1.931,0.998,2.634c3.059,2.437,3.44,5.847,3.239,9.398c-0.042,0.747-0.396,1.627-0.903,2.168
		c-1.012,1.079-1.351,2.288-1.171,3.662c0.623,4.779-1.985,7.958-5.375,10.648c-2.865,2.275-6.117,3.875-9.653,4.923
		c-2.321,0.687-4.574,1.604-6.87,2.385c-3.494,1.187-7.096,1.728-10.752,1.208c-2.439-0.347-4.857-0.954-7.225-1.651
		c-1.766-0.519-3.274-3.184-3.402-5.084c-0.248-3.692,2.842-5.318,5.855-6.171c4.926-1.396,9.849-2.775,14.133-5.762
		c1.798-1.253,3.705-2.35,5.514-3.589c0.421-0.289,0.922-0.899,0.875-1.303c-0.045-0.39-0.702-0.791-1.172-1.035
		c-2.385-1.245-4.912-2.258-7.168-3.698c-2.549-1.626-3.372-4.332-3.352-7.243c0.014-1.904,0.373-3.734,1.422-5.436
		c1.281-2.08,0.899-2.576-1.369-3.428c-1.238-0.464-1.947-0.122-2.985,0.465c-2.962,1.673-6.044,3.134-9.102,4.635
		c-2.179,1.071-4.38,2.102-6.597,3.094c-1.572,0.705-3.186,1.319-4.783,1.968c-1.092,0.442-1.684,1.005-1.725,2.422
		c-0.152,5.428-0.219,10.892-0.946,16.257c-0.485,3.579,0.168,6.856,0.687,10.278c0.266,1.759-0.378,3.642-0.496,5.476
		c-0.074,1.171-0.066,2.377,0.131,3.527c0.313,1.819,0.297,1.951-1.5,2.349C289.811,76.362,289.303,76.509,288.7,76.665z
		 M340.254,52.311c-2.078,0.67-3.797,1.253-5.533,1.777c-2.58,0.778-5.162,1.543-7.757,2.262c-2.173,0.603-4.348,1.228-6.556,1.665
		c-2.539,0.502-4.787,1.527-6.786,3.14c-1.334,1.076-1.198,2.356,0.376,3.069c0.676,0.306,1.43,0.473,2.164,0.612
		c3.809,0.729,7.6,0.455,11.38-0.258c0.604-0.113,1.323,0.038,1.814-0.24c2.034-1.154,4.132-2.261,5.962-3.698
		c2.204-1.734,4.088-3.845,4.862-6.676C340.307,53.508,340.231,52.998,340.254,52.311z M332.685,42.799
		c1.536-0.001,2.792-0.477,3.807-1.534c1.19-1.241,2.362-2.501,3.495-3.795c0.781-0.896,0.633-1.914-0.465-2.394
		c-4.898-2.146-9.824-4.229-14.76-6.287c-0.383-0.16-1.141-0.15-1.336,0.093c-1.07,1.327-2.24,2.562-2.21,4.537
		c0.054,3.462,2.181,5.68,4.699,7.246C327.86,41.876,330.407,42.124,332.685,42.799z M304.498,17.414
		c-0.026,0.143-0.052,0.286-0.079,0.429c0.564,0.13,1.125,0.289,1.693,0.385c0.918,0.154,1.87,0.164,2.755,0.421
		c1.21,0.352,1.771,1.877,0.908,2.329c-1.051,0.552-2.245,0.935-3.419,1.12c-1.08,0.172-2.217-0.039-3.328-0.039
		c-1.774,0-3.428,0.4-4.857,1.533c-2.803,2.224-4.41,5.272-5.788,8.459c-0.472,1.092,0.073,1.745,1.148,1.351
		c3.937-1.447,7.896-2.867,11.729-4.563c2.402-1.063,4.571-2.646,6.89-3.913c1.853-1.012,1.848-0.949,1.479-2.964
		c-0.145-0.783-0.249-1.635-0.09-2.396c0.239-1.132,0.729-2.209,1.143-3.402C310.979,15.383,307.704,16.128,304.498,17.414z
		 M343.012,26.818c0.045-0.873-0.783-1.918-1.952-2.367c-0.372-0.143-0.858-0.524-0.917-0.86c-0.271-1.574-2.643-3.25-4.125-2.723
		c-1.983,0.705-4.012,1.359-5.864,2.334c-1.464,0.77-2.73,1.943-4.011,3.025c-0.788,0.665-0.805,1.338,0.336,1.763
		c2.217,0.826,4.408,1.729,6.632,2.535c2.532,0.92,5.145,1.64,7.608,2.708c1.064,0.462,1.458,0.044,1.742-0.639
		c0.389-0.929,0.676-1.936,0.785-2.933C343.338,28.815,343.118,27.934,343.012,26.818z M283.86,36.534
		c2.908-0.335,3.5-0.735,3.607-2.484c0.151-2.481,0.3-4.964,0.351-7.448c0.032-1.6-0.794-3.122-3.019-2.41
		c-2.816,0.901-5.715,1.548-8.506,2.514c-1.811,0.627-2.525,1.088-2.058,2.805c0.533,1.957,1.144,3.896,1.778,5.823
		c0.348,1.053,1.108,1.313,2.078,0.824c1.22-0.613,2.434-1.237,3.66-1.833c0.935-0.453,1.861,0.1,1.93,1.106
		C283.706,35.77,283.79,36.107,283.86,36.534z M261.747,62.697c-1.694-0.413-3.011-0.775-4.346-1.049
		c-2.523-0.517-5.092-0.88-7.224-2.51c-0.731-0.561-1.456-1.129-2.244-1.74c-0.111,0.229-0.241,0.375-0.248,0.527
		c-0.115,2.332-0.497,4.695-0.252,6.991c0.426,4.014,5.352,6.548,8.601,4.187c1.282-0.933,2.489-2.008,3.564-3.172
		C260.401,65.064,260.934,63.948,261.747,62.697z M272.219,54.12c0.237,0.194,0.475,0.388,0.713,0.581
		c0.281-0.491,0.607-0.964,0.838-1.478c0.652-1.454,1.439-2.878,1.856-4.4c0.679-2.483-0.103-4.786-1.303-6.993
		c-0.313-0.577-0.574-1.393-0.417-1.98c0.563-2.089-0.201-3.955-0.739-5.865c-0.118-0.421-0.44-0.785-0.824-1.439
		C270.022,39.985,272.571,47.05,272.219,54.12z M251.03,39.076c0.31-0.538,0.65-0.92,0.766-1.362
		c0.854-3.287,1.733-6.572,2.43-9.895c0.15-0.713-0.256-1.695-0.724-2.311c-0.183-0.239-1.298,0.075-1.898,0.341
		c-1.659,0.734-2.065,2.478-2.439,3.924c-0.361,1.403-0.533,3.15,0.729,4.384c0.518,0.505,0.68,0.888,0.547,1.591
		C250.242,36.802,249.858,37.941,251.03,39.076z M314.247,20.083c-0.067,1.523,1.301,2.686,2.45,1.981
		c2.405-1.476,4.765-3.032,7.077-4.647c0.367-0.256,0.617-1.029,0.536-1.495c-0.135-0.771-0.819-0.947-1.577-0.763
		c-1.768,0.428-3.536,0.852-5.311,1.245C316.157,16.684,314.305,18.795,314.247,20.083z M338.61,43.886
		c1.205,1.284,2.84,1.754,4.567,1.97c0.297,0.037,0.691-0.162,0.942-0.371c2.193-1.817,1.951-5.694-0.447-7.233
		c-0.724-0.465-1.251-0.536-1.783,0.456C340.954,40.446,339.786,42.058,338.61,43.886z M318.229,24.521
		c1.828,1.437,2.567,1.493,4.093,0.427c0.51-0.355,0.964-0.792,1.465-1.159c2.269-1.66,4.55-3.302,6.814-4.967
		c0.332-0.243,0.601-0.574,1.087-1.049c-1.322-0.445-2.382-0.952-3.492-0.329c-0.952,0.533-1.805,1.239-2.72,1.846
		c-1.881,1.247-3.788,2.455-5.651,3.731C319.26,23.407,318.811,23.964,318.229,24.521z M248.932,51.585
		c0.129,0.427,0.289,1.063,0.512,1.679c0.604,1.667,1.941,2.721,3.299,3.705c0.509,0.37,1.23,0.447,1.855,0.658
		c-0.064-0.622,0.011-1.303-0.218-1.857c-1.14-2.766-2.351-5.5-3.562-8.234c-0.109-0.246-0.398-0.41-0.605-0.612
		c-0.207,0.249-0.539,0.472-0.598,0.752C249.358,48.888,249.179,50.12,248.932,51.585z M338.788,49.232
		c-1.902-1.677-4.326-2.124-5.975-1.056c-2.006,1.299-3.889,2.782-5.815,4.198c-0.073,0.054-0.06,0.226-0.086,0.342
		C331.229,52.886,334.717,50.535,338.788,49.232z M314.696,67.705c0.031-0.127,0.063-0.254,0.093-0.382
		c-0.446-0.278-0.859-0.696-1.345-0.813c-2.004-0.484-3.154-1.619-3.347-3.741c-0.03-0.328-1.01-0.878-1.034-0.853
		c-0.771,0.844-1.788,1.643-2.125,2.661c-0.506,1.531-0.096,2.093,1.488,2.533c1.568,0.437,3.197,0.673,4.813,0.901
		C313.702,68.078,314.209,67.816,314.696,67.705z M342.176,13.182c-1.172-1.042-7.901-0.257-9.676,1.1
		C335.858,15,339.124,15.183,342.176,13.182z M275.25,23.894c-4.585-0.569-7.696,0.084-8.911,1.851
		C269.655,26.413,272.274,24.216,275.25,23.894z M329.444,10.675c-0.019-0.159-0.036-0.318-0.055-0.478
		c-2.793,0.435-5.59,0.871-8.68,1.352C321.56,12.241,327.764,11.385,329.444,10.675z M316.042,14.017
		c1.114,0.718,3.32-0.136,4.662-1.682C318.741,11.743,317.432,12.771,316.042,14.017z M248.608,47.351
		c0.146-1.474,1.407-2.85,0.153-4.386C248.71,44.427,248.659,45.889,248.608,47.351z"/>
	<path fill-rule="evenodd" clip-rule="evenodd" d="M397.436,11.625c-2.428-1.23-4.822-2.103-7.471-1.793
		c-0.652,0.076-1.313,0.239-1.916,0.491c-0.245,0.103-0.502,0.567-0.469,0.831c0.027,0.216,0.459,0.493,0.746,0.543
		c1.535,0.264,3.086,0.443,4.623,0.695c0.951,0.157,1.886,0.413,2.836,0.581c0.477,0.084,1.055,0.251,1.443,0.071
		c1.494-0.7,2.666,0.116,3.971,0.584c1.961,0.702,3.977,1.257,5.984,1.811c3.246,0.894,6.134,2.466,8.927,4.318
		c0.771,0.512,2.091,0.657,3.007,0.411c4.516-1.215,9.031-1.413,13.582-0.402c1.433,0.318,2.452,1.251,3.178,2.604
		c1.398,2.605,0.594,5.291,0.373,7.923c-0.173,2.065-0.709,4.114-1.213,6.138c-0.785,3.155-2.205,6.025-4.016,8.735
		c-2.222,3.321-4.871,6.236-7.674,9.074c-4.385,4.444-9.693,6.984-15.636,8.553c-3.074,0.812-6.009,2.141-9.069,3.019
		c-3.916,1.122-7.874,2.122-11.853,2.991c-2.896,0.632-5.857,0.976-8.794,1.425c-1.102,0.168-1.467-0.618-1.815-1.458
		c-0.185-0.442-0.429-0.979-0.806-1.199c-0.943-0.551-1.978-0.944-3.108-1.462c-0.646,1.989-2.253,1.472-3.774,1.211
		c-1.088-0.188-1.455-1.014-1.169-1.878c0.816-2.469,0.384-4.919-0.356-7.194c-1.742-5.349-1.912-10.877-2.391-16.383
		c-0.035-0.423-0.16-0.839-0.245-1.259c-0.128-0.028-0.257-0.057-0.386-0.084c-0.363,0.981-0.937,1.938-1.054,2.948
		c-0.544,4.682-1.032,9.375-0.484,14.099c0.216,1.859,0.544,2.135,2.352,2.457c0.491,0.087,1.263,0.677,1.253,1.017
		c-0.018,0.534-0.486,1.383-0.939,1.521c-2.782,0.849-4.496,0.521-5.424-2.634c-0.911-3.102-0.619-6.273-0.432-9.409
		c0.193-3.27,0.486-6.562,1.107-9.771c0.488-2.525,1.523-4.946,2.346-7.403c0.77-2.297,2.012-4.297,1.721-7.061
		c-0.473-4.509,1.736-7.954,5.646-10.484c3.368-2.18,6.822-4.079,10.549-5.553c5.24-2.07,10.505-2.365,15.838-0.52
		C397.081,9.954,397.967,10.357,397.436,11.625z M391.647,57.063c-0.284,2.857-0.052,2.838,2.334,2.336
		c0.043-0.009,0.085-0.028,0.127-0.045c2.365-0.951,4.733-1.897,7.098-2.854c1.018-0.412,2.053-0.788,3.027-1.285
		c1.603-0.814,3.082-1.946,4.758-2.531c3.645-1.272,5.514-4.429,7.95-6.994c0.098-0.103,0.038-0.342,0.083-0.509
		c0.285-1.023,0.448-2.107,0.898-3.056c1.068-2.254,0.646-4.491-0.502-6.371c-1.904-3.118-4.162-6.027-6.363-8.954
		c-1.123-1.49-2.227-1.644-3.955-1.12c-2.361,0.716-4.76,1.316-7.135,1.989c-2.948,0.835-5.889,1.694-8.83,2.543
		c-0.871,0.251-1.125,0.729-0.967,1.687c0.288,1.748,0.433,3.524,0.53,5.296c0.215,3.901,0.356,7.807,0.538,11.709
		C391.372,51.748,391.522,54.59,391.647,57.063z M384.561,47.672c0.058,0,0.115,0,0.173,0c0.108-3.11,0.206-6.222,0.33-9.332
		c0.072-1.818,0.215-3.635,0.269-5.454c0.021-0.691-0.205-1.175-1.131-1.019c-3.107,0.524-6.238,0.92-9.334,1.505
		c-0.65,0.123-1.587,0.75-1.717,1.304c-1.286,5.487-1.923,11.045-1.229,16.687c0.493,4.007,1.252,7.996,0.553,12.062
		c-0.146,0.851,0.324,1.153,1.135,0.876c0.332-0.113,0.643-0.32,0.983-0.378c2.608-0.443,5.226-0.844,7.835-1.291
		c2.309-0.396,2.229-0.414,2.189-2.691C384.545,55.852,384.575,51.762,384.561,47.672z M374.299,25.88
		c-0.119,0.011-0.236,0.023-0.355,0.035c-0.041,1.201-0.02,2.408-0.146,3.601c-0.105,1.006,0.501,1.184,1.202,1.139
		c1.221-0.079,2.444-0.231,3.651-0.439c2.091-0.36,4.175-0.762,6.251-1.2c0.791-0.167,1.25-0.553,1.16-1.579
		c-0.133-1.543,0.063-3.112,0.023-4.668c-0.086-3.378,0.176-6.78-1.166-10.045c-0.425-1.036-0.897-1.38-1.855-1.058
		c-1.41,0.474-2.76,1.178-4.196,1.511c-2.46,0.568-4.414,1.971-6.341,3.451c-0.85,0.651-0.98,1.403-0.117,2.244
		c0.491,0.479,1.074,1.063,1.196,1.682C373.954,22.305,374.083,24.101,374.299,25.88z M424.512,48.913
		c0.1,0.041,0.2,0.082,0.299,0.123c0.604-0.633,1.27-1.218,1.797-1.907c1.524-1.992,3.305-3.874,4.396-6.09
		c1.132-2.301,1.575-4.942,2.322-7.434c0.749-2.498,0.828-5.04,0.505-7.608c-0.203-1.608-0.921-2.871-2.498-3.452
		c-2.901-1.068-5.836-0.662-8.795-0.207c-1.279,0.196-1.147,0.772-0.652,1.5c0.572,0.837,1.374,1.522,1.901,2.381
		c3.896,6.34,4.775,12.961,1.757,19.924C425.152,47.044,424.853,47.988,424.512,48.913z M389.049,23.797
		c0.024,0.45-0.004,1.263,0.133,2.047c0.271,1.551,1.063,2.019,2.559,1.628c1.885-0.492,3.777-0.96,5.656-1.475
		c2.846-0.777,5.684-1.579,8.52-2.386c0.918-0.262,1.215-1.153,0.604-2.032c-0.969-1.389-2.257-2.516-3.963-2.684
		c-3.068-0.301-6.16-0.528-9.241-0.513c-3.673,0.019-3.88,0.995-4.229,4.396C389.063,23,389.069,23.224,389.049,23.797z
		 M423.118,42.981c1.677-0.909,1.75-2.287,1.671-3.567c-0.313-5.049-1.978-9.595-5.442-13.358c-0.564-0.612-1.444-0.933-2.179-1.387
		c-0.194,0.449-0.212,0.603-0.144,0.691c2.992,3.976,4.541,8.456,4.92,13.411C422.045,40.1,422.658,41.39,423.118,42.981z
		 M400.911,60.538c1.087-0.136,1.943-0.114,2.715-0.361c3.273-1.048,6.387-2.434,9.068-4.656c1.324-1.097,2.566-2.397,4.072-3.151
		c2.389-1.193,3.34-3.189,3.875-5.545c0.076-0.336-0.21-1.042-0.45-1.104c-0.571-0.148-1.157,0.027-1.086,0.885
		c0.021,0.244-0.075,0.526-0.194,0.751c-2.18,4.09-5.49,6.992-9.612,8.995c-1.184,0.576-2.491,0.896-3.687,1.453
		c-1.261,0.588-2.459,1.31-3.674,1.993C401.596,59.989,401.297,60.255,400.911,60.538z M387.92,58.594
		c0.22,0.013,0.438,0.025,0.658,0.038c1.16-6.515,0.587-13.037-0.224-19.561C387.45,45.572,387.03,52.076,387.92,58.594z
		 M372.035,25.365c0.095-0.03,0.19-0.061,0.284-0.092c-0.295-0.879-0.59-1.759-0.882-2.638c-0.591,0.407-1.182,0.814-1.771,1.223
		c-0.037,0.024-0.101,0.049-0.104,0.078c-0.093,0.76-0.487,1.695-0.184,2.235c0.353,0.626,1.32,0.905,2.021,1.335
		c0.211-0.669,0.422-1.338,0.63-2.008C372.042,25.458,372.034,25.41,372.035,25.365z M387.032,14.494
		c0.234,2.738,0.559,3.001,2.743,2.5c0.81-0.185,1.616-0.398,2.396-0.677c0.276-0.099,0.47-0.427,0.924-0.866
		C390.878,15.101,389.037,14.811,387.032,14.494z"/>
	<path fill-rule="evenodd" clip-rule="evenodd" d="M448.73,49.55c0.981,1.829,2.377,2.119,3.994,1.872
		c2.495-0.381,4.985-0.806,7.487-1.148c2.55-0.349,5.104-0.7,7.67-0.908c6.059-0.493,12.122-0.933,18.189-1.324
		c1.639-0.105,2.534,0.763,2.329,1.987c-0.049,0.293-0.155,0.633-0.354,0.832c-1.911,1.937-3.624,3.954-6.661,4.47
		c-3.964,0.673-7.797,2.105-11.755,2.836c-5.8,1.071-11.653,1.845-17.494,2.674c-2.539,0.36-5.101,0.72-7.658,0.761
		c-2.458,0.039-3.026-1.011-2.15-3.269c0.112-0.29,0.232-0.579,0.375-0.855c0.821-1.601,0.462-2.241-1.356-2.383
		c-0.971-0.076-1.945-0.115-2.917-0.199c-1.19-0.103-2.176-0.521-2.479-1.826c-0.319-1.386,0.337-2.44,1.458-3.011
		c1.652-0.842,3.402-1.524,5.162-2.119c2.072-0.7,2.289-0.916,2.42-3.032c0.099-1.586,0.385-3.163,0.445-4.749
		c0.043-1.117-0.217-1.996-1.75-2.109c-1.605-0.117-2.191-1.916-1.24-3.541c0.362-0.621,0.947-1.176,1.553-1.575
		c1.07-0.708,1.395-2.504,0.501-3.438c-1.256-1.311-2.527-2.606-3.78-3.92c-1.104-1.156-1.169-2.444-0.299-3.865
		c0.852-1.394,1.786-2.762,2.413-4.255c0.443-1.058,0.202-2.388,1.276-3.225c0.117-0.09,0.162-0.319,0.174-0.488
		c0.129-1.853,0.201-3.71,0.381-5.557c0.084-0.857,0.32-1.71,0.58-2.537c0.291-0.934,0.896-0.7,1.426-0.227
		c0.293,0.263,0.576,0.606,0.701,0.97c0.771,2.248,2.563,3.998,2.932,6.484c0.189,1.281,0.993,2.497,1.666,3.657
		c0.111,0.193,1.099,0.125,1.475-0.128c0.873-0.591,1.607-1.385,2.424-2.066c3.613-3.017,7.713-5.214,12.16-6.636
		c3.98-1.272,8.045-2.351,12.14-3.179c3.331-0.675,6.753-0.967,10.151-1.197c1.409-0.097,2.886,0.309,4.282,0.678
		c0.847,0.224,1.693,0.868,1.501,1.896c-0.127,0.683-0.562,1.512-1.118,1.868c-1.087,0.695-2.319,1.222-3.557,1.609
		c-3.786,1.189-7.581,2.354-11.412,3.384c-3.119,0.838-6.31,1.411-9.44,2.21c-2.273,0.579-4.498,1.337-6.748,2.006
		c-2.672,0.794-5.345,1.583-8.02,2.364c-1.99,0.581-2.838,2.442-4.205,3.722c-0.516,0.481-0.977,1.024-1.51,1.483
		c-0.785,0.679-1.398,2.835-0.777,3.65c0.43,0.563,1.227,1.05,1.927,1.166c3.439,0.569,6.886,0.477,10.349-0.019
		c1.784-0.255,3.623-0.119,5.432-0.222c1.855-0.105,3.702-0.335,5.557-0.421c1.908-0.089,3.826-0.152,5.73-0.064
		c0.965,0.044,2.078,0.071,2.506,1.352c0.436,1.304,0.027,2.123-1.329,2.213c-2.88,0.19-5.763,0.321-8.646,0.471
		c-4.62,0.24-9.243,0.436-13.857,0.742c-1.202,0.079-2.412,0.312-3.129,1.628c-0.297,0.543-1.103,0.846-1.726,1.161
		c-0.511,0.259-1.095,0.366-1.642,0.557c-1.998,0.698-2.492,2.774-0.951,4.227c0.336,0.317,0.954,0.5,1.428,0.475
		c4.121-0.221,8.236-0.661,12.357-0.731c5.732-0.098,11.473,0.029,17.205,0.162c0.917,0.021,2.175-0.038,2.496,1.298
		c0.081,0.347,0.037,0.966-0.176,1.101c-0.879,0.555-1.803,1.239-2.785,1.395c-4.903,0.773-9.829,1.412-14.752,2.064
		c-4.919,0.653-9.848,1.245-14.764,1.929C449.918,48.765,449.344,49.245,448.73,49.55z M488.126,5.981
		C482.573,5.95,477.26,7.259,472,8.882c-4.203,1.298-8.293,2.852-11.941,5.367c-0.448,0.309-0.701,0.901-1.046,1.361
		c0.536,0.109,1.067,0.244,1.61,0.314c0.205,0.027,0.432-0.087,0.645-0.146c1.581-0.429,3.157-0.873,4.742-1.287
		c2.945-0.77,5.916-1.452,8.84-2.298c4.832-1.397,9.635-2.894,14.445-4.36c0.38-0.115,0.779-0.271,1.074-0.521
		c0.244-0.206,0.348-0.578,0.511-0.876c-0.296-0.131-0.581-0.338-0.89-0.376C489.375,5.986,488.749,6.002,488.126,5.981z
		 M465.777,55.715c0.021-0.216,0.044-0.434,0.066-0.65c-0.951-0.141-1.901-0.382-2.854-0.401c-2.526-0.054-5.07,0.168-7.578-0.058
		c-2.354-0.211-4.656-0.271-6.984,0.147c-1.305,0.235-2.535,1.631-2.184,2.979c0.332,1.282,1.523,0.561,2.361,0.629
		c0.044,0.004,0.088-0.014,0.133-0.02c3.689-0.487,7.387-0.934,11.068-1.478C461.807,56.567,463.786,56.104,465.777,55.715z
		 M444.542,51.37c-1.313-1.206-2.393-0.532-3.453-0.046c-0.166,0.076-0.313,0.447-0.275,0.643c0.033,0.163,0.354,0.381,0.545,0.378
		c0.708-0.01,1.432-0.025,2.115-0.192C443.853,52.058,444.161,51.662,444.542,51.37z"/>
	<path fill-rule="evenodd" clip-rule="evenodd" d="M107.77,42.222c-1.679-0.626-2.028-1.621-1.162-3.099
		c0.619-1.057,0.105-2.111-1.16-2.298c-0.901-0.134-1.084-0.641-1.114-1.48c-0.052-1.447-0.141-2.919-0.468-4.322
		c-0.195-0.842-0.246-1.418,0.462-1.973c0.778-0.61,1.688-0.951,2.418-0.228c0.784,0.776,1.39,1.772,1.911,2.759
		c0.439,0.829,0.644,1.781,1.218,2.615c0.013-0.381-0.012-0.768,0.051-1.141c0.059-0.356,0.208-0.699,0.318-1.048
		c0.294,0.259,0.609,0.5,0.873,0.787c0.132,0.143,0.172,0.369,0.437,0.517c-0.174-1.185-0.32-2.374-0.545-3.55
		c-0.047-0.247-0.407-0.639-0.582-0.619c-0.398,0.047-0.771,0.309-1.153,0.482c0.06,0.152,0.12,0.304,0.18,0.455
		c-0.212-0.504-0.393-1.024-0.645-1.508c-0.427-0.821-0.842-1.66-1.372-2.414c-0.43-0.612-0.574-1.213,0.043-1.631
		c2.179-1.475,2.333-3.644,2.308-5.966c-0.005-0.455,0.526-1.153,0.964-1.309c0.416-0.148,1.176,0.122,1.526,0.47
		c0.509,0.504,0.839,1.218,1.146,1.888c0.374,0.816,0.955,0.814,1.658,0.585c2.725-0.892,5.418-1.903,8.185-2.643
		c3.751-1.003,7.551-1.832,11.345-2.667c3.384-0.744,6.762-1.631,10.192-2.027c4.219-0.486,8.487-0.574,12.738-0.725
		c0.791-0.028,1.659,0.355,2.388,0.743c1.046,0.556,1.265,1.995,0.466,2.86c-0.655,0.709-1.35,1.453-2.177,1.919
		c-3.001,1.69-6.066,3.268-9.105,4.893c-2.292,1.226-4.568,2.481-6.877,3.674c-0.859,0.442-1.816,0.694-2.684,1.124
		c-0.678,0.337-1.256,0.875-1.934,1.215c-2.03,1.019-4.088,1.982-6.133,2.971c-0.159,0.076-0.305,0.181-0.462,0.26
		c-2.47,1.24-4.941,2.479-7.41,3.719c-0.292,0.146-0.577,0.306-1.038,0.553c0.34,0.194,0.477,0.34,0.613,0.34
		c6.979-0.01,13.96-0.045,20.939-0.035c0.668,0.001,1.435,0.112,1.981,0.452c1.027,0.64,0.891,1.455-0.005,2.227
		c-1.822,1.57-3.944,1.885-6.261,2.109c-6.45,0.627-12.875,1.5-19.309,2.299c-1.434,0.178-2.856,0.447-4.487,0.708
		c0.381,1.135,0.579,2.051,0.986,2.863c0.65,1.296,0.81,2.602,0.468,3.986c-0.234,0.948,0.204,1.563,1.167,1.527
		c5.016-0.187,10.035-0.315,15.043-0.619c2.25-0.136,4.471-0.732,6.721-0.925c1.251-0.107,2.563,0.079,3.794,0.36
		c0.436,0.1,0.877,0.834,1.001,1.354c0.062,0.261-0.519,0.801-0.915,1.027c-3.725,2.128-7.964,1.508-11.966,2.171
		c-1.137,0.188-2.318,0.11-3.456,0.294c-0.465,0.075-0.869,0.521-1.301,0.8c0.529,0.718-0.032,2.138,1.438,2.244
		c0.487,0.036,0.984,0.085,1.468,0.032c2.601-0.281,5.195-0.615,7.797-0.887c1.371-0.144,2.774-0.377,4.118-0.211
		c0.636,0.077,1.318,0.915,1.671,1.574c0.133,0.248-0.493,1.146-0.965,1.437c-3.897,2.401-8.239,3.015-12.712,2.913
		c-2.44-0.056-4.875-0.331-7.315-0.37c-1.185-0.019-2.378,0.254-3.559,0.448c-0.327,0.054-0.854,0.251-0.897,0.462
		c-0.29,1.423-1.805,1.128-2.572,1.873c-0.109,0.106-0.91-0.218-1.091-0.521c-0.436-0.729-0.841-0.823-1.713-0.698
		c-2.807,0.401-5.641,0.709-8.472,0.803c-1.704,0.057-2.125-0.692-1.74-2.325c0.214-0.906,0.587-1.78,0.741-2.694
		c0.117-0.701,0.158-1.485-0.039-2.152c-0.561-1.909-0.183-2.733,1.661-3.296c0.313-0.096,0.704-0.319,0.827-0.589
		c1.204-2.645,1.965-5.407,2.051-8.328c0.007-0.248-0.053-0.564-0.206-0.74C106.666,44.36,106.617,43.976,107.77,42.222z
		 M157.051,15.415c-0.666-0.208-1.012-0.407-1.36-0.409c-1.82-0.017-3.674-0.194-5.458,0.074
		c-5.343,0.807-10.659,1.789-15.982,2.717c-1.268,0.222-2.548,0.42-3.783,0.771c-2.513,0.714-5.008,1.499-7.495,2.302
		c-2.472,0.797-4.956,1.574-7.367,2.529c-0.657,0.261-1.562,1.165-1.522,1.714c0.243,3.401,0.75,6.782,1.111,10.176
		c0.109,1.034,0.678,1.037,1.376,0.766c2.017-0.787,4.036-1.572,6.016-2.446c2.585-1.142,5.164-2.308,7.688-3.574
		c2.37-1.189,4.657-2.542,6.999-3.788c2.654-1.413,5.327-2.789,7.993-4.182c2.032-1.061,4.09-2.074,6.088-3.196
		C153.184,17.839,154.948,16.696,157.051,15.415z M107.356,62.992c1.889-0.441,3.782-0.117,5.628-1.265
		c-0.958-0.751-1.745-1.375-2.54-1.987c-1.162-0.896-2.095-0.586-2.475,0.824C107.79,61.23,107.63,61.901,107.356,62.992z
		 M111.563,45.162c-0.222,2.41-0.425,4.467-0.581,6.527c-0.014,0.174,0.246,0.477,0.437,0.538c1.264,0.402,1.788-0.105,1.54-1.394
		c-0.082-0.428,0.005-0.885-0.039-1.323C112.776,48.08,112.708,46.621,111.563,45.162z M115.517,40.946
		c1.016,1.266,2.171,0.32,3.219,0.312c1.104-0.008,2.208-0.245,3.306-0.421c1.051-0.168,2.095-0.387,3.141-0.582
		c-0.025-0.147-0.051-0.295-0.076-0.442C121.888,39.853,118.624,39.489,115.517,40.946z M117.579,58.82
		c0.066,1.545,1.018,2.045,2.978,1.646C120.552,58.788,119.664,58.276,117.579,58.82z"/>
	<path fill-rule="evenodd" clip-rule="evenodd" d="M21.55,29.269c-2.499,0.878-4.989,1.782-7.499,2.626
		c-2.933,0.987-5.87,1.968-8.84,2.829c-0.477,0.138-1.437-0.209-1.639-0.604c-0.248-0.486-0.038-1.291,0.154-1.902
		c0.44-1.402,1.601-1.32,2.841-1.54c2.388-0.424,4.714-1.247,7.029-2.016c3.542-1.177,7.084-2.366,10.567-3.704
		c2.921-1.122,5.849-2.3,8.579-3.807c0.862-0.476,1.191-2.062,1.576-3.203c0.229-0.681,0.089-1.484,0.13-2.658
		c-1.708,0.593-3.249,1.039-4.717,1.656c-4.158,1.748-8.298,3.537-12.42,5.368c-2.531,1.124-5.06,2.268-7.503,3.565
		c-1.514,0.803-2.896,1.871-4.285,2.892c-0.875,0.644-4.168,1.175-5.117,0.704c-0.116-0.058-0.307-0.145-0.31-0.224
		c-0.038-0.999-0.199-2.032,0.008-2.982c0.088-0.404,0.929-0.747,1.488-0.926c1.862-0.593,3.789-0.995,5.619-1.666
		c2.141-0.784,4.202-1.786,6.307-2.67c2.48-1.043,4.978-2.045,7.456-3.093c2.765-1.17,5.511-2.385,8.275-3.554
		c1.742-0.737,3.544-1.345,5.233-2.184c0.565-0.281,1.053-1.04,1.251-1.682c0.818-2.646,1.438-5.353,2.301-7.982
		c0.22-0.672,0.988-1.253,1.637-1.671c0.724-0.467,1.703,0.155,1.607,1.022c-0.104,0.938-0.465,1.848-0.694,2.773
		c-0.427,1.724-0.841,3.452-1.32,5.427c0.634-0.154,1.13-0.226,1.59-0.396c2.223-0.825,4.449-1.646,6.65-2.528
		c2.838-1.139,5.639-2.371,8.484-3.491c1.56-0.613,3.17-1.103,4.773-1.602c2.017-0.627,4.035-1.258,6.079-1.783
		c0.841-0.217,1.804-0.373,2.612-0.168c0.624,0.158,1.461,0.875,1.537,1.434c0.088,0.654-0.373,1.588-0.896,2.086
		c-2.478,2.36-5.37,4.144-8.433,5.657c-0.477,0.235-0.924,0.527-1.388,0.789c-1.031,0.582-1.572,1.138-0.298,2.142
		c0.814,0.642,0.556,1.646-0.445,2.101c-3.296,1.501-6.623,2.937-9.899,4.477c-0.442,0.208-0.917,0.852-0.958,1.33
		c-0.377,4.337-0.688,8.681-0.965,13.025c-0.33,5.187-0.5,10.385-0.94,15.561c-0.354,4.161-1.095,8.288-1.48,12.447
		c-0.151,1.638,0.236,3.319,0.299,4.984c0.021,0.563-0.018,1.446-0.347,1.64c-0.789,0.46-1.843,0.925-2.638,0.738
		c-0.466-0.109-0.959-1.49-0.893-2.252c0.308-3.525,0.842-7.031,1.229-10.551c0.606-5.506,1.16-11.017,1.737-16.525
		c-0.198-0.044-0.395-0.086-0.592-0.129c-0.126,0.365-0.306,0.722-0.37,1.098c-0.73,4.291-1.428,8.588-2.171,12.875
		c-0.181,1.041-0.341,2.129-0.776,3.072c-0.964,2.091-0.365,4.211-0.325,6.313c0.031,1.645-0.198,2.115-1.693,2.652
		c-0.28,0.1-0.498,0.426-0.774,0.473c-0.445,0.075-0.968,0.124-1.357-0.047c-0.238-0.104-0.386-0.635-0.405-0.982
		c-0.14-2.656-0.125-5.325-0.377-7.97c-0.33-3.479-0.992-6.927-1.259-10.407c-0.197-2.562,0.033-5.153,0.005-7.73
		c-0.003-0.327-0.394-0.912-0.646-0.935c-1.938-0.174-3.887-0.298-5.833-0.321c-2.043-0.025-4.088,0.108-6.132,0.114
		c-1.197,0.003-2.409-0.021-3.586-0.206c-0.649-0.101-1.741-0.527-1.762-0.863c-0.055-0.858,0.126-1.979,0.671-2.574
		c1.059-1.158,2.416-2.051,3.685-3.004c0.34-0.256,0.812-0.336,1.223-0.496C21.983,29.83,21.766,29.549,21.55,29.269z M66.305,3.631
		c-0.283-0.171-0.408-0.309-0.489-0.286c-1.613,0.438-3.239,0.837-4.824,1.36c-2.51,0.827-5.018,1.672-7.478,2.634
		c-4.39,1.715-8.755,3.499-13.103,5.32c-0.624,0.261-1.356,0.789-1.576,1.369c-0.384,1.017-0.479,2.164-0.564,3.267
		c-0.088,1.137,0.581,1.498,1.633,1.005c0.997-0.466,2.032-0.856,3.007-1.364c1.246-0.647,2.779-0.924,3.023-2.8
		c0.121-0.929,1.071-1.059,1.948-0.898c0.517,0.095,1.116,0.355,1.548,0.192c1.265-0.477,2.511-1.048,3.68-1.727
		c2.625-1.525,5.203-3.13,7.792-4.716C62.676,5.902,64.437,4.793,66.305,3.631z M44.468,21.234c-2.08,0.73-3.742,1.308-5.397,1.906
		c-0.141,0.052-0.257,0.23-0.339,0.376c-1.199,2.122-0.728,6.22,0.908,8.092c0.409,0.469,0.793,0.962,1.151,1.47
		c1.397,1.983,0.767,3.688-1.502,4.425c-0.529,0.171-1.041,0.768-1.301,1.297c-0.282,0.572-0.363,1.296-0.353,1.949
		c0.058,3.51,0.165,7.018,0.279,10.524c0.008,0.26,0.215,0.514,0.33,0.77c0.119-0.002,0.237-0.004,0.356-0.005
		C41.918,42.149,42.087,31.667,44.468,21.234z M34.893,34.693c-0.44-2.966-0.867-5.839-1.364-9.188
		c-2.248,1.564-4.118,2.966-6.086,4.211c-1.987,1.257-3.786,2.692-5.469,4.526C26.322,34.394,30.446,34.538,34.893,34.693z"/>
	<path fill-rule="evenodd" clip-rule="evenodd" d="M86.062,41.982c1.546-0.522,3.056-0.911,4.44-1.566
		c0.482-0.229,0.888-1.101,0.928-1.705c0.34-5.209,0.553-10.427,0.888-15.637c0.079-1.229,0.411-2.457,0.764-3.645
		c0.099-0.332,0.659-0.578,1.057-0.757c0.542-0.243,1.13-0.384,1.659-0.714c1.235,0.229,2.336,1.745,2.342,3.417
		c0.003,0.945-0.404,1.888-0.444,2.84c-0.045,1.067,0.062,2.153,0.207,3.216c0.106,0.783,0.453,1.534,0.539,2.316
		c0.033,0.304-0.357,0.655-0.554,0.984c-0.33-0.234-0.846-0.408-0.949-0.718c-0.19-0.572-0.113-1.229-0.192-1.844
		c-0.074-0.576-0.205-1.145-0.489-1.694c-1.23,3.89-1.301,7.844-1.231,12.06c0.734-0.19,1.342-0.37,1.961-0.503
		c0.817-0.176,1.648-0.467,2.462-0.434c1.31,0.054,2.019,1.719,1.017,2.523c-1.419,1.14-3.041,2.077-4.691,2.863
		c-0.955,0.455-1.585,0.749-1.69,1.982c-0.559,6.586-1.244,13.16-1.864,19.742c-0.267,2.822-1.151,4.345-5.198,4.935
		c0.494,1.938-0.226,4.034,1.031,5.899c0.271,0.401,0.278,1.218,0.048,1.655c-0.252,0.48-0.878,0.882-1.422,1.043
		c-0.257,0.075-0.936-0.429-1.026-0.774c-0.447-1.705-0.839-3.434-1.098-5.177c-0.176-1.182-0.101-2.401-0.136-3.604
		c-0.046-1.567-0.043-1.558-1.497-1.161c-0.513,0.14-1.045,0.311-1.564,0.296c-0.695-0.019-1.223-0.243-1.307-1.172
		c-0.052-0.577-0.526-1.161-0.921-1.653c-0.617-0.767-1.037-2.65-0.424-3.325c0.481-0.529,1.316-0.737,1.993-1.088
		c0.139,0.109,0.278,0.219,0.416,0.328c-0.018-0.773-0.105-1.552-0.042-2.318c0.245-2.96,0.533-5.917,0.815-8.874
		c0.127-1.336,0.039-1.457-1.211-0.882c-2.602,1.195-5.187,2.43-7.734,3.735c-1.698,0.87-1.796,2.748-2.421,4.28
		c-0.049,0.119,0.009,0.301-0.062,0.391c-1.532,1.93-1.675,4.385-2.562,6.537c-0.562,1.364-2.329,1.945-3.966,2.041
		c-0.104,2.637,1.76,4.557,4.396,4.769c0.604,0.049,1.153,0.78,1.729,1.197c-0.409,0.458-0.729,1.108-1.24,1.34
		c-2.02,0.915-3.593,0.546-4.959-1.217c-2.207-2.852-3.749-6.003-4.481-9.596c-0.767-3.762-0.551-7.516-0.43-11.288
		c0.073-2.261,0.041-4.53,0.221-6.782c0.248-3.079,0.645-6.146,1-9.216c0.09-0.78,0.298-1.548,0.375-2.329
		c0.018-0.186-0.233-0.463-0.43-0.597c-1.938-1.322-2.063-1.97-0.579-3.775c0.533-0.648,1.247-1.149,1.779-1.8
		c0.856-1.048,1.925-0.788,2.94-0.52c1.147,0.304,2.248,1.967,2.149,3.175c-0.131,1.607-0.487,3.206-0.505,4.812
		c-0.04,3.464,0.076,6.929,0.126,10.394c0.017,1.152-0.017,2.307,0.051,3.457c0.035,0.586,0.207,1.647,0.379,1.66
		c0.792,0.061,1.677-0.014,2.398-0.334c2.068-0.916,2.682-2.933,3.355-4.856c1.144-3.262,2.186-6.563,3.415-9.793
		c0.896-2.355,1.924-4.676,3.078-6.917c2.038-3.961,4.182-7.87,6.375-11.748c0.326-0.574,1.135-1.129,1.774-1.2
		c0.634-0.07,1.389,0.41,1.969,0.821c0.129,0.092-0.265,0.895-0.386,1.377c-0.179,0.71-0.533,1.454-0.441,2.135
		c0.125,0.931,0.103,1.58-0.534,2.414c-0.631,0.827-0.79,2.037-1.076,3.101c-1.468,5.47-1.267,11.011-0.639,16.564
		C85.776,41.355,85.934,41.626,86.062,41.982z M81.453,26.864c-0.15-0.035-0.301-0.069-0.452-0.104
		c-0.243,0.708-0.283,1.628-0.763,2.088c-2.097,2.003-2.239,4.935-3.615,7.295c-1.396,2.396-2.133,5.188-3.072,7.836
		c-0.274,0.771-0.252,1.646-0.41,2.786c0.618-0.33,0.878-0.409,1.058-0.576c0.964-0.895,1.909-1.812,2.861-2.72
		c0.919-0.877,1.82-1.035,2.754,0.004c0.744,0.829,1.454,0.514,1.716-0.354c0.276-0.91,0.317-1.918,0.307-2.881
		c-0.025-2.261-0.174-4.521-0.211-6.781c-0.031-1.906,0.036-3.813,0.034-5.72C81.66,27.446,81.525,27.155,81.453,26.864z
		 M88.878,66.251c0.199-1.621,0.446-3.234,0.588-4.857c0.265-3.048,0.483-6.101,0.695-9.152c0.127-1.819,0.256-3.643,0.268-5.465
		c0.002-0.395-0.418-1.028-0.779-1.149c-2.03-0.679-3.783,0.96-3.472,3.059c0.324,2.191,0.643,4.397,0.735,6.605
		c0.133,3.15,0.091,6.31,0.055,9.465C86.954,65.902,87.351,66.437,88.878,66.251z M63.4,64.884c0.131-0.009,0.263-0.019,0.394-0.026
		c0.041-1.167,0.102-2.334,0.116-3.5c0.012-0.928,0.052-1.871-0.096-2.778c-0.053-0.321-0.59-0.644-0.973-0.788
		c-0.128-0.048-0.677,0.461-0.672,0.708C62.21,60.695,62.189,62.917,63.4,64.884z M62.83,46.088
		c-0.121-0.006-0.242-0.011-0.363-0.017c-0.063,1.796-0.125,3.591-0.188,5.387c0.206,0.002,0.411,0.004,0.617,0.006
		C63.526,49.681,62.449,47.875,62.83,46.088z"/>
	<path fill-rule="evenodd" clip-rule="evenodd" d="M204.33,23.237c0.267-0.077,0.622-0.306,0.785-0.209
		c1.159,0.684,2.272,1.446,3.416,2.156c0.372,0.229,0.835,0.32,1.185,0.574c0.524,0.38,0.997,0.837,1.47,1.282
		c0.215,0.204,0.331,0.558,0.575,0.679c3.194,1.591,5.963,3.789,8.311,6.413c2.113,2.361,3.936,4.989,5.774,7.581
		c0.475,0.671,0.284,1.906,0.833,2.409c0.842,0.773,0.973,1.72,1.349,2.636c1.331,3.246,1.398,6.57,0.732,9.96
		c-0.115,0.592-0.128,1.204-0.205,1.963c2.214-0.269,3.753-1.473,5.249-2.675c0.92-0.74,1.638-1.724,2.509-2.531
		c1.662-1.539,1.909-3.534,1.896-5.615c-0.017-2.9-1.456-5.318-2.705-7.799c-0.257-0.511-0.328-1.141-0.662-1.579
		c-1.38-1.809-2.707-3.683-4.28-5.313c-2.24-2.323-4.684-4.451-7.024-6.681c-0.17-0.162-0.213-0.462-0.445-0.996
		c1.375,0.657,2.657,0.994,3.587,1.761c4.11,3.383,8.275,6.725,11.355,11.174c2.021,2.92,2.923,6.16,3.556,9.631
		c0.635,3.485-0.865,5.807-3.1,7.995c-2.664,2.61-5.825,4.409-9.318,5.668c-2.242,0.807-4.39,1.731-6.256,3.332
		c-3.228,2.768-7.17,4.212-11.155,5.51c-3.802,1.239-7.707,1.771-11.699,1.657c-5.45-0.156-10.859-0.702-15.793-3.2
		c-2.741-1.388-4.98-3.497-6.547-6.249c-2.273-3.994-3.111-8.362-3.331-12.855c-0.09-1.846,0.291-3.714,0.46-5.572
		c0.125-1.367,0.362-2.735,0.361-4.103c-0.001-4.474,0.949-8.735,2.935-12.716c2.795-5.602,7.822-7.936,13.659-9.001
		c0.677-0.124,1.295-0.555,1.972-0.701c2.845-0.617,5.686-1.313,8.565-1.701c1.195-0.16,2.484,0.384,3.73,0.607
		c0.005,0.132,0.009,0.265,0.015,0.398c-0.599,0.061-1.224,0.263-1.792,0.159c-2.425-0.442-4.169,0.649-5.914,2.406
		c0.958,0.632,1.789,1.179,2.619,1.727c-0.029,0.13-0.059,0.261-0.088,0.393c-3.632-1.47-7.254-2.881-9.928,1.565
		c1.224-0.358,2.468-0.658,3.664-1.092c1.2-0.436,2.177-0.068,3.123,0.606c0.356,0.253,0.68,0.556,1.046,0.793
		c0.641,0.413,0.97,0.874,0.883,1.737c-0.165,1.637,0.44,2.022,2.105,2.029c1.669,0.008,3.345,0.224,5,0.468
		c0.991,0.146,1.48,0.083,2.234-0.813c-1.58-1.302-3.161-2.604-4.742-3.906L204.33,23.237z M195.096,26.832
		c-2.969-0.067-5.311,1.553-7.2,3.27c-3.288,2.986-5.506,6.811-6.698,11.224c-1.424,5.27-0.526,9.844,3.015,14.054
		c2.025,2.409,4.74,3.669,7.286,5.251c2.192,1.363,4.423,2.832,7.062,2.884c6.3,0.123,12.623,0.339,18.698-1.955
		c2.489-0.938,4.578-2.423,6.166-4.435c1.848-2.341,1.61-5.33,1.106-7.97c-0.904-4.735-2.775-9.219-6.338-12.61
		c-2.45-2.33-5.108-4.645-8.086-6.149c-2.39-1.208-5.384-1.299-8.138-1.682c-2.585-0.359-2.805-0.068-3.047,2.426
		c-0.081,0.828-0.336,1.523-1.498,1.323c0.051-0.408,0.068-0.67,0.117-0.924c0.236-1.214,0.069-2.085-1.47-2.143
		c-0.643-0.024-1.274-0.343-2.13-0.59C194.726,28.193,196.292,28.172,195.096,26.832z M216.56,66.378
		c0.005-0.244,0.01-0.488,0.015-0.732c-0.414-0.069-0.851-0.261-1.238-0.189c-2.011,0.37-3.993,1.01-6.017,1.182
		c-5.195,0.44-10.399,0.639-15.494-0.919c-2.738-0.837-5.688-1.183-7.949-3.134c-1.257-1.085-2.385-2.346-3.433-3.64
		c-1.842-2.274-3.566-4.64-4.375-7.531c-0.118-0.419-0.382-0.797-0.578-1.193c-0.578,3.277,0.016,6.301,1.091,9.302
		c0.982,2.742,3.219,4.424,5.092,6.396c0.844,0.89,2.004,1.702,3.165,2.021c2.819,0.777,5.712,1.312,8.599,1.803
		c1.154,0.197,2.371,0.043,3.558,0.014c0.841-0.021,1.679-0.107,2.519-0.147c1.953-0.093,3.978,0.118,5.844-0.329
		C210.48,68.534,213.499,67.369,216.56,66.378z"/>
	<path fill-rule="evenodd" clip-rule="evenodd" d="M218.405,22.342c-1.088-0.483-1.872-0.83-2.655-1.178
		c0.05-0.11,0.102-0.221,0.152-0.331C216.781,21.009,217.922,20.596,218.405,22.342z"/>
	<path fill-rule="evenodd" clip-rule="evenodd" d="M204.3,23.199c-0.173,0.108-0.435,0.353-0.507,0.305
		c-0.812-0.525-1.594-1.097-2.283-1.817c1.24-0.028,2.007,0.8,2.819,1.549C204.33,23.237,204.3,23.199,204.3,23.199z"/>
	<path fill-rule="evenodd" clip-rule="evenodd" fill="#FFFFFF" d="M340.254,52.311c-0.023,0.687,0.053,1.197-0.073,1.653
		c-0.774,2.831-2.658,4.941-4.862,6.676c-1.83,1.438-3.928,2.544-5.962,3.698c-0.491,0.278-1.211,0.127-1.814,0.24
		c-3.78,0.713-7.571,0.987-11.38,0.258c-0.734-0.14-1.488-0.307-2.164-0.612c-1.574-0.713-1.71-1.993-0.376-3.069
		c1.999-1.612,4.247-2.638,6.786-3.14c2.208-0.438,4.383-1.063,6.556-1.665c2.595-0.719,5.177-1.483,7.757-2.262
		C336.458,53.564,338.176,52.981,340.254,52.311z"/>
	<path fill-rule="evenodd" clip-rule="evenodd" fill="#FFFFFF" d="M332.685,42.799c-2.278-0.676-4.825-0.923-6.77-2.134
		c-2.519-1.566-4.646-3.784-4.699-7.246c-0.03-1.976,1.14-3.21,2.21-4.537c0.195-0.243,0.953-0.253,1.336-0.093
		c4.936,2.059,9.861,4.141,14.76,6.287c1.098,0.479,1.246,1.498,0.465,2.394c-1.133,1.294-2.305,2.554-3.495,3.795
		C335.477,42.323,334.221,42.798,332.685,42.799z"/>
	<path fill-rule="evenodd" clip-rule="evenodd" fill="#FFFFFF" d="M304.498,17.414c3.206-1.285,6.481-2.03,10.185-1.252
		c-0.414,1.193-0.903,2.271-1.143,3.402c-0.159,0.762-0.055,1.613,0.09,2.396c0.368,2.015,0.373,1.952-1.479,2.964
		c-2.318,1.267-4.487,2.85-6.89,3.913c-3.834,1.696-7.793,3.116-11.729,4.563c-1.075,0.395-1.62-0.259-1.148-1.351
		c1.378-3.187,2.985-6.235,5.788-8.459c1.43-1.133,3.083-1.533,4.857-1.533c1.111,0,2.248,0.211,3.328,0.039
		c1.174-0.186,2.368-0.568,3.419-1.12c0.862-0.452,0.302-1.978-0.908-2.329c-0.885-0.257-1.837-0.267-2.755-0.421
		c-0.568-0.096-1.129-0.255-1.693-0.385C304.446,17.7,304.471,17.556,304.498,17.414z"/>
	<path fill-rule="evenodd" clip-rule="evenodd" fill="#FFFFFF" d="M343.012,26.818c0.105,1.116,0.326,1.997,0.234,2.844
		c-0.109,0.997-0.396,2.004-0.785,2.933c-0.284,0.683-0.678,1.101-1.742,0.639c-2.464-1.068-5.076-1.788-7.608-2.708
		c-2.224-0.807-4.415-1.709-6.632-2.535c-1.141-0.425-1.124-1.098-0.336-1.763c1.28-1.082,2.547-2.256,4.011-3.025
		c1.853-0.975,3.881-1.629,5.864-2.334c1.482-0.527,3.854,1.148,4.125,2.723c0.059,0.336,0.545,0.718,0.917,0.86
		C342.229,24.9,343.057,25.945,343.012,26.818z"/>
	<path fill-rule="evenodd" clip-rule="evenodd" fill="#FFFFFF" d="M283.86,36.534c-0.07-0.427-0.154-0.764-0.178-1.104
		c-0.068-1.007-0.995-1.56-1.93-1.106c-1.227,0.596-2.44,1.22-3.66,1.833c-0.97,0.488-1.73,0.229-2.078-0.824
		c-0.635-1.927-1.245-3.866-1.778-5.823c-0.468-1.717,0.247-2.178,2.058-2.805c2.791-0.966,5.689-1.612,8.506-2.514
		c2.225-0.712,3.051,0.811,3.019,2.41c-0.051,2.484-0.199,4.967-0.351,7.448C287.36,35.798,286.768,36.199,283.86,36.534z"/>
	<path fill-rule="evenodd" clip-rule="evenodd" fill="#FFFFFF" d="M261.747,62.697c-0.813,1.251-1.346,2.367-2.147,3.234
		c-1.075,1.164-2.282,2.239-3.564,3.172c-3.249,2.361-8.175-0.173-8.601-4.187c-0.245-2.296,0.137-4.659,0.252-6.991
		c0.007-0.152,0.137-0.299,0.248-0.527c0.788,0.611,1.512,1.18,2.244,1.74c2.132,1.63,4.7,1.993,7.224,2.51
		C258.736,61.921,260.052,62.284,261.747,62.697z"/>
	<path fill-rule="evenodd" clip-rule="evenodd" fill="#FFFFFF" d="M272.219,54.12c0.352-7.069-2.197-14.135,0.124-21.575
		c0.384,0.654,0.706,1.019,0.824,1.439c0.538,1.91,1.302,3.776,0.739,5.865c-0.157,0.588,0.104,1.403,0.417,1.98
		c1.2,2.207,1.981,4.51,1.303,6.993c-0.417,1.522-1.204,2.946-1.856,4.4c-0.23,0.514-0.557,0.986-0.838,1.478
		C272.694,54.507,272.457,54.314,272.219,54.12z"/>
	<path fill-rule="evenodd" clip-rule="evenodd" fill="#FFFFFF" d="M251.03,39.076c-1.172-1.135-0.788-2.273-0.59-3.328
		c0.133-0.703-0.029-1.086-0.547-1.591c-1.263-1.233-1.091-2.98-0.729-4.384c0.374-1.446,0.78-3.189,2.439-3.924
		c0.601-0.266,1.716-0.58,1.898-0.341c0.468,0.615,0.874,1.598,0.724,2.311c-0.696,3.322-1.576,6.607-2.43,9.895
		C251.68,38.156,251.339,38.538,251.03,39.076z"/>
	<path fill-rule="evenodd" clip-rule="evenodd" fill="#FFFFFF" d="M314.247,20.083c0.059-1.287,1.91-3.398,3.176-3.679
		c1.774-0.394,3.543-0.817,5.311-1.245c0.758-0.185,1.442-0.008,1.577,0.763c0.081,0.466-0.169,1.239-0.536,1.495
		c-2.313,1.615-4.672,3.172-7.077,4.647C315.547,22.768,314.179,21.606,314.247,20.083z"/>
	<path fill-rule="evenodd" clip-rule="evenodd" fill="#FFFFFF" d="M338.61,43.886c1.176-1.828,2.344-3.44,3.279-5.179
		c0.532-0.992,1.06-0.921,1.783-0.456c2.398,1.539,2.641,5.416,0.447,7.233c-0.251,0.209-0.646,0.408-0.942,0.371
		C341.45,45.64,339.815,45.17,338.61,43.886z"/>
	<path fill-rule="evenodd" clip-rule="evenodd" fill="#FFFFFF" d="M318.229,24.521c0.582-0.557,1.031-1.114,1.596-1.5
		c1.863-1.276,3.771-2.484,5.651-3.731c0.915-0.606,1.768-1.313,2.72-1.846c1.11-0.623,2.17-0.116,3.492,0.329
		c-0.486,0.475-0.755,0.806-1.087,1.049c-2.265,1.665-4.546,3.307-6.814,4.967c-0.501,0.367-0.955,0.804-1.465,1.159
		C320.796,26.014,320.057,25.958,318.229,24.521z"/>
	<path fill-rule="evenodd" clip-rule="evenodd" fill="#FFFFFF" d="M248.932,51.585c0.247-1.466,0.426-2.697,0.684-3.91
		c0.059-0.28,0.391-0.503,0.598-0.752c0.207,0.202,0.496,0.366,0.605,0.612c1.211,2.734,2.422,5.469,3.562,8.234
		c0.229,0.555,0.153,1.235,0.218,1.857c-0.625-0.211-1.347-0.288-1.855-0.658c-1.357-0.984-2.694-2.038-3.299-3.705
		C249.221,52.649,249.061,52.012,248.932,51.585z"/>
	<path fill-rule="evenodd" clip-rule="evenodd" fill="#FFFFFF" d="M338.788,49.232c-4.07,1.303-7.559,3.654-11.876,3.484
		c0.026-0.116,0.013-0.288,0.086-0.342c1.927-1.416,3.81-2.899,5.815-4.198C334.461,47.108,336.885,47.555,338.788,49.232z"/>
	<path fill-rule="evenodd" clip-rule="evenodd" fill="#FFFFFF" d="M314.696,67.705c-0.486,0.111-0.994,0.373-1.457,0.307
		c-1.615-0.229-3.244-0.465-4.813-0.901c-1.584-0.44-1.994-1.002-1.488-2.533c0.337-1.019,1.354-1.817,2.125-2.661
		c0.024-0.025,1.004,0.524,1.034,0.853c0.192,2.122,1.343,3.257,3.347,3.741c0.485,0.117,0.898,0.535,1.345,0.813
		C314.758,67.451,314.727,67.578,314.696,67.705z"/>
	<path fill-rule="evenodd" clip-rule="evenodd" fill="#FFFFFF" d="M342.176,13.182c-3.053,2.001-6.318,1.817-9.676,1.1
		C334.275,12.925,341.004,12.14,342.176,13.182z"/>
	<path fill-rule="evenodd" clip-rule="evenodd" fill="#FFFFFF" d="M275.25,23.894c-2.976,0.322-5.595,2.519-8.911,1.851
		C267.553,23.978,270.665,23.325,275.25,23.894z"/>
	<path fill-rule="evenodd" clip-rule="evenodd" fill="#FFFFFF" d="M329.444,10.675c-1.68,0.71-7.884,1.565-8.734,0.874
		c3.09-0.48,5.887-0.917,8.68-1.352C329.408,10.357,329.425,10.516,329.444,10.675z"/>
	<path fill-rule="evenodd" clip-rule="evenodd" fill="#FFFFFF" d="M316.042,14.017c1.391-1.246,2.699-2.274,4.662-1.682
		C319.362,13.881,317.156,14.735,316.042,14.017z"/>
	<path fill-rule="evenodd" clip-rule="evenodd" fill="#FFFFFF" d="M248.608,47.351c0.051-1.462,0.102-2.924,0.153-4.386
		C250.015,44.501,248.754,45.877,248.608,47.351z"/>
	<path fill-rule="evenodd" clip-rule="evenodd" fill="#FFFFFF" d="M391.647,57.063c-0.125-2.473-0.275-5.315-0.408-8.16
		c-0.182-3.902-0.323-7.808-0.538-11.709c-0.098-1.771-0.242-3.548-0.53-5.296c-0.158-0.957,0.096-1.436,0.967-1.687
		c2.941-0.849,5.882-1.708,8.83-2.543c2.375-0.673,4.773-1.273,7.135-1.989c1.729-0.523,2.832-0.37,3.955,1.12
		c2.201,2.927,4.459,5.836,6.363,8.954c1.148,1.88,1.57,4.117,0.502,6.371c-0.45,0.948-0.613,2.032-0.898,3.056
		c-0.045,0.167,0.015,0.406-0.083,0.509c-2.437,2.565-4.306,5.722-7.95,6.994c-1.676,0.585-3.155,1.717-4.758,2.531
		c-0.975,0.497-2.01,0.873-3.027,1.285c-2.364,0.957-4.732,1.903-7.098,2.854c-0.042,0.017-0.084,0.036-0.127,0.045
		C391.595,59.901,391.363,59.92,391.647,57.063z"/>
	<path fill-rule="evenodd" clip-rule="evenodd" fill="#FFFFFF" d="M384.561,47.672c0.014,4.09-0.016,8.18,0.057,12.268
		c0.039,2.277,0.119,2.296-2.189,2.691c-2.609,0.447-5.227,0.848-7.835,1.291c-0.341,0.058-0.651,0.265-0.983,0.378
		c-0.811,0.277-1.281-0.025-1.135-0.876c0.699-4.065-0.06-8.055-0.553-12.062c-0.694-5.642-0.058-11.199,1.229-16.687
		c0.13-0.554,1.066-1.181,1.717-1.304c3.096-0.585,6.227-0.98,9.334-1.505c0.926-0.156,1.152,0.327,1.131,1.019
		c-0.054,1.819-0.196,3.636-0.269,5.454c-0.124,3.11-0.222,6.222-0.33,9.332C384.676,47.672,384.619,47.672,384.561,47.672z"/>
	<path fill-rule="evenodd" clip-rule="evenodd" fill="#FFFFFF" d="M374.299,25.88c-0.217-1.779-0.346-3.575-0.692-5.327
		c-0.122-0.619-0.705-1.202-1.196-1.682c-0.863-0.841-0.732-1.593,0.117-2.244c1.927-1.48,3.881-2.883,6.341-3.451
		c1.437-0.333,2.786-1.037,4.196-1.511c0.958-0.322,1.431,0.021,1.855,1.058c1.342,3.265,1.08,6.667,1.166,10.045
		c0.04,1.556-0.156,3.125-0.023,4.668c0.09,1.026-0.369,1.412-1.16,1.579c-2.076,0.438-4.16,0.84-6.251,1.2
		c-1.207,0.208-2.431,0.36-3.651,0.439c-0.701,0.045-1.308-0.133-1.202-1.139c0.126-1.192,0.104-2.399,0.146-3.601
		C374.063,25.904,374.18,25.891,374.299,25.88z"/>
	<path fill-rule="evenodd" clip-rule="evenodd" fill="#FFFFFF" d="M424.512,48.913c0.341-0.925,0.64-1.868,1.031-2.771
		c3.019-6.963,2.139-13.584-1.757-19.924c-0.527-0.858-1.329-1.544-1.901-2.381c-0.495-0.728-0.627-1.304,0.652-1.5
		c2.959-0.455,5.894-0.861,8.795,0.207c1.577,0.581,2.295,1.844,2.498,3.452c0.323,2.568,0.244,5.11-0.505,7.608
		c-0.747,2.491-1.19,5.133-2.322,7.434c-1.091,2.216-2.871,4.098-4.396,6.09c-0.527,0.689-1.193,1.274-1.797,1.907
		C424.712,48.995,424.612,48.954,424.512,48.913z"/>
	<path fill-rule="evenodd" clip-rule="evenodd" fill="#FFFFFF" d="M389.049,23.797c0.02-0.573,0.014-0.797,0.037-1.018
		c0.35-3.401,0.557-4.378,4.229-4.396c3.081-0.016,6.173,0.212,9.241,0.513c1.706,0.168,2.994,1.295,3.963,2.684
		c0.611,0.879,0.314,1.771-0.604,2.032c-2.836,0.807-5.674,1.608-8.52,2.386c-1.879,0.515-3.771,0.982-5.656,1.475
		c-1.496,0.391-2.287-0.077-2.559-1.628C389.045,25.06,389.074,24.248,389.049,23.797z"/>
	<path fill-rule="evenodd" clip-rule="evenodd" fill="#FFFFFF" d="M423.118,42.981c-0.46-1.591-1.072-2.881-1.174-4.21
		c-0.379-4.955-1.928-9.436-4.92-13.411c-0.068-0.089-0.051-0.242,0.144-0.691c0.734,0.454,1.614,0.774,2.179,1.387
		c3.465,3.764,5.13,8.31,5.442,13.358C424.868,40.694,424.794,42.072,423.118,42.981z"/>
	<path fill-rule="evenodd" clip-rule="evenodd" fill="#FFFFFF" d="M400.911,60.538c0.387-0.282,0.686-0.549,1.027-0.741
		c1.215-0.684,2.413-1.405,3.674-1.993c1.195-0.557,2.503-0.877,3.687-1.453c4.122-2.003,7.433-4.905,9.612-8.995
		c0.119-0.225,0.215-0.507,0.194-0.751c-0.071-0.857,0.515-1.033,1.086-0.885c0.24,0.063,0.526,0.769,0.45,1.104
		c-0.535,2.355-1.486,4.352-3.875,5.545c-1.506,0.754-2.748,2.055-4.072,3.151c-2.682,2.223-5.795,3.608-9.068,4.656
		C402.854,60.423,401.998,60.402,400.911,60.538z"/>
	<path fill-rule="evenodd" clip-rule="evenodd" fill="#FFFFFF" d="M387.92,58.594c-0.891-6.519-0.471-13.022,0.435-19.522
		c0.811,6.523,1.384,13.046,0.224,19.561C388.358,58.62,388.14,58.607,387.92,58.594z"/>
	<path fill-rule="evenodd" clip-rule="evenodd" fill="#FFFFFF" d="M372.035,25.365c-0.001,0.045,0.007,0.093-0.006,0.134
		c-0.208,0.67-0.419,1.339-0.63,2.008c-0.7-0.43-1.668-0.709-2.021-1.335c-0.304-0.54,0.091-1.476,0.184-2.235
		c0.004-0.029,0.067-0.054,0.104-0.078c0.589-0.408,1.18-0.815,1.771-1.223c0.292,0.879,0.587,1.759,0.882,2.638
		C372.225,25.304,372.129,25.334,372.035,25.365z"/>
	<path fill-rule="evenodd" clip-rule="evenodd" fill="#FFFFFF" d="M387.032,14.494c2.005,0.317,3.847,0.607,6.063,0.957
		c-0.454,0.439-0.647,0.768-0.924,0.866c-0.779,0.278-1.586,0.492-2.396,0.677C387.59,17.495,387.266,17.232,387.032,14.494z"/>
	<path fill-rule="evenodd" clip-rule="evenodd" fill="#FFFFFF" d="M488.126,5.981c0.622,0.021,1.249,0.005,1.864,0.081
		c0.309,0.038,0.594,0.245,0.89,0.376c-0.163,0.298-0.267,0.67-0.511,0.876c-0.295,0.249-0.694,0.405-1.074,0.521
		c-4.811,1.467-9.613,2.963-14.445,4.36c-2.924,0.846-5.895,1.528-8.84,2.298c-1.585,0.414-3.161,0.858-4.742,1.287
		c-0.213,0.059-0.439,0.173-0.645,0.146c-0.543-0.07-1.074-0.205-1.61-0.314c0.345-0.46,0.598-1.053,1.046-1.361
		c3.648-2.516,7.738-4.069,11.941-5.367C477.26,7.259,482.573,5.95,488.126,5.981z"/>
	<path fill-rule="evenodd" clip-rule="evenodd" fill="#FFFFFF" d="M465.777,55.715c-1.991,0.389-3.97,0.852-5.972,1.148
		c-3.682,0.544-7.379,0.99-11.068,1.478c-0.045,0.006-0.089,0.023-0.133,0.02c-0.838-0.068-2.029,0.653-2.361-0.629
		c-0.352-1.348,0.879-2.743,2.184-2.979c2.328-0.419,4.631-0.358,6.984-0.147c2.508,0.226,5.052,0.004,7.578,0.058
		c0.953,0.02,1.903,0.261,2.854,0.401C465.821,55.282,465.797,55.5,465.777,55.715z"/>
	<path fill-rule="evenodd" clip-rule="evenodd" fill="#FFFFFF" d="M444.542,51.37c-0.381,0.292-0.688,0.688-1.068,0.782
		c-0.684,0.167-1.407,0.183-2.115,0.192c-0.191,0.003-0.512-0.215-0.545-0.378c-0.037-0.195,0.109-0.566,0.275-0.643
		C442.149,50.837,443.229,50.164,444.542,51.37z"/>
	<path fill-rule="evenodd" clip-rule="evenodd" fill="#FFFFFF" d="M157.051,15.415c-2.103,1.281-3.867,2.425-5.696,3.452
		c-1.998,1.122-4.056,2.136-6.088,3.196c-2.666,1.393-5.339,2.769-7.993,4.182c-2.341,1.246-4.629,2.599-6.999,3.788
		c-2.525,1.267-5.104,2.433-7.688,3.574c-1.979,0.874-3.999,1.659-6.016,2.446c-0.698,0.271-1.267,0.269-1.376-0.766
		c-0.36-3.394-0.868-6.774-1.111-10.176c-0.04-0.549,0.865-1.453,1.522-1.714c2.412-0.955,4.895-1.732,7.367-2.529
		c2.487-0.803,4.982-1.588,7.495-2.302c1.234-0.351,2.515-0.549,3.783-0.771c5.324-0.928,10.64-1.91,15.982-2.717
		c1.784-0.269,3.637-0.091,5.458-0.074C156.04,15.007,156.386,15.207,157.051,15.415z"/>
	<path fill-rule="evenodd" clip-rule="evenodd" fill="#FFFFFF" d="M107.356,62.992c0.274-1.091,0.434-1.762,0.613-2.428
		c0.38-1.41,1.313-1.72,2.475-0.824c0.794,0.612,1.581,1.236,2.54,1.987C111.138,62.875,109.245,62.55,107.356,62.992z"/>
	<path fill-rule="evenodd" clip-rule="evenodd" fill="#FFFFFF" d="M111.563,45.162c1.146,1.459,1.214,2.918,1.357,4.349
		c0.043,0.438-0.043,0.896,0.039,1.323c0.248,1.288-0.276,1.796-1.54,1.394c-0.191-0.062-0.45-0.364-0.437-0.538
		C111.137,49.628,111.34,47.572,111.563,45.162z"/>
	<path fill-rule="evenodd" clip-rule="evenodd" fill="#FFFFFF" d="M115.517,40.946c3.106-1.457,6.371-1.093,9.59-1.134
		c0.025,0.147,0.051,0.295,0.076,0.442c-1.046,0.195-2.09,0.414-3.141,0.582c-1.098,0.176-2.203,0.413-3.306,0.421
		C117.688,41.266,116.533,42.211,115.517,40.946z"/>
	<path fill-rule="evenodd" clip-rule="evenodd" fill="#FFFFFF" d="M117.579,58.82c2.085-0.544,2.974-0.032,2.978,1.646
		C118.596,60.865,117.645,60.365,117.579,58.82z"/>
	<path fill-rule="evenodd" clip-rule="evenodd" fill="#FFFFFF" d="M66.305,3.631c-1.869,1.162-3.629,2.271-5.404,3.356
		c-2.589,1.586-5.167,3.19-7.792,4.716c-1.169,0.679-2.415,1.25-3.68,1.727c-0.432,0.163-1.031-0.098-1.548-0.192
		c-0.876-0.16-1.827-0.03-1.948,0.898c-0.244,1.876-1.777,2.152-3.023,2.8c-0.975,0.508-2.01,0.898-3.007,1.364
		c-1.053,0.493-1.722,0.132-1.633-1.005c0.085-1.103,0.18-2.25,0.564-3.267c0.219-0.58,0.952-1.108,1.576-1.369
		c4.348-1.821,8.713-3.605,13.103-5.32c2.46-0.962,4.968-1.807,7.478-2.634c1.585-0.523,3.211-0.923,4.824-1.36
		C65.897,3.323,66.022,3.46,66.305,3.631z"/>
	<path fill-rule="evenodd" clip-rule="evenodd" fill="#FFFFFF" d="M44.468,21.234c-2.381,10.434-2.55,20.915-5.868,30.804
		c-0.119,0.001-0.237,0.003-0.356,0.005c-0.115-0.256-0.321-0.51-0.33-0.77c-0.115-3.507-0.221-7.015-0.279-10.524
		c-0.011-0.653,0.071-1.377,0.353-1.949c0.26-0.529,0.771-1.126,1.301-1.297c2.27-0.737,2.9-2.441,1.502-4.425
		c-0.358-0.508-0.742-1.001-1.151-1.47c-1.635-1.872-2.107-5.97-0.908-8.092c0.082-0.146,0.198-0.324,0.339-0.376
		C40.726,22.542,42.389,21.964,44.468,21.234z"/>
	<path fill-rule="evenodd" clip-rule="evenodd" fill="#FFFFFF" d="M34.893,34.693c-4.447-0.155-8.571-0.299-12.919-0.451
		c1.683-1.834,3.481-3.27,5.469-4.526c1.969-1.245,3.839-2.646,6.086-4.211C34.025,28.854,34.452,31.727,34.893,34.693z"/>
	<path fill-rule="evenodd" clip-rule="evenodd" fill="#FFFFFF" d="M81.453,26.864c0.072,0.291,0.207,0.582,0.207,0.874
		c0.001,1.906-0.065,3.813-0.034,5.72c0.037,2.261,0.186,4.521,0.211,6.781c0.011,0.963-0.031,1.971-0.307,2.881
		c-0.263,0.867-0.973,1.183-1.716,0.354c-0.934-1.039-1.835-0.881-2.754-0.004c-0.952,0.908-1.896,1.825-2.861,2.72
		c-0.18,0.167-0.44,0.246-1.058,0.576c0.157-1.141,0.136-2.016,0.41-2.786c0.939-2.648,1.676-5.439,3.072-7.836
		c1.375-2.36,1.518-5.292,3.615-7.295c0.48-0.46,0.521-1.38,0.763-2.088C81.151,26.794,81.303,26.829,81.453,26.864z"/>
	<path fill-rule="evenodd" clip-rule="evenodd" fill="#FFFFFF" d="M88.878,66.251c-1.527,0.186-1.924-0.35-1.911-1.495
		c0.037-3.155,0.078-6.314-0.055-9.465c-0.092-2.208-0.411-4.414-0.735-6.605c-0.311-2.099,1.442-3.737,3.472-3.059
		c0.361,0.121,0.781,0.755,0.779,1.149c-0.011,1.822-0.141,3.646-0.268,5.465c-0.212,3.052-0.43,6.104-0.695,9.152
		C89.324,63.017,89.077,64.63,88.878,66.251z"/>
	<path fill-rule="evenodd" clip-rule="evenodd" fill="#FFFFFF" d="M63.4,64.884c-1.211-1.967-1.19-4.189-1.231-6.385
		c-0.004-0.247,0.544-0.756,0.672-0.708c0.383,0.145,0.92,0.467,0.973,0.788c0.147,0.907,0.108,1.851,0.096,2.778
		c-0.014,1.166-0.075,2.333-0.116,3.5C63.663,64.866,63.532,64.875,63.4,64.884z"/>
	<path fill-rule="evenodd" clip-rule="evenodd" fill="#FFFFFF" d="M62.83,46.088c-0.381,1.786,0.696,3.593,0.065,5.376
		c-0.206-0.002-0.411-0.004-0.617-0.006c0.063-1.796,0.125-3.591,0.188-5.387C62.588,46.078,62.709,46.083,62.83,46.088z"/>
	<path fill-rule="evenodd" clip-rule="evenodd" fill="#FFFFFF" d="M195.096,26.832c1.196,1.341-0.37,1.361-1.155,1.974
		c0.855,0.247,1.487,0.565,2.13,0.59c1.539,0.058,1.706,0.929,1.47,2.143c-0.049,0.254-0.066,0.516-0.117,0.924
		c1.162,0.2,1.417-0.495,1.498-1.323c0.242-2.494,0.461-2.785,3.047-2.426c2.754,0.383,5.748,0.474,8.138,1.682
		c2.978,1.505,5.636,3.819,8.086,6.149c3.563,3.392,5.434,7.875,6.338,12.61c0.504,2.64,0.742,5.629-1.106,7.97
		c-1.588,2.012-3.677,3.496-6.166,4.435c-6.076,2.294-12.398,2.078-18.698,1.955c-2.639-0.052-4.87-1.521-7.062-2.884
		c-2.546-1.582-5.261-2.842-7.286-5.251c-3.541-4.21-4.438-8.784-3.015-14.054c1.192-4.413,3.41-8.237,6.698-11.224
		C189.785,28.384,192.126,26.764,195.096,26.832z"/>
	<path fill-rule="evenodd" clip-rule="evenodd" fill="#FFFFFF" d="M216.56,66.378c-3.061,0.99-6.08,2.155-9.2,2.902
		c-1.867,0.447-3.891,0.236-5.844,0.329c-0.84,0.04-1.678,0.127-2.519,0.147c-1.188,0.029-2.404,0.184-3.558-0.014
		c-2.887-0.491-5.78-1.025-8.599-1.803c-1.161-0.319-2.321-1.132-3.165-2.021c-1.873-1.973-4.11-3.654-5.092-6.396
		c-1.076-3.001-1.669-6.024-1.091-9.302c0.196,0.396,0.46,0.774,0.578,1.193c0.809,2.892,2.533,5.257,4.375,7.531
		c1.048,1.294,2.175,2.555,3.433,3.64c2.26,1.951,5.21,2.297,7.949,3.134c5.095,1.558,10.299,1.359,15.494,0.919
		c2.024-0.172,4.005-0.812,6.017-1.182c0.388-0.071,0.825,0.12,1.238,0.189C216.57,65.89,216.565,66.134,216.56,66.378z"/>
</g>
</svg>
