<?xml version="1.0" encoding="utf-8"?>
<!-- Generator: Adobe Illustrator 16.0.0, SVG Export Plug-In . SVG Version: 6.00 Build 0)  -->
<!DOCTYPE svg PUBLIC "-//W3C//DTD SVG 1.1//EN" "http://www.w3.org/Graphics/SVG/1.1/DTD/svg11.dtd">
<svg version="1.1" id="Layer_1" xmlns="http://www.w3.org/2000/svg" xmlns:xlink="http://www.w3.org/1999/xlink" x="0px" y="0px"
	 width="124.906px" height="47.652px" viewBox="0 0 124.906 47.652" enable-background="new 0 0 124.906 47.652"
	 xml:space="preserve">
<g>
	<path fill-rule="evenodd" clip-rule="evenodd" d="M91.785,11.973c0.714-0.093,1.191-0.142,1.662-0.22
		c1.012-0.17,1.771,0.151,2.466,0.941c0.341,0.389,1.047,0.733,1.534,0.673c3.078-0.386,6.145-0.873,9.209-1.365
		c1.271-0.204,2.529-0.687,3.793-0.683c0.67,0.003,1.586,0.63,1.943,1.238c0.435,0.743-0.003,1.563-0.957,1.826
		c-2.9,0.802-5.799,1.615-8.713,2.362c-1.799,0.461-3.619,0.864-5.448,1.183c-0.663,0.115-1.534,0.139-2.045-0.198
		c-1.316-0.87-2.563-0.41-3.656,0.143c-0.491,0.248-0.675,1.327-0.78,2.061c-0.138,0.959-0.041,1.948-0.078,2.924
		c-0.033,0.837,0.342,1.136,1.146,0.99c2.574-0.466,5.141-0.979,7.727-1.371c3.377-0.513,6.759-1.036,10.158-1.324
		c1.123-0.095,2.488-0.082,3.318,1.23c0.599,0.946,0.512,1.71-0.255,2.366c-2.058,1.765-4.421,2.665-7.138,2.015
		c-0.463-0.11-0.771-0.863-1.271-1.465c-0.458,0.023-1.232-0.04-1.95,0.132c-0.556,0.134-1.354,0.45-1.507,0.876
		c-0.959,2.696-3.33,3.058-5.608,3.573c-0.995,0.225-2.024,0.289-3.034,0.45c-0.732,0.117-1.096,0.467-0.844,1.288
		c0.312,1.018,0.667,2.046,0.783,3.094c0.168,1.518,1.584,1.908,2.365,2.857c0.179,0.217,0.844,0.131,1.254,0.042
		c4.162-0.899,8.305-1.902,12.484-2.707c1.409-0.271,2.731-0.548,4.012-1.251c1.116-0.613,2.18,0.011,2.992,0.822
		c0.945,0.946,1.027,2.021-0.006,2.991c1.824,0,3.538-0.025,5.252,0.008c1.504,0.028,2.879,0.385,3.912,1.628
		c0.596,0.719,0.544,1.049-0.268,1.652c-1.496,1.111-3.227,0.928-4.832,1.056c-5.184,0.412-10.383,0.636-15.578,0.845
		c-2.127,0.086-4.268,0.026-6.393-0.117c-1.313-0.089-2.6-0.513-3.911-0.687c-0.864-0.114-1.782-0.204-2.624-0.041
		c-2.635,0.512-4.997,0.135-6.759-2.009c-0.679-0.826-1.198-1.891-1.46-2.93c-0.345-1.368-0.325-2.825-0.547-4.23
		c-0.072-0.456-0.346-1.183-0.641-1.244c-0.786-0.163-1.518-0.753-2.48-0.064c-3.672,2.627-7.35,5.264-11.191,7.627
		c-2.25,1.384-4.792,2.307-7.242,3.344c-2.212,0.936-3.987,0.218-5.431-1.672c-1.342-1.755-2.828-3.432-4.437-4.945
		c-2.352-2.214-3.398-4.701-3.22-8.021c0.14-2.604,0.666-4.987,1.651-7.342c0.183-0.438,0.173-0.956,0.255-1.438
		c0.199-1.16,1.169-1.737,2.287-1.776c0.999-0.035,1.972-0.534,2.977-0.687c1.902-0.286,2.63,0.508,2.334,2.396
		c-0.206,1.313-0.426,2.625-0.549,3.946c-0.031,0.329,0.232,0.729,0.45,1.03c0.907,1.257,1.825,2.508,2.783,3.727
		c1.326,1.688,2.743,3.28,4.925,3.892c1.274,0.357,1.671,0.057,1.968-1.209c0.818-3.481,1.597-6.978,2.575-10.415
		c0.774-2.719,2.544-4.871,4.646-6.713c1.254-1.098,3.131-1.057,4.479-0.002c1.016,0.796,1.896,0.971,2.865-0.144
		c2.234-2.57,5.564-3.334,8.396-4.917c1.005-0.562,1.961,0.05,2.603,0.758c0.33,0.364,0.267,1.163,0.229,1.756
		C92.339,10.94,92.054,11.335,91.785,11.973z M61.502,33.697c-1.952-1.856-3.85-3.662-5.748-5.468
		c-0.161,0.046-0.322,0.091-0.483,0.136c0,1.713-0.035,3.428,0.037,5.138c0.011,0.27,0.488,0.716,0.782,0.744
		C57.925,34.425,59.766,34.479,61.502,33.697z M76.115,26.121c1.875-0.69,2.376-1.787,1.592-3.798
		c-0.201-0.518-0.278-1.118-0.266-1.678c0.02-0.882,0.168-1.76,0.252-2.641c0.085-0.897-0.32-1.222-1.262-0.991
		C76.326,20.047,76.22,23.085,76.115,26.121z M86.136,32.743c0.469,1.934,1.699,3.35,3.088,4.906
		C89.896,34.718,87.302,34.206,86.136,32.743z"/>
	<path fill-rule="evenodd" clip-rule="evenodd" d="M4.176,8.862c0.179-1.043,0.204-1.871,0.472-2.61
		C5.333,4.365,6.067,2.49,6.903,0.667c0.431-0.94,1.398-0.707,2.106-0.382c0.178,0.082,0.062,1.011-0.067,1.512
		c-0.25,0.974-0.726,1.902-0.869,2.885c-0.079,0.536,0.163,1.33,0.554,1.684c1.089,0.986,0.62,1.92,0.236,2.975
		c-0.341,0.938-0.607,1.923-0.75,2.91c-0.32,2.198-0.551,4.41-0.801,6.618c-0.073,0.647-0.09,1.302-0.152,2.241
		c2.162-1.201,3.875-2.418,4.745-4.083c1.597-0.895,2.967-1.619,4.294-2.416c1.627-0.977,3.173-2.101,4.845-2.989
		c0.894-0.475,1.98-0.816,2.977-0.81c1.293,0.009,1.808,1.413,0.976,2.422c-1.146,1.391-2.273,2.688-4.038,3.536
		c-1.823,0.876-3.282,2.497-4.938,3.741c-0.812,0.609-1.73,1.074-2.561,1.662c-0.284,0.201-0.682,0.673-0.61,0.85
		c0.144,0.35,0.536,0.729,0.9,0.833c1.154,0.328,2.331,0.647,3.52,0.769c4.292,0.437,7.28,2.979,9.967,6.028
		c1.231,1.397,2.491,2.797,2.28,5.179c2.377-2.15,4.463-4.037,6.59-5.961c-0.862-1.582-2.314-2.466-3.849-3.283
		c-3.769-2.005-4.196-4.439-1.732-7.744c1.001-1.344,2.294-2.471,3.453-3.697c0.393-0.416,0.781-0.835,1.222-1.306
		c-0.747-0.815-1.419-1.573-2.119-2.306c-0.754-0.79-1.37-1.843-0.749-2.716c0.432-0.605,1.602-0.795,2.481-0.942
		c0.975-0.163,1.994-0.082,2.994-0.081c3.202,0.002,6.407-0.056,9.604,0.073c0.806,0.033,1.71,0.533,2.35,1.077
		c0.778,0.66,0.984,1.665,0.087,2.447c-1.602,1.396-3.276,2.71-4.917,4.062c-1.018,0.84-2.03,1.687-3.021,2.511
		c0.971,1.665,2.067,3.06,2.606,4.644c0.338,0.995,0.115,2.401-0.345,3.397c-0.772,1.671-0.942,1.604,0.512,2.603
		c1.444,0.991,2.188,2.488,2.563,4.075c0.188,0.793-0.013,2.048-0.548,2.58c-2.635,2.618-4.953,5.658-8.436,7.269
		c-1.348,0.623-2.818,0.984-4.239,1.446c-1.216,0.396-2.445,0.752-3.661,1.15c-0.659,0.216-1.457,0.712-1.708-0.345
		c-0.184-0.775-0.298-1.83,0.083-2.418c0.635-0.979,0.693-1.633-0.032-2.273c-1.587,1.284-3.032,2.669-4.686,3.729
		c-1.657,1.062-3.499,1.852-5.306,2.656c-1.007,0.448-2.107,0.691-3.17,1.012c-0.918,0.275-1.687,0.217-2.629-0.314
		c-1.199-0.676-2.671-0.87-4.029-1.258c-0.113-0.032-0.265,0.02-0.382,0.069c-1.916,0.803-1.926,0.801-2.858-0.939
		c-0.302,0.179-0.582,0.421-0.906,0.522c-0.921,0.29-1.682,0.096-2.041-0.903c-0.748-2.084-0.775-4.25-0.829-6.435
		c-0.039-1.607-0.354-3.211-0.585-4.811c-0.488-3.378-1.612-6.679-1.192-10.165c0.271-2.245,0.665-4.488,0.74-6.741
		c0.058-1.7-0.375-3.412-0.446-5.125c-0.039-0.932-0.034-2.028,0.41-2.779C1.455,7.497,2.778,7.599,4.176,8.862z M14.742,29.262
		c-0.02,0.099-0.039,0.196-0.059,0.295c-0.535,0-1.104-0.114-1.592,0.037c-0.374,0.116-0.89,0.544-0.92,0.872
		c-0.244,2.605-1.526,4.648-3.185,6.57c-0.5,0.581-0.75,1.455-0.902,2.236c-0.145,0.745,0.425,1.086,1.102,0.849
		c0.947-0.332,1.93-0.678,2.74-1.243c0.529-0.368,0.757-1.152,1.16-1.722c0.55-0.775,1.35-0.8,1.982-0.275
		c0.365,0.304,0.594,1.007,0.56,1.509c-0.077,1.145-0.39,2.271-0.54,3.413c-0.161,1.23,0.664,2.123,1.782,1.686
		c1.15-0.45,2.127-1.349,3.167-2.07c2.645-1.836,3.337-4.697,3.813-7.597c0.227-1.381-0.399-2.628-1.869-2.999
		C19.59,30.217,17.158,29.773,14.742,29.262z M32.625,39.527c0.753-0.319,1.247-0.432,1.624-0.705
		c1.715-1.245,3.412-2.517,5.083-3.82c0.514-0.401,1.084-0.864,1.33-1.429c0.172-0.396,0.003-1.19-0.313-1.481
		c-0.364-0.334-1.328-0.609-1.567-0.394c-2.129,1.916-4.472,3.657-5.857,6.264C32.729,38.328,32.754,38.812,32.625,39.527z
		 M41.986,22.807c-0.383-0.751-0.724-1.497-1.136-2.202c-0.367-0.627-0.768-0.64-1.381-0.139c-1.063,0.866-1.487,1.995-1.828,3.252
		c-0.402,1.479,0.63,1.83,1.595,2.285c0.969,0.457,1.41-0.288,1.778-0.9C41.413,24.442,41.631,23.674,41.986,22.807z M37.272,16.555
		c-0.297,0.146-0.589,0.207-0.756,0.385c-0.806,0.86-1.61,1.727-2.351,2.643c-0.436,0.538-0.868,1.136-1.073,1.779
		c-0.099,0.31,0.33,0.789,0.519,1.19c0.292-0.209,0.655-0.363,0.863-0.636c1.087-1.418,2.142-2.861,3.188-4.311
		c0.137-0.189,0.28-0.502,0.213-0.679C37.809,16.75,37.481,16.673,37.272,16.555z M42.101,14.112
		c1.036-1.033,2.545-1.441,3.222-2.988c-1.448,0-2.688,0-3.793,0C41.718,12.109,41.883,12.975,42.101,14.112z M10.357,29.547
		c-1.155-0.4-1.911-0.663-2.667-0.925c-0.066,0.89-0.133,1.779-0.195,2.669c-0.006,0.087-0.009,0.234,0.034,0.255
		c0.35,0.164,0.946,0.514,1.03,0.418C9.164,31.284,9.665,30.512,10.357,29.547z"/>
	<path fill-rule="evenodd" clip-rule="evenodd" fill="#FFFFFF" d="M61.502,33.697c-1.736,0.782-3.577,0.728-5.412,0.55
		c-0.294-0.028-0.771-0.475-0.782-0.744c-0.072-1.71-0.037-3.425-0.037-5.138c0.161-0.045,0.322-0.09,0.483-0.136
		C57.652,30.035,59.55,31.841,61.502,33.697z"/>
	<path fill-rule="evenodd" clip-rule="evenodd" fill="#FFFFFF" d="M76.115,26.121c0.105-3.036,0.211-6.074,0.316-9.107
		c0.941-0.23,1.347,0.094,1.262,0.991c-0.084,0.881-0.232,1.759-0.252,2.641c-0.013,0.56,0.064,1.16,0.266,1.678
		C78.491,24.334,77.99,25.431,76.115,26.121z"/>
	<path fill-rule="evenodd" clip-rule="evenodd" fill="#FFFFFF" d="M86.136,32.743c1.166,1.463,3.76,1.975,3.088,4.906
		C87.835,36.093,86.605,34.677,86.136,32.743z"/>
	<path fill-rule="evenodd" clip-rule="evenodd" fill="#FFFFFF" d="M14.742,29.262c2.416,0.512,4.848,0.955,7.24,1.561
		c1.47,0.371,2.096,1.618,1.869,2.999c-0.476,2.899-1.168,5.761-3.813,7.597c-1.04,0.722-2.017,1.62-3.167,2.07
		c-1.118,0.438-1.942-0.455-1.782-1.686c0.149-1.143,0.462-2.269,0.54-3.413c0.034-0.502-0.194-1.205-0.56-1.509
		c-0.632-0.524-1.432-0.5-1.982,0.275c-0.403,0.569-0.631,1.354-1.16,1.722c-0.811,0.565-1.793,0.911-2.74,1.243
		c-0.676,0.237-1.247-0.104-1.102-0.849c0.152-0.781,0.402-1.655,0.902-2.236c1.658-1.922,2.941-3.965,3.185-6.57
		c0.03-0.328,0.546-0.756,0.92-0.872c0.487-0.151,1.057-0.037,1.592-0.037C14.703,29.458,14.723,29.36,14.742,29.262z"/>
	<path fill-rule="evenodd" clip-rule="evenodd" fill="#FFFFFF" d="M32.625,39.527c0.129-0.716,0.104-1.199,0.299-1.565
		c1.385-2.606,3.728-4.348,5.857-6.264c0.239-0.216,1.203,0.06,1.567,0.394c0.316,0.291,0.486,1.086,0.313,1.481
		c-0.246,0.564-0.816,1.027-1.33,1.429c-1.671,1.304-3.368,2.575-5.083,3.82C33.873,39.096,33.379,39.208,32.625,39.527z"/>
	<path fill-rule="evenodd" clip-rule="evenodd" fill="#FFFFFF" d="M41.986,22.807c-0.355,0.867-0.574,1.636-0.972,2.296
		c-0.369,0.612-0.809,1.357-1.778,0.9c-0.964-0.455-1.997-0.807-1.595-2.285c0.341-1.257,0.765-2.386,1.828-3.252
		c0.613-0.501,1.014-0.488,1.381,0.139C41.263,21.31,41.603,22.056,41.986,22.807z"/>
	<path fill-rule="evenodd" clip-rule="evenodd" fill="#FFFFFF" d="M37.272,16.555c0.208,0.118,0.536,0.195,0.604,0.372
		c0.067,0.177-0.076,0.489-0.213,0.679c-1.047,1.449-2.102,2.893-3.188,4.311c-0.208,0.272-0.571,0.427-0.863,0.636
		c-0.189-0.401-0.618-0.881-0.519-1.19c0.206-0.644,0.638-1.241,1.073-1.779c0.741-0.916,1.545-1.782,2.351-2.643
		C36.684,16.762,36.976,16.7,37.272,16.555z"/>
	<path fill-rule="evenodd" clip-rule="evenodd" fill="#FFFFFF" d="M42.101,14.112c-0.217-1.138-0.382-2.003-0.571-2.988
		c1.105,0,2.345,0,3.793,0C44.646,12.671,43.137,13.079,42.101,14.112z"/>
	<path fill-rule="evenodd" clip-rule="evenodd" fill="#FFFFFF" d="M10.357,29.547c-0.693,0.965-1.194,1.737-1.798,2.417
		c-0.084,0.096-0.681-0.254-1.03-0.418c-0.042-0.021-0.04-0.168-0.034-0.255c0.063-0.89,0.129-1.779,0.195-2.669
		C8.446,28.884,9.203,29.146,10.357,29.547z"/>
</g>
</svg>
