<?xml version="1.0" encoding="utf-8"?>
<!-- Generator: Adobe Illustrator 16.0.0, SVG Export Plug-In . SVG Version: 6.00 Build 0)  -->
<!DOCTYPE svg PUBLIC "-//W3C//DTD SVG 1.1//EN" "http://www.w3.org/Graphics/SVG/1.1/DTD/svg11.dtd">
<svg version="1.1" id="Layer_1" xmlns="http://www.w3.org/2000/svg" xmlns:xlink="http://www.w3.org/1999/xlink" x="0px" y="0px"
	 width="147.006px" height="46.27px" viewBox="0 0 147.006 46.27" enable-background="new 0 0 147.006 46.27" xml:space="preserve">
<g>
	<path fill-rule="evenodd" clip-rule="evenodd" d="M25.355,36.086c-0.032-0.478,0.015-0.976-0.107-1.428
		c-1.17-4.323-2.14-8.64-2.213-13.186c-0.061-3.762-0.776-7.512-1.212-11.267c-0.03-0.257-0.063-0.629-0.23-0.735
		c-2.458-1.565-1.895-4.191-2.248-6.466c-0.124-0.799-0.68-1.684,0.182-2.507c0.762-0.726,1.975-0.666,2.564,0.222
		c1.771,2.669,1.669,5.758,1.998,8.753c0.392,3.563,0.743,7.133,1.196,10.689c0.354,2.774,0.63,5.586,1.321,8.284
		c0.629,2.456,1.771,4.781,2.787,7.424c0.973-1.287,2.229-2.137,2.002-3.823c-0.316-2.354-0.58-4.694,0.528-6.949
		c0.12-0.245-0.082-0.644-0.122-0.973c-0.12-0.992-0.223-1.985-0.356-2.976c-0.049-0.364-0.084-0.764-0.259-1.072
		c-1.3-2.304-2.891-4.483-3.882-6.909C26.4,10.955,26.05,8.494,25.642,6.11c-0.102-0.593,0.419-1.773,0.826-1.858
		c0.601-0.124,1.508,0.331,2.015,0.82c1.401,1.352,1.375,1.82,0.442,3.581c-0.143,0.271-0.155,0.716-0.038,1.001
		c0.889,2.158,1.828,4.296,2.746,6.442c0.466,1.09,0.907,2.191,1.389,3.274c0.172,0.387,0.355,0.896,0.675,1.046
		c0.212,0.101,0.714-0.29,1.024-0.539c2.448-1.962,4.782-4.084,7.342-5.884c3.599-2.528,8.121-2.071,11.225,0.982
		c0.997,0.98,1.71,2.242,2.664,3.273c0.423,0.457,1.102,0.887,1.698,0.938c2.506,0.214,4.985,0.536,7.161,1.871
		c2.177,1.335,3.555,3.416,4.062,5.846c0.384,1.839-0.985,3.271-2.363,4.215c-7.52,5.152-15.612,8.713-25,7.907
		c-2.036-0.175-4.042-0.903-6.011-1.534c-0.66-0.211-1.163-0.909-1.813-1.447c-0.956,1.02-2.036,1.964-2.822,3.111
		c-0.319,0.466-0.165,1.433,0.071,2.06c0.335,0.888,1.008,1.642,1.418,2.509c0.332,0.703,0.027,1.232-0.685,1.631
		c-2.185,1.222-2.139,1.221-3.693-0.918c-0.659-0.905-1.195-2.191-2.816-1.465c-0.252,0.113-0.926-0.278-1.149-0.609
		c-1.58-2.343-3.015-4.785-4.657-7.082c-0.941-1.315-2.137-2.465-3.31-3.593c-0.566-0.544-1.338,0.007-1.484,1.001
		c-0.218,1.494-0.332,3.01-0.654,4.48c-0.443,2.021-0.774,4.13-1.636,5.976c-1.12,2.397-3.923,4.609-6.868,1.831
		c-0.801-0.756-1.482-1.64-2.208-2.474C2.5,41.707,1.725,40.958,1.16,40.078C0.634,39.259-0.008,38.29,0,37.393
		c0.035-3.687,0.456-7.371,0.431-11.054c-0.023-3.452,1.083-6.65,1.71-9.956c0.421-2.216,0.83-4.441,1.41-6.618
		c0.223-0.836,0.75-1.77,1.427-2.251c0.55-0.391,1.675-0.46,2.29-0.156C8.158,7.796,8.823,8.66,8.456,9.91
		c-0.154,0.526-0.025,1.137-0.025,1.709c0.135,0.027,0.271,0.056,0.406,0.083c0.158-0.212,0.385-0.402,0.462-0.641
		c0.476-1.477,0.921-2.964,1.37-4.449c0.306-1.01,1.27-1.637,2.12-1.369c0.944,0.297,1.499,1.299,1.251,2.271
		c-0.484,1.897-0.143,3.698,0.637,5.447c0.272,0.609,0.647,1.194,0.79,1.831c0.087,0.388-0.048,1.053-0.321,1.231
		c-0.305,0.2-0.921,0.099-1.323-0.064c-0.59-0.241-1.39-1.066-1.609-0.918c-0.778,0.527-1.516,1.27-1.968,2.096
		c-2.392,4.357-3.487,9.078-3.331,14.022c0.058,1.83,0.672,3.646,1.08,5.458c0.065,0.29,0.38,0.524,0.712,0.753
		c-0.554-2.999,1.417-5.416,1.674-8.181c0.11-1.182-0.061-2.389-0.086-3.585c-0.022-1.084-0.386-2.576,0.899-2.867
		c0.736-0.166,1.774,0.883,2.635,1.448c0.262,0.172,0.385,0.555,0.73,1.084c0.226-0.465,0.377-0.729,0.486-1.009
		c0.349-0.898,0.635-1.823,1.032-2.698c0.491-1.08,1.381-0.966,2.273-0.59c1.045,0.439,0.523,1.206,0.258,1.801
		c-1.11,2.49-0.187,4.729,0.871,6.899C20.762,32.306,22.926,34.219,25.355,36.086z M48.328,20.729
		c-0.069-1.193,0.365-1.532,1.415-1.445c1.279,0.104,2.575,0.024,4.242,0.024c-0.488-0.84-0.628-1.374-0.975-1.624
		c-1.094-0.791-2.243-1.514-3.41-2.194c-2.33-1.358-4.333-0.34-6.233,0.999c-0.268,0.189-0.518,0.915-0.389,1.071
		c1.035,1.253,0.813,2.758,1.04,4.183c0.059,0.373,0.6,0.845,1.004,0.954c1.36,0.368,2.77,0.547,4.141,0.884
		c2.025,0.498,4.033,1.07,6.049,1.608c0.565,0.15,1.074,0.2,1.18-0.595c0.193-1.445-1.302-3.387-2.749-3.502
		C51.883,20.952,50.121,20.85,48.328,20.729z M57.515,32.05c-0.037-0.221-0.073-0.44-0.11-0.66c-0.52,0-1.047-0.055-1.559,0.011
		c-1.259,0.162-2.516,0.564-3.766,0.535c-2.654-0.062-5.26-0.388-7.76-1.51c-2.193-0.984-4.558-1.58-6.806-2.451
		c-1.077-0.418-1.18,0.037-1.078,0.88c0.367,3.032,1.858,4.556,5.531,5.39c3.629,0.823,7.275,0.442,10.845-0.372
		C54.434,33.502,55.951,32.671,57.515,32.05z M37.779,25.169c0.119,0.137,0.169,0.212,0.235,0.269
		c1.618,1.366,3.613,1.766,5.573,2.39c3.031,0.965,6.082,1.585,9.241,1.703c0.306,0.012,0.625-0.377,0.939-0.58
		c-0.202-0.243-0.356-0.572-0.613-0.715c-0.891-0.493-1.779-1.036-2.737-1.354c-3.103-1.033-6.225-2.009-9.361-2.938
		C39.003,23.336,38.732,23.483,37.779,25.169z M58.763,22.239c0.327,1.621,0.585,2.923,0.852,4.223
		c0.168,0.821,0.236,1.685,0.542,2.452c0.785,1.967,1.75,2.206,3.415,0.952c0.353-0.266,0.661-0.592,1.015-0.856
		c0.965-0.719,1.02-1.592,0.47-2.578C63.698,23.996,61.292,23.204,58.763,22.239z M7.151,42.35c-0.696-1.73-1.307-3.249-1.997-4.964
		C4.042,39.464,5.004,41.825,7.151,42.35z M13.027,31.763c0.427-0.557,0.844-0.856,0.841-1.151
		c-0.004-0.541-0.256-1.081-0.405-1.621c-0.258,0.117-0.74,0.241-0.737,0.351C12.748,30.019,12.878,30.693,13.027,31.763z
		 M5.478,17.702c0.186,0.055,0.371,0.109,0.556,0.164c0.35-0.971,0.699-1.941,1.048-2.913c-0.148-0.051-0.297-0.103-0.446-0.154
		C6.249,15.766,5.863,16.734,5.478,17.702z"/>
	<path fill-rule="evenodd" clip-rule="evenodd" d="M97.631,36.562c0.156,0.261,0.254,0.401,0.329,0.553
		c0.307,0.613,0.842,1.24,0.814,1.841c-0.015,0.326-1.152,0.482-1.507,0.933c-1.048,1.334-1.963,0.374-3.037,0.089
		c-3.26-0.864-6.559-1.58-9.85-2.322c-1.988-0.448-3.527-1.319-3.957-3.535c-0.242-1.252-0.645-1.455-2.72-1.723
		c-0.081,2.922,3.132,3.968,3.69,6.579c-0.285,0.174-0.555,0.415-0.87,0.512c-0.685,0.211-1.404,0.313-2.09,0.523
		c-0.991,0.303-1.567-0.205-2.151-0.897c-0.266-0.314-0.75-0.646-1.123-0.632c-1.282,0.048-2.157-0.54-2.365-1.885
		c-0.169-1.098-0.268-2.209-0.331-3.318c-0.084-1.473-0.081-2.847-1.845-3.569c-1.104-0.452-1.142-1.962-0.186-3.421
		c0.497-0.758,0.592-1.35,0.239-2.189c-0.48-1.144-0.941-2.345-1.093-3.562c-0.13-1.036,0.041-2.173,0.348-3.185
		c0.38-1.257,1.099-2.406,1.562-3.644c1.273-3.396,3.569-5.568,7.222-6.088c4.225-0.602,8.451-1.216,12.694-1.651
		c1.708-0.175,3.499-0.078,5.188,0.236c2.016,0.376,2.684,2.325,3.545,3.878c0.766,1.379-0.335,2.345-1.168,3.256
		c-0.957,1.05-1.996,1.881-2.238,3.548c-0.148,1.026-1.312,2.154-2.309,2.76c-2.375,1.443-4.867,2.731-7.414,3.85
		c-3.963,1.74-4.395,2.208-3.348,6.403c0.188,0.753,1.691,1.536,2.674,1.67c4,0.544,8.039,0.797,12.053,1.247
		c2.277,0.255,4.35,1.121,6.248,2.436c0.979,0.679,1.414,1.612,1.059,2.631c-0.256,0.735-0.91,1.553-1.599,1.86
		c-0.938,0.42-1.796-0.152-2.251-1.13C101.184,37.195,99.365,36.256,97.631,36.562z M84.044,17.917
		c2.287-1.066,4.236-1.962,6.173-2.885c0.681-0.325,0.935-0.903,0.125-1.246c-1.672-0.707-3.397-1.307-5.143-1.809
		c-0.275-0.079-1.072,0.558-1.102,0.908C83.972,14.375,84.044,15.882,84.044,17.917z M88.535,8.956
		c-0.042,0.117-0.085,0.234-0.127,0.352c0.475,0.307,0.922,0.673,1.429,0.907c1.314,0.607,2.645,1.186,3.992,1.712
		c0.469,0.183,1.135,0.405,1.49,0.209c0.562-0.311,0.989-0.924,1.357-1.486c0.097-0.148-0.162-0.756-0.383-0.848
		c-1.165-0.48-2.348-1.103-3.566-1.217C91.354,8.455,89.934,8.811,88.535,8.956z M81.508,16.56
		c-0.283-1.725-0.439-3.238-0.818-4.693c-0.13-0.498-0.84-1.135-1.453-0.409c-0.647,0.764-1.16,1.655-1.632,2.544
		c-0.13,0.246-0.011,0.901,0.177,0.993C78.862,15.526,79.997,15.943,81.508,16.56z M75.467,21.455
		c0.049,0.752,0.086,1.33,0.148,2.295c0.718-0.644,1.209-1.085,1.873-1.681C76.718,21.834,76.231,21.687,75.467,21.455z"/>
	<path fill-rule="evenodd" clip-rule="evenodd" d="M120.136,24.174c0.804,0.595,1.206,1.067,1.708,1.236
		c3.107,1.041,6.238,2.014,9.361,3.008c0.043,0.014,0.091,0.013,0.13,0.031c2.097,0.974,4.282,1.428,6.611,1.491
		c1.597,0.044,2.438,1.328,2.477,2.901c0.015,0.604,0.35,1.209,0.577,1.798c0.203,0.528,0.641,1.037,0.638,1.553
		c-0.003,0.481-0.339,1.176-0.731,1.376c-0.361,0.185-1.215,0.012-1.469-0.308c-0.863-1.091-1.776-1.254-3.135-0.997
		c-3.077,0.582-5.893-0.249-8.718-1.66c-2.864-1.43-5.255-3.438-7.786-5.286c-0.724-0.528-1.245-0.486-1.91-0.063
		c-0.75,0.477-1.482,1.021-2.297,1.348c-1.295,0.52-1.255,1.44-0.992,2.514c0.229,0.942,0.432,1.891,0.668,2.831
		c0.379,1.508-0.506,2.341-1.631,3.005c-0.996,0.589-2.604,0.12-3.314-1.116c-0.783-1.362-1.308-2.872-2.049-4.262
		c-0.389-0.728-0.927-1.414-1.525-1.984c-1.697-1.616-1.838-2.594-0.835-4.608c0.327-0.656,0.385-1.587,0.228-2.319
		c-0.725-3.36-0.629-6.74-0.287-10.106c0.16-1.565,0.623-3.133,1.177-4.614c0.58-1.554,1.552-1.813,3.054-0.983
		c0.674,0.372,0.93,0.054,1.29-0.411c0.898-1.157,1.835-2.285,2.771-3.412c0.669-0.806,1.452-1.031,2.315-0.307
		c0.849,0.713,0.518,1.383,0.025,2.209c-1.287,2.156-2.892,4.271-3.519,6.629c-0.515,1.932,0.092,4.204,0.413,6.294
		c0.118,0.769,0.94,1.134,1.827,0.702c2.705-1.32,5.445-2.574,8.123-3.949c3.465-1.78,6.874-3.672,10.33-5.473
		c1.136-0.593,2.347-1.041,3.511-1.582c1.273-0.592,2.394-0.455,3.374,0.595c0.583,0.625,1.257,0.744,2.058,0.396
		c0.69-0.3,1.415-0.53,2.132-0.764c1.199-0.39,1.961,0.311,2.251,1.271c0.129,0.427-0.384,1.37-0.845,1.599
		c-2.213,1.101-4.503,2.048-6.773,3.028c-2.098,0.905-4.217,1.76-6.307,2.683c-2.133,0.941-4.231,1.962-6.363,2.907
		C124.657,22.277,122.592,23.128,120.136,24.174z"/>
	<path fill-rule="evenodd" clip-rule="evenodd" fill="#FFFFFF" d="M48.328,20.729c1.793,0.121,3.556,0.223,5.314,0.363
		c1.447,0.115,2.942,2.057,2.749,3.502c-0.106,0.795-0.615,0.745-1.18,0.595c-2.016-0.538-4.023-1.11-6.049-1.608
		c-1.371-0.337-2.781-0.516-4.141-0.884c-0.405-0.109-0.945-0.581-1.004-0.954c-0.226-1.425-0.005-2.93-1.04-4.183
		c-0.129-0.156,0.121-0.882,0.389-1.071c1.9-1.339,3.903-2.357,6.233-0.999c1.167,0.681,2.316,1.403,3.41,2.194
		c0.346,0.25,0.487,0.784,0.975,1.624c-1.667,0-2.963,0.08-4.242-0.024C48.693,19.197,48.259,19.536,48.328,20.729z"/>
	<path fill-rule="evenodd" clip-rule="evenodd" fill="#FFFFFF" d="M57.515,32.05c-1.564,0.621-3.081,1.452-4.703,1.822
		c-3.57,0.814-7.215,1.195-10.845,0.372c-3.673-0.834-5.165-2.357-5.531-5.39c-0.102-0.843,0.001-1.298,1.078-0.88
		c2.249,0.871,4.613,1.467,6.806,2.451c2.5,1.122,5.106,1.448,7.76,1.51c1.25,0.029,2.506-0.373,3.766-0.535
		c0.512-0.065,1.039-0.011,1.559-0.011C57.441,31.61,57.478,31.83,57.515,32.05z"/>
	<path fill-rule="evenodd" clip-rule="evenodd" fill="#FFFFFF" d="M37.779,25.169c0.954-1.687,1.224-1.833,3.276-1.226
		c3.136,0.929,6.258,1.904,9.361,2.938c0.958,0.318,1.847,0.861,2.737,1.354c0.257,0.143,0.412,0.472,0.613,0.715
		c-0.313,0.203-0.633,0.592-0.939,0.58c-3.159-0.118-6.209-0.738-9.241-1.703c-1.96-0.624-3.955-1.023-5.573-2.39
		C37.948,25.381,37.897,25.306,37.779,25.169z"/>
	<path fill-rule="evenodd" clip-rule="evenodd" fill="#FFFFFF" d="M58.763,22.239c2.528,0.965,4.935,1.757,6.294,4.192
		c0.55,0.986,0.495,1.859-0.47,2.578c-0.354,0.265-0.662,0.591-1.015,0.856c-1.665,1.254-2.63,1.015-3.415-0.952
		c-0.306-0.768-0.374-1.631-0.542-2.452C59.349,25.162,59.09,23.86,58.763,22.239z"/>
	<path fill-rule="evenodd" clip-rule="evenodd" fill="#FFFFFF" d="M7.151,42.35c-2.147-0.525-3.109-2.886-1.997-4.964
		C5.844,39.101,6.455,40.62,7.151,42.35z"/>
	<path fill-rule="evenodd" clip-rule="evenodd" fill="#FFFFFF" d="M13.027,31.763c-0.149-1.07-0.28-1.744-0.301-2.422
		c-0.003-0.109,0.479-0.233,0.737-0.351c0.149,0.54,0.401,1.08,0.405,1.621C13.871,30.907,13.454,31.207,13.027,31.763z"/>
	<path fill-rule="evenodd" clip-rule="evenodd" fill="#FFFFFF" d="M5.478,17.702c0.386-0.968,0.771-1.936,1.157-2.903
		c0.149,0.052,0.298,0.104,0.446,0.154c-0.349,0.972-0.698,1.942-1.048,2.913C5.848,17.811,5.663,17.756,5.478,17.702z"/>
	<path fill-rule="evenodd" clip-rule="evenodd" fill="#FFFFFF" d="M84.044,17.917c0-2.034-0.072-3.541,0.054-5.031
		c0.029-0.351,0.826-0.987,1.102-0.908c1.745,0.502,3.471,1.102,5.143,1.809c0.81,0.343,0.556,0.921-0.125,1.246
		C88.281,15.955,86.332,16.85,84.044,17.917z"/>
	<path fill-rule="evenodd" clip-rule="evenodd" fill="#FFFFFF" d="M88.535,8.956c1.399-0.145,2.819-0.501,4.192-0.371
		c1.219,0.114,2.401,0.736,3.566,1.217c0.221,0.092,0.479,0.699,0.383,0.848c-0.368,0.563-0.796,1.176-1.357,1.486
		c-0.355,0.196-1.021-0.026-1.49-0.209c-1.348-0.526-2.678-1.104-3.992-1.712c-0.507-0.234-0.954-0.601-1.429-0.907
		C88.45,9.19,88.493,9.073,88.535,8.956z"/>
	<path fill-rule="evenodd" clip-rule="evenodd" fill="#FFFFFF" d="M81.508,16.56c-1.512-0.617-2.646-1.034-3.727-1.565
		c-0.188-0.092-0.307-0.747-0.177-0.993c0.472-0.889,0.984-1.78,1.632-2.544c0.613-0.726,1.323-0.089,1.453,0.409
		C81.069,13.322,81.225,14.835,81.508,16.56z"/>
	<path fill-rule="evenodd" clip-rule="evenodd" fill="#FFFFFF" d="M75.467,21.455c0.764,0.232,1.251,0.38,2.021,0.614
		c-0.664,0.596-1.155,1.037-1.873,1.681C75.553,22.785,75.516,22.207,75.467,21.455z"/>
</g>
</svg>
